<?xml version="1.0" encoding="utf-8" standalone="no"?>
<!DOCTYPE svg PUBLIC "-//W3C//DTD SVG 1.1//EN"
  "http://www.w3.org/Graphics/SVG/1.1/DTD/svg11.dtd">
<!-- Created with matplotlib (http://matplotlib.org/) -->
<svg height="360pt" version="1.1" viewBox="0 0 360 360" width="360pt" xmlns="http://www.w3.org/2000/svg" xmlns:xlink="http://www.w3.org/1999/xlink">
 <defs>
  <style type="text/css">
*{stroke-linecap:butt;stroke-linejoin:round;stroke-miterlimit:100000;}
  </style>
 </defs>
 <g id="figure_1">
  <g id="patch_1">
   <path d="M 0 360 
L 360 360 
L 360 0 
L 0 0 
z
" style="fill:#ffffff;"/>
  </g>
  <g id="axes_1">
   <g id="patch_2">
    <path d="M 45 315 
L 324 315 
L 324 36 
L 45 36 
z
" style="fill:#ffffff;"/>
   </g>
   <g id="line2d_1">
    <defs>
     <path d="M -3 3 
L 3 -3 
M -3 -3 
L 3 3 
" id="ma16806b144" style="stroke:#ff0000;stroke-width:0.5;"/>
    </defs>
    <g clip-path="url(#p6b93861c4f)">
     <use style="fill:#ff0000;stroke:#ff0000;stroke-width:0.5;" x="246.880234536" xlink:href="#ma16806b144" y="236.394773802"/>
     <use style="fill:#ff0000;stroke:#ff0000;stroke-width:0.5;" x="125.613705537" xlink:href="#ma16806b144" y="164.399876718"/>
     <use style="fill:#ff0000;stroke:#ff0000;stroke-width:0.5;" x="196.328921574" xlink:href="#ma16806b144" y="179.450229829"/>
     <use style="fill:#ff0000;stroke:#ff0000;stroke-width:0.5;" x="191.477018248" xlink:href="#ma16806b144" y="183.682303058"/>
     <use style="fill:#ff0000;stroke:#ff0000;stroke-width:0.5;" x="125.783151958" xlink:href="#ma16806b144" y="164.870417016"/>
     <use style="fill:#ff0000;stroke:#ff0000;stroke-width:0.5;" x="225.786170408" xlink:href="#ma16806b144" y="217.374758151"/>
     <use style="fill:#ff0000;stroke:#ff0000;stroke-width:0.5;" x="162.186083404" xlink:href="#ma16806b144" y="210.488826986"/>
     <use style="fill:#ff0000;stroke:#ff0000;stroke-width:0.5;" x="177.099537008" xlink:href="#ma16806b144" y="92.5804340267"/>
     <use style="fill:#ff0000;stroke:#ff0000;stroke-width:0.5;" x="260.103068964" xlink:href="#ma16806b144" y="222.726870073"/>
     <use style="fill:#ff0000;stroke:#ff0000;stroke-width:0.5;" x="240.504162717" xlink:href="#ma16806b144" y="152.436765457"/>
     <use style="fill:#ff0000;stroke:#ff0000;stroke-width:0.5;" x="260.261213979" xlink:href="#ma16806b144" y="223.864762629"/>
     <use style="fill:#ff0000;stroke:#ff0000;stroke-width:0.5;" x="220.250507021" xlink:href="#ma16806b144" y="250.760965823"/>
     <use style="fill:#ff0000;stroke:#ff0000;stroke-width:0.5;" x="230.615584626" xlink:href="#ma16806b144" y="228.263845814"/>
     <use style="fill:#ff0000;stroke:#ff0000;stroke-width:0.5;" x="301.744177752" xlink:href="#ma16806b144" y="203.676588121"/>
     <use style="fill:#ff0000;stroke:#ff0000;stroke-width:0.5;" x="168.714672219" xlink:href="#ma16806b144" y="96.713344194"/>
     <use style="fill:#ff0000;stroke:#ff0000;stroke-width:0.5;" x="246.536084672" xlink:href="#ma16806b144" y="239.519258228"/>
     <use style="fill:#ff0000;stroke:#ff0000;stroke-width:0.5;" x="69.73836756" xlink:href="#ma16806b144" y="222.863263849"/>
     <use style="fill:#ff0000;stroke:#ff0000;stroke-width:0.5;" x="226.836376246" xlink:href="#ma16806b144" y="217.938849625"/>
     <use style="fill:#ff0000;stroke:#ff0000;stroke-width:0.5;" x="127.840116953" xlink:href="#ma16806b144" y="160.505295571"/>
     <use style="fill:#ff0000;stroke:#ff0000;stroke-width:0.5;" x="239.652286743" xlink:href="#ma16806b144" y="249.131407188"/>
     <use style="fill:#ff0000;stroke:#ff0000;stroke-width:0.5;" x="187.245235535" xlink:href="#ma16806b144" y="152.419132495"/>
     <use style="fill:#ff0000;stroke:#ff0000;stroke-width:0.5;" x="237.274751008" xlink:href="#ma16806b144" y="193.008224213"/>
     <use style="fill:#ff0000;stroke:#ff0000;stroke-width:0.5;" x="296.763563064" xlink:href="#ma16806b144" y="200.060077953"/>
     <use style="fill:#ff0000;stroke:#ff0000;stroke-width:0.5;" x="124.859270195" xlink:href="#ma16806b144" y="162.560616451"/>
     <use style="fill:#ff0000;stroke:#ff0000;stroke-width:0.5;" x="229.217146114" xlink:href="#ma16806b144" y="151.230647085"/>
     <use style="fill:#ff0000;stroke:#ff0000;stroke-width:0.5;" x="174.772034258" xlink:href="#ma16806b144" y="171.21632426"/>
     <use style="fill:#ff0000;stroke:#ff0000;stroke-width:0.5;" x="119.426557595" xlink:href="#ma16806b144" y="206.788803825"/>
     <use style="fill:#ff0000;stroke:#ff0000;stroke-width:0.5;" x="186.873735209" xlink:href="#ma16806b144" y="149.491086158"/>
     <use style="fill:#ff0000;stroke:#ff0000;stroke-width:0.5;" x="166.044087803" xlink:href="#ma16806b144" y="197.405000944"/>
     <use style="fill:#ff0000;stroke:#ff0000;stroke-width:0.5;" x="192.646880728" xlink:href="#ma16806b144" y="185.007193934"/>
     <use style="fill:#ff0000;stroke:#ff0000;stroke-width:0.5;" x="68.963177626" xlink:href="#ma16806b144" y="223.561160903"/>
     <use style="fill:#ff0000;stroke:#ff0000;stroke-width:0.5;" x="70.3101399436" xlink:href="#ma16806b144" y="222.891003233"/>
     <use style="fill:#ff0000;stroke:#ff0000;stroke-width:0.5;" x="249.136185153" xlink:href="#ma16806b144" y="235.15438389"/>
     <use style="fill:#ff0000;stroke:#ff0000;stroke-width:0.5;" x="134.167514038" xlink:href="#ma16806b144" y="136.999596915"/>
     <use style="fill:#ff0000;stroke:#ff0000;stroke-width:0.5;" x="242.156927708" xlink:href="#ma16806b144" y="251.247768138"/>
     <use style="fill:#ff0000;stroke:#ff0000;stroke-width:0.5;" x="125.639550908" xlink:href="#ma16806b144" y="165.939023748"/>
     <use style="fill:#ff0000;stroke:#ff0000;stroke-width:0.5;" x="144.519862662" xlink:href="#ma16806b144" y="159.542277424"/>
     <use style="fill:#ff0000;stroke:#ff0000;stroke-width:0.5;" x="192.221572249" xlink:href="#ma16806b144" y="183.60671616"/>
     <use style="fill:#ff0000;stroke:#ff0000;stroke-width:0.5;" x="121.257438142" xlink:href="#ma16806b144" y="206.696300128"/>
     <use style="fill:#ff0000;stroke:#ff0000;stroke-width:0.5;" x="136.357106607" xlink:href="#ma16806b144" y="146.688252033"/>
     <use style="fill:#ff0000;stroke:#ff0000;stroke-width:0.5;" x="177.06198015" xlink:href="#ma16806b144" y="88.3847506875"/>
     <use style="fill:#ff0000;stroke:#ff0000;stroke-width:0.5;" x="193.725531587" xlink:href="#ma16806b144" y="182.964693106"/>
     <use style="fill:#ff0000;stroke:#ff0000;stroke-width:0.5;" x="244.743176376" xlink:href="#ma16806b144" y="266.934853378"/>
     <use style="fill:#ff0000;stroke:#ff0000;stroke-width:0.5;" x="289.949046358" xlink:href="#ma16806b144" y="165.283780937"/>
     <use style="fill:#ff0000;stroke:#ff0000;stroke-width:0.5;" x="297.839981627" xlink:href="#ma16806b144" y="67.362564061"/>
     <use style="fill:#ff0000;stroke:#ff0000;stroke-width:0.5;" x="164.602852637" xlink:href="#ma16806b144" y="201.227272031"/>
     <use style="fill:#ff0000;stroke:#ff0000;stroke-width:0.5;" x="122.901548797" xlink:href="#ma16806b144" y="207.425316213"/>
     <use style="fill:#ff0000;stroke:#ff0000;stroke-width:0.5;" x="162.731050762" xlink:href="#ma16806b144" y="208.642816565"/>
     <use style="fill:#ff0000;stroke:#ff0000;stroke-width:0.5;" x="227.103521002" xlink:href="#ma16806b144" y="141.607893323"/>
     <use style="fill:#ff0000;stroke:#ff0000;stroke-width:0.5;" x="248.389351354" xlink:href="#ma16806b144" y="228.68879474"/>
     <use style="fill:#ff0000;stroke:#ff0000;stroke-width:0.5;" x="165.22429491" xlink:href="#ma16806b144" y="199.627932867"/>
     <use style="fill:#ff0000;stroke:#ff0000;stroke-width:0.5;" x="165.468332978" xlink:href="#ma16806b144" y="199.044081964"/>
     <use style="fill:#ff0000;stroke:#ff0000;stroke-width:0.5;" x="297.232299337" xlink:href="#ma16806b144" y="200.587313166"/>
     <use style="fill:#ff0000;stroke:#ff0000;stroke-width:0.5;" x="298.119188697" xlink:href="#ma16806b144" y="68.6825763014"/>
     <use style="fill:#ff0000;stroke:#ff0000;stroke-width:0.5;" x="182.73081901" xlink:href="#ma16806b144" y="171.799968116"/>
     <use style="fill:#ff0000;stroke:#ff0000;stroke-width:0.5;" x="259.793396647" xlink:href="#ma16806b144" y="223.095824937"/>
     <use style="fill:#ff0000;stroke:#ff0000;stroke-width:0.5;" x="246.58166914" xlink:href="#ma16806b144" y="236.102712369"/>
     <use style="fill:#ff0000;stroke:#ff0000;stroke-width:0.5;" x="177.900873694" xlink:href="#ma16806b144" y="167.805075421"/>
     <use style="fill:#ff0000;stroke:#ff0000;stroke-width:0.5;" x="148.720334772" xlink:href="#ma16806b144" y="102.643600391"/>
     <use style="fill:#ff0000;stroke:#ff0000;stroke-width:0.5;" x="218.734285385" xlink:href="#ma16806b144" y="138.559980941"/>
     <use style="fill:#ff0000;stroke:#ff0000;stroke-width:0.5;" x="126.983254791" xlink:href="#ma16806b144" y="157.450663936"/>
     <use style="fill:#ff0000;stroke:#ff0000;stroke-width:0.5;" x="132.275339217" xlink:href="#ma16806b144" y="149.283349948"/>
     <use style="fill:#ff0000;stroke:#ff0000;stroke-width:0.5;" x="292.647474709" xlink:href="#ma16806b144" y="169.163665572"/>
     <use style="fill:#ff0000;stroke:#ff0000;stroke-width:0.5;" x="188.960395729" xlink:href="#ma16806b144" y="144.081716026"/>
     <use style="fill:#ff0000;stroke:#ff0000;stroke-width:0.5;" x="298.466888612" xlink:href="#ma16806b144" y="67.6568247637"/>
     <use style="fill:#ff0000;stroke:#ff0000;stroke-width:0.5;" x="174.920057148" xlink:href="#ma16806b144" y="90.0315762776"/>
     <use style="fill:#ff0000;stroke:#ff0000;stroke-width:0.5;" x="286.72589596" xlink:href="#ma16806b144" y="161.227624112"/>
     <use style="fill:#ff0000;stroke:#ff0000;stroke-width:0.5;" x="244.914628764" xlink:href="#ma16806b144" y="238.020768635"/>
     <use style="fill:#ff0000;stroke:#ff0000;stroke-width:0.5;" x="246.372860682" xlink:href="#ma16806b144" y="161.670502975"/>
     <use style="fill:#ff0000;stroke:#ff0000;stroke-width:0.5;" x="238.537080254" xlink:href="#ma16806b144" y="183.765785673"/>
     <use style="fill:#ff0000;stroke:#ff0000;stroke-width:0.5;" x="163.761229967" xlink:href="#ma16806b144" y="99.1171529516"/>
     <use style="fill:#ff0000;stroke:#ff0000;stroke-width:0.5;" x="298.361191501" xlink:href="#ma16806b144" y="62.5018563634"/>
     <use style="fill:#ff0000;stroke:#ff0000;stroke-width:0.5;" x="184.69260052" xlink:href="#ma16806b144" y="143.284583992"/>
     <use style="fill:#ff0000;stroke:#ff0000;stroke-width:0.5;" x="213.329098658" xlink:href="#ma16806b144" y="228.675428546"/>
     <use style="fill:#ff0000;stroke:#ff0000;stroke-width:0.5;" x="263.372482443" xlink:href="#ma16806b144" y="228.460580328"/>
     <use style="fill:#ff0000;stroke:#ff0000;stroke-width:0.5;" x="267.231880715" xlink:href="#ma16806b144" y="233.086650123"/>
     <use style="fill:#ff0000;stroke:#ff0000;stroke-width:0.5;" x="188.166202791" xlink:href="#ma16806b144" y="179.988725304"/>
     <use style="fill:#ff0000;stroke:#ff0000;stroke-width:0.5;" x="263.270301587" xlink:href="#ma16806b144" y="227.934451001"/>
     <use style="fill:#ff0000;stroke:#ff0000;stroke-width:0.5;" x="186.346492418" xlink:href="#ma16806b144" y="154.972692207"/>
     <use style="fill:#ff0000;stroke:#ff0000;stroke-width:0.5;" x="179.94029904" xlink:href="#ma16806b144" y="177.591981768"/>
     <use style="fill:#ff0000;stroke:#ff0000;stroke-width:0.5;" x="125.923073089" xlink:href="#ma16806b144" y="163.593155216"/>
     <use style="fill:#ff0000;stroke:#ff0000;stroke-width:0.5;" x="126.905911287" xlink:href="#ma16806b144" y="157.009165385"/>
     <use style="fill:#ff0000;stroke:#ff0000;stroke-width:0.5;" x="139.241915525" xlink:href="#ma16806b144" y="136.031295269"/>
     <use style="fill:#ff0000;stroke:#ff0000;stroke-width:0.5;" x="224.134911732" xlink:href="#ma16806b144" y="150.870198013"/>
     <use style="fill:#ff0000;stroke:#ff0000;stroke-width:0.5;" x="188.010093424" xlink:href="#ma16806b144" y="138.516157969"/>
     <use style="fill:#ff0000;stroke:#ff0000;stroke-width:0.5;" x="293.526908571" xlink:href="#ma16806b144" y="165.722949618"/>
     <use style="fill:#ff0000;stroke:#ff0000;stroke-width:0.5;" x="242.899476832" xlink:href="#ma16806b144" y="147.876234635"/>
     <use style="fill:#ff0000;stroke:#ff0000;stroke-width:0.5;" x="151.003880321" xlink:href="#ma16806b144" y="101.789683673"/>
     <use style="fill:#ff0000;stroke:#ff0000;stroke-width:0.5;" x="164.404762195" xlink:href="#ma16806b144" y="202.521680189"/>
     <use style="fill:#ff0000;stroke:#ff0000;stroke-width:0.5;" x="299.300608769" xlink:href="#ma16806b144" y="202.176188741"/>
     <use style="fill:#ff0000;stroke:#ff0000;stroke-width:0.5;" x="108.676714795" xlink:href="#ma16806b144" y="203.252353292"/>
     <use style="fill:#ff0000;stroke:#ff0000;stroke-width:0.5;" x="298.490528855" xlink:href="#ma16806b144" y="64.5812196206"/>
     <use style="fill:#ff0000;stroke:#ff0000;stroke-width:0.5;" x="253.783927652" xlink:href="#ma16806b144" y="215.247195847"/>
     <use style="fill:#ff0000;stroke:#ff0000;stroke-width:0.5;" x="224.968970275" xlink:href="#ma16806b144" y="250.84257175"/>
     <use style="fill:#ff0000;stroke:#ff0000;stroke-width:0.5;" x="244.7724942" xlink:href="#ma16806b144" y="271.614067231"/>
     <use style="fill:#ff0000;stroke:#ff0000;stroke-width:0.5;" x="127.099298213" xlink:href="#ma16806b144" y="165.855689304"/>
     <use style="fill:#ff0000;stroke:#ff0000;stroke-width:0.5;" x="186.919377957" xlink:href="#ma16806b144" y="187.667431468"/>
     <use style="fill:#ff0000;stroke:#ff0000;stroke-width:0.5;" x="292.057957192" xlink:href="#ma16806b144" y="167.906714692"/>
     <use style="fill:#ff0000;stroke:#ff0000;stroke-width:0.5;" x="165.017916385" xlink:href="#ma16806b144" y="201.004514156"/>
     <use style="fill:#ff0000;stroke:#ff0000;stroke-width:0.5;" x="297.70457657" xlink:href="#ma16806b144" y="66.9174255695"/>
     <use style="fill:#ff0000;stroke:#ff0000;stroke-width:0.5;" x="70.0693934105" xlink:href="#ma16806b144" y="222.296640382"/>
     <use style="fill:#ff0000;stroke:#ff0000;stroke-width:0.5;" x="127.718549449" xlink:href="#ma16806b144" y="156.57874707"/>
     <use style="fill:#ff0000;stroke:#ff0000;stroke-width:0.5;" x="69.729751165" xlink:href="#ma16806b144" y="224.239803307"/>
     <use style="fill:#ff0000;stroke:#ff0000;stroke-width:0.5;" x="187.805152552" xlink:href="#ma16806b144" y="134.240893013"/>
     <use style="fill:#ff0000;stroke:#ff0000;stroke-width:0.5;" x="70.9338317698" xlink:href="#ma16806b144" y="218.714151291"/>
     <use style="fill:#ff0000;stroke:#ff0000;stroke-width:0.5;" x="165.867014421" xlink:href="#ma16806b144" y="197.520935634"/>
     <use style="fill:#ff0000;stroke:#ff0000;stroke-width:0.5;" x="126.909717506" xlink:href="#ma16806b144" y="159.789897186"/>
     <use style="fill:#ff0000;stroke:#ff0000;stroke-width:0.5;" x="248.941741715" xlink:href="#ma16806b144" y="152.970660847"/>
     <use style="fill:#ff0000;stroke:#ff0000;stroke-width:0.5;" x="266.492623627" xlink:href="#ma16806b144" y="232.306854083"/>
     <use style="fill:#ff0000;stroke:#ff0000;stroke-width:0.5;" x="174.293850162" xlink:href="#ma16806b144" y="171.863991714"/>
     <use style="fill:#ff0000;stroke:#ff0000;stroke-width:0.5;" x="221.179755619" xlink:href="#ma16806b144" y="230.870524193"/>
     <use style="fill:#ff0000;stroke:#ff0000;stroke-width:0.5;" x="127.153070854" xlink:href="#ma16806b144" y="159.889561088"/>
     <use style="fill:#ff0000;stroke:#ff0000;stroke-width:0.5;" x="186.564834836" xlink:href="#ma16806b144" y="132.893414866"/>
     <use style="fill:#ff0000;stroke:#ff0000;stroke-width:0.5;" x="250.429341646" xlink:href="#ma16806b144" y="165.362751875"/>
     <use style="fill:#ff0000;stroke:#ff0000;stroke-width:0.5;" x="144.524179294" xlink:href="#ma16806b144" y="143.830342397"/>
     <use style="fill:#ff0000;stroke:#ff0000;stroke-width:0.5;" x="127.606800246" xlink:href="#ma16806b144" y="162.466185553"/>
     <use style="fill:#ff0000;stroke:#ff0000;stroke-width:0.5;" x="153.817506062" xlink:href="#ma16806b144" y="146.921816026"/>
     <use style="fill:#ff0000;stroke:#ff0000;stroke-width:0.5;" x="147.968241968" xlink:href="#ma16806b144" y="143.250307804"/>
     <use style="fill:#ff0000;stroke:#ff0000;stroke-width:0.5;" x="137.752398911" xlink:href="#ma16806b144" y="138.802700344"/>
     <use style="fill:#ff0000;stroke:#ff0000;stroke-width:0.5;" x="144.654666825" xlink:href="#ma16806b144" y="152.5276432"/>
     <use style="fill:#ff0000;stroke:#ff0000;stroke-width:0.5;" x="296.323162386" xlink:href="#ma16806b144" y="200.617365505"/>
     <use style="fill:#ff0000;stroke:#ff0000;stroke-width:0.5;" x="283.210463481" xlink:href="#ma16806b144" y="157.500905192"/>
     <use style="fill:#ff0000;stroke:#ff0000;stroke-width:0.5;" x="188.565119911" xlink:href="#ma16806b144" y="185.862291407"/>
     <use style="fill:#ff0000;stroke:#ff0000;stroke-width:0.5;" x="167.91688825" xlink:href="#ma16806b144" y="163.452798927"/>
     <use style="fill:#ff0000;stroke:#ff0000;stroke-width:0.5;" x="141.259874616" xlink:href="#ma16806b144" y="151.150170463"/>
     <use style="fill:#ff0000;stroke:#ff0000;stroke-width:0.5;" x="256.467297728" xlink:href="#ma16806b144" y="219.16521771"/>
     <use style="fill:#ff0000;stroke:#ff0000;stroke-width:0.5;" x="299.155776588" xlink:href="#ma16806b144" y="68.6223324211"/>
     <use style="fill:#ff0000;stroke:#ff0000;stroke-width:0.5;" x="300.068508857" xlink:href="#ma16806b144" y="158.800179153"/>
     <use style="fill:#ff0000;stroke:#ff0000;stroke-width:0.5;" x="249.208796003" xlink:href="#ma16806b144" y="157.448028963"/>
     <use style="fill:#ff0000;stroke:#ff0000;stroke-width:0.5;" x="173.556921499" xlink:href="#ma16806b144" y="172.042260563"/>
     <use style="fill:#ff0000;stroke:#ff0000;stroke-width:0.5;" x="186.889949786" xlink:href="#ma16806b144" y="130.709407443"/>
     <use style="fill:#ff0000;stroke:#ff0000;stroke-width:0.5;" x="228.402310257" xlink:href="#ma16806b144" y="146.414798221"/>
     <use style="fill:#ff0000;stroke:#ff0000;stroke-width:0.5;" x="288.327045086" xlink:href="#ma16806b144" y="168.917792004"/>
     <use style="fill:#ff0000;stroke:#ff0000;stroke-width:0.5;" x="170.933484128" xlink:href="#ma16806b144" y="89.856264121"/>
     <use style="fill:#ff0000;stroke:#ff0000;stroke-width:0.5;" x="297.060682249" xlink:href="#ma16806b144" y="65.9475115383"/>
     <use style="fill:#ff0000;stroke:#ff0000;stroke-width:0.5;" x="241.167993634" xlink:href="#ma16806b144" y="183.816414357"/>
     <use style="fill:#ff0000;stroke:#ff0000;stroke-width:0.5;" x="247.952584801" xlink:href="#ma16806b144" y="238.286934135"/>
     <use style="fill:#ff0000;stroke:#ff0000;stroke-width:0.5;" x="259.641464331" xlink:href="#ma16806b144" y="222.947596001"/>
     <use style="fill:#ff0000;stroke:#ff0000;stroke-width:0.5;" x="248.976987639" xlink:href="#ma16806b144" y="284.208824434"/>
     <use style="fill:#ff0000;stroke:#ff0000;stroke-width:0.5;" x="184.439079708" xlink:href="#ma16806b144" y="151.890648142"/>
     <use style="fill:#ff0000;stroke:#ff0000;stroke-width:0.5;" x="214.746364808" xlink:href="#ma16806b144" y="235.109787405"/>
     <use style="fill:#ff0000;stroke:#ff0000;stroke-width:0.5;" x="171.695820102" xlink:href="#ma16806b144" y="94.6391578829"/>
     <use style="fill:#ff0000;stroke:#ff0000;stroke-width:0.5;" x="164.496124489" xlink:href="#ma16806b144" y="202.063673985"/>
     <use style="fill:#ff0000;stroke:#ff0000;stroke-width:0.5;" x="132.287685094" xlink:href="#ma16806b144" y="142.688270943"/>
     <use style="fill:#ff0000;stroke:#ff0000;stroke-width:0.5;" x="239.657639949" xlink:href="#ma16806b144" y="188.103318841"/>
     <use style="fill:#ff0000;stroke:#ff0000;stroke-width:0.5;" x="193.856992952" xlink:href="#ma16806b144" y="181.044086843"/>
     <use style="fill:#ff0000;stroke:#ff0000;stroke-width:0.5;" x="243.166711452" xlink:href="#ma16806b144" y="264.020839849"/>
     <use style="fill:#ff0000;stroke:#ff0000;stroke-width:0.5;" x="141.018713907" xlink:href="#ma16806b144" y="142.551207069"/>
     <use style="fill:#ff0000;stroke:#ff0000;stroke-width:0.5;" x="187.216856175" xlink:href="#ma16806b144" y="134.500167198"/>
     <use style="fill:#ff0000;stroke:#ff0000;stroke-width:0.5;" x="215.409474515" xlink:href="#ma16806b144" y="250.505253719"/>
     <use style="fill:#ff0000;stroke:#ff0000;stroke-width:0.5;" x="187.824732296" xlink:href="#ma16806b144" y="147.839428642"/>
     <use style="fill:#ff0000;stroke:#ff0000;stroke-width:0.5;" x="230.994341479" xlink:href="#ma16806b144" y="211.353853415"/>
     <use style="fill:#ff0000;stroke:#ff0000;stroke-width:0.5;" x="121.335405409" xlink:href="#ma16806b144" y="207.485147672"/>
     <use style="fill:#ff0000;stroke:#ff0000;stroke-width:0.5;" x="248.215924235" xlink:href="#ma16806b144" y="238.495559759"/>
     <use style="fill:#ff0000;stroke:#ff0000;stroke-width:0.5;" x="257.13989088" xlink:href="#ma16806b144" y="152.727743135"/>
     <use style="fill:#ff0000;stroke:#ff0000;stroke-width:0.5;" x="136.114835722" xlink:href="#ma16806b144" y="153.185292265"/>
     <use style="fill:#ff0000;stroke:#ff0000;stroke-width:0.5;" x="246.450196001" xlink:href="#ma16806b144" y="239.313091053"/>
     <use style="fill:#ff0000;stroke:#ff0000;stroke-width:0.5;" x="164.437880892" xlink:href="#ma16806b144" y="202.371760056"/>
     <use style="fill:#ff0000;stroke:#ff0000;stroke-width:0.5;" x="218.231664127" xlink:href="#ma16806b144" y="247.40600587"/>
     <use style="fill:#ff0000;stroke:#ff0000;stroke-width:0.5;" x="187.784741481" xlink:href="#ma16806b144" y="135.790459252"/>
     <use style="fill:#ff0000;stroke:#ff0000;stroke-width:0.5;" x="144.085955417" xlink:href="#ma16806b144" y="145.311781815"/>
     <use style="fill:#ff0000;stroke:#ff0000;stroke-width:0.5;" x="237.268286472" xlink:href="#ma16806b144" y="141.05267521"/>
     <use style="fill:#ff0000;stroke:#ff0000;stroke-width:0.5;" x="255.551417526" xlink:href="#ma16806b144" y="216.894977771"/>
     <use style="fill:#ff0000;stroke:#ff0000;stroke-width:0.5;" x="126.539531332" xlink:href="#ma16806b144" y="164.871166359"/>
     <use style="fill:#ff0000;stroke:#ff0000;stroke-width:0.5;" x="299.805831332" xlink:href="#ma16806b144" y="65.9127301069"/>
     <use style="fill:#ff0000;stroke:#ff0000;stroke-width:0.5;" x="242.291446043" xlink:href="#ma16806b144" y="257.355474575"/>
     <use style="fill:#ff0000;stroke:#ff0000;stroke-width:0.5;" x="156.663409431" xlink:href="#ma16806b144" y="140.655453087"/>
     <use style="fill:#ff0000;stroke:#ff0000;stroke-width:0.5;" x="220.113372233" xlink:href="#ma16806b144" y="223.011158081"/>
     <use style="fill:#ff0000;stroke:#ff0000;stroke-width:0.5;" x="242.146354287" xlink:href="#ma16806b144" y="252.091470742"/>
     <use style="fill:#ff0000;stroke:#ff0000;stroke-width:0.5;" x="296.906516806" xlink:href="#ma16806b144" y="66.2524322287"/>
     <use style="fill:#ff0000;stroke:#ff0000;stroke-width:0.5;" x="295.374562563" xlink:href="#ma16806b144" y="175.926122457"/>
     <use style="fill:#ff0000;stroke:#ff0000;stroke-width:0.5;" x="246.231245049" xlink:href="#ma16806b144" y="235.783737144"/>
     <use style="fill:#ff0000;stroke:#ff0000;stroke-width:0.5;" x="116.39333572" xlink:href="#ma16806b144" y="204.985147637"/>
     <use style="fill:#ff0000;stroke:#ff0000;stroke-width:0.5;" x="120.410781362" xlink:href="#ma16806b144" y="207.963209988"/>
     <use style="fill:#ff0000;stroke:#ff0000;stroke-width:0.5;" x="115.16782184" xlink:href="#ma16806b144" y="205.31712645"/>
     <use style="fill:#ff0000;stroke:#ff0000;stroke-width:0.5;" x="246.535938444" xlink:href="#ma16806b144" y="245.87480271"/>
     <use style="fill:#ff0000;stroke:#ff0000;stroke-width:0.5;" x="250.345073273" xlink:href="#ma16806b144" y="291.864717554"/>
     <use style="fill:#ff0000;stroke:#ff0000;stroke-width:0.5;" x="235.996565811" xlink:href="#ma16806b144" y="135.411664332"/>
     <use style="fill:#ff0000;stroke:#ff0000;stroke-width:0.5;" x="248.715426199" xlink:href="#ma16806b144" y="233.952850015"/>
     <use style="fill:#ff0000;stroke:#ff0000;stroke-width:0.5;" x="174.268916409" xlink:href="#ma16806b144" y="171.477934844"/>
     <use style="fill:#ff0000;stroke:#ff0000;stroke-width:0.5;" x="246.447813114" xlink:href="#ma16806b144" y="240.275879331"/>
     <use style="fill:#ff0000;stroke:#ff0000;stroke-width:0.5;" x="241.430095062" xlink:href="#ma16806b144" y="255.546966856"/>
     <use style="fill:#ff0000;stroke:#ff0000;stroke-width:0.5;" x="237.95817049" xlink:href="#ma16806b144" y="238.642120145"/>
     <use style="fill:#ff0000;stroke:#ff0000;stroke-width:0.5;" x="158.602891744" xlink:href="#ma16806b144" y="97.0278505716"/>
     <use style="fill:#ff0000;stroke:#ff0000;stroke-width:0.5;" x="185.099311476" xlink:href="#ma16806b144" y="140.591784953"/>
     <use style="fill:#ff0000;stroke:#ff0000;stroke-width:0.5;" x="246.858256037" xlink:href="#ma16806b144" y="142.562309413"/>
     <use style="fill:#ff0000;stroke:#ff0000;stroke-width:0.5;" x="191.271488762" xlink:href="#ma16806b144" y="138.729552992"/>
     <use style="fill:#ff0000;stroke:#ff0000;stroke-width:0.5;" x="221.977606239" xlink:href="#ma16806b144" y="249.550250519"/>
     <use style="fill:#ff0000;stroke:#ff0000;stroke-width:0.5;" x="143.151401048" xlink:href="#ma16806b144" y="153.442845652"/>
     <use style="fill:#ff0000;stroke:#ff0000;stroke-width:0.5;" x="241.37949622" xlink:href="#ma16806b144" y="142.254931337"/>
     <use style="fill:#ff0000;stroke:#ff0000;stroke-width:0.5;" x="190.973380347" xlink:href="#ma16806b144" y="171.80262489"/>
     <use style="fill:#ff0000;stroke:#ff0000;stroke-width:0.5;" x="239.259404887" xlink:href="#ma16806b144" y="191.95996343"/>
     <use style="fill:#ff0000;stroke:#ff0000;stroke-width:0.5;" x="285.135829352" xlink:href="#ma16806b144" y="168.821189189"/>
     <use style="fill:#ff0000;stroke:#ff0000;stroke-width:0.5;" x="217.184858833" xlink:href="#ma16806b144" y="264.783988484"/>
     <use style="fill:#ff0000;stroke:#ff0000;stroke-width:0.5;" x="240.802816726" xlink:href="#ma16806b144" y="182.562620377"/>
     <use style="fill:#ff0000;stroke:#ff0000;stroke-width:0.5;" x="270.031509147" xlink:href="#ma16806b144" y="238.209308295"/>
     <use style="fill:#ff0000;stroke:#ff0000;stroke-width:0.5;" x="185.412473851" xlink:href="#ma16806b144" y="188.223392471"/>
     <use style="fill:#ff0000;stroke:#ff0000;stroke-width:0.5;" x="208.365805069" xlink:href="#ma16806b144" y="174.196759878"/>
     <use style="fill:#ff0000;stroke:#ff0000;stroke-width:0.5;" x="127.49009149" xlink:href="#ma16806b144" y="161.934462901"/>
     <use style="fill:#ff0000;stroke:#ff0000;stroke-width:0.5;" x="161.917231545" xlink:href="#ma16806b144" y="211.561210936"/>
    </g>
   </g>
   <g id="patch_3">
    <path d="M 45 315 
L 324 315 
" style="fill:none;stroke:#000000;stroke-linecap:square;stroke-linejoin:miter;"/>
   </g>
   <g id="patch_4">
    <path d="M 45 36 
L 324 36 
" style="fill:none;stroke:#000000;stroke-linecap:square;stroke-linejoin:miter;"/>
   </g>
   <g id="patch_5">
    <path d="M 324 315 
L 324 36 
" style="fill:none;stroke:#000000;stroke-linecap:square;stroke-linejoin:miter;"/>
   </g>
   <g id="patch_6">
    <path d="M 45 315 
L 45 36 
" style="fill:none;stroke:#000000;stroke-linecap:square;stroke-linejoin:miter;"/>
   </g>
   <g id="matplotlib.axis_1">
    <g id="xtick_1">
     <g id="line2d_2">
      <defs>
       <path d="M 0 0 
L 0 -4 
" id="m10c3c966c1" style="stroke:#000000;stroke-width:0.5;"/>
      </defs>
      <g>
       <use style="stroke:#000000;stroke-width:0.5;" x="45.0" xlink:href="#m10c3c966c1" y="315.0"/>
      </g>
     </g>
     <g id="line2d_3">
      <defs>
       <path d="M 0 0 
L 0 4 
" id="ma6c1b8fb35" style="stroke:#000000;stroke-width:0.5;"/>
      </defs>
      <g>
       <use style="stroke:#000000;stroke-width:0.5;" x="45.0" xlink:href="#ma6c1b8fb35" y="36.0"/>
      </g>
     </g>
     <g id="text_1">
      <!-- −2.5 -->
      <defs>
       <path d="M 10.796875 72.90625 
L 49.515625 72.90625 
L 49.515625 64.59375 
L 19.828125 64.59375 
L 19.828125 46.734375 
Q 21.96875 47.46875 24.109375 47.828125 
Q 26.265625 48.1875 28.421875 48.1875 
Q 40.625 48.1875 47.75 41.5 
Q 54.890625 34.8125 54.890625 23.390625 
Q 54.890625 11.625 47.5625 5.09375 
Q 40.234375 -1.421875 26.90625 -1.421875 
Q 22.3125 -1.421875 17.546875 -0.640625 
Q 12.796875 0.140625 7.71875 1.703125 
L 7.71875 11.625 
Q 12.109375 9.234375 16.796875 8.0625 
Q 21.484375 6.890625 26.703125 6.890625 
Q 35.15625 6.890625 40.078125 11.328125 
Q 45.015625 15.765625 45.015625 23.390625 
Q 45.015625 31 40.078125 35.4375 
Q 35.15625 39.890625 26.703125 39.890625 
Q 22.75 39.890625 18.8125 39.015625 
Q 14.890625 38.140625 10.796875 36.28125 
z
" id="BitstreamVeraSans-Roman-35"/>
       <path d="M 10.59375 35.5 
L 73.1875 35.5 
L 73.1875 27.203125 
L 10.59375 27.203125 
z
" id="BitstreamVeraSans-Roman-2212"/>
       <path d="M 19.1875 8.296875 
L 53.609375 8.296875 
L 53.609375 0 
L 7.328125 0 
L 7.328125 8.296875 
Q 12.9375 14.109375 22.625 23.890625 
Q 32.328125 33.6875 34.8125 36.53125 
Q 39.546875 41.84375 41.421875 45.53125 
Q 43.3125 49.21875 43.3125 52.78125 
Q 43.3125 58.59375 39.234375 62.25 
Q 35.15625 65.921875 28.609375 65.921875 
Q 23.96875 65.921875 18.8125 64.3125 
Q 13.671875 62.703125 7.8125 59.421875 
L 7.8125 69.390625 
Q 13.765625 71.78125 18.9375 73 
Q 24.125 74.21875 28.421875 74.21875 
Q 39.75 74.21875 46.484375 68.546875 
Q 53.21875 62.890625 53.21875 53.421875 
Q 53.21875 48.921875 51.53125 44.890625 
Q 49.859375 40.875 45.40625 35.40625 
Q 44.1875 33.984375 37.640625 27.21875 
Q 31.109375 20.453125 19.1875 8.296875 
" id="BitstreamVeraSans-Roman-32"/>
       <path d="M 10.6875 12.40625 
L 21 12.40625 
L 21 0 
L 10.6875 0 
z
" id="BitstreamVeraSans-Roman-2e"/>
      </defs>
      <g transform="translate(32.85859375 326.5984375)scale(0.1 -0.1)">
       <use xlink:href="#BitstreamVeraSans-Roman-2212"/>
       <use x="83.7890625" xlink:href="#BitstreamVeraSans-Roman-32"/>
       <use x="147.412109375" xlink:href="#BitstreamVeraSans-Roman-2e"/>
       <use x="179.19921875" xlink:href="#BitstreamVeraSans-Roman-35"/>
      </g>
     </g>
    </g>
    <g id="xtick_2">
     <g id="line2d_4">
      <g>
       <use style="stroke:#000000;stroke-width:0.5;" x="79.875" xlink:href="#m10c3c966c1" y="315.0"/>
      </g>
     </g>
     <g id="line2d_5">
      <g>
       <use style="stroke:#000000;stroke-width:0.5;" x="79.875" xlink:href="#ma6c1b8fb35" y="36.0"/>
      </g>
     </g>
     <g id="text_2">
      <!-- −2.0 -->
      <defs>
       <path d="M 31.78125 66.40625 
Q 24.171875 66.40625 20.328125 58.90625 
Q 16.5 51.421875 16.5 36.375 
Q 16.5 21.390625 20.328125 13.890625 
Q 24.171875 6.390625 31.78125 6.390625 
Q 39.453125 6.390625 43.28125 13.890625 
Q 47.125 21.390625 47.125 36.375 
Q 47.125 51.421875 43.28125 58.90625 
Q 39.453125 66.40625 31.78125 66.40625 
M 31.78125 74.21875 
Q 44.046875 74.21875 50.515625 64.515625 
Q 56.984375 54.828125 56.984375 36.375 
Q 56.984375 17.96875 50.515625 8.265625 
Q 44.046875 -1.421875 31.78125 -1.421875 
Q 19.53125 -1.421875 13.0625 8.265625 
Q 6.59375 17.96875 6.59375 36.375 
Q 6.59375 54.828125 13.0625 64.515625 
Q 19.53125 74.21875 31.78125 74.21875 
" id="BitstreamVeraSans-Roman-30"/>
      </defs>
      <g transform="translate(67.73359375 326.5984375)scale(0.1 -0.1)">
       <use xlink:href="#BitstreamVeraSans-Roman-2212"/>
       <use x="83.7890625" xlink:href="#BitstreamVeraSans-Roman-32"/>
       <use x="147.412109375" xlink:href="#BitstreamVeraSans-Roman-2e"/>
       <use x="179.19921875" xlink:href="#BitstreamVeraSans-Roman-30"/>
      </g>
     </g>
    </g>
    <g id="xtick_3">
     <g id="line2d_6">
      <g>
       <use style="stroke:#000000;stroke-width:0.5;" x="114.75" xlink:href="#m10c3c966c1" y="315.0"/>
      </g>
     </g>
     <g id="line2d_7">
      <g>
       <use style="stroke:#000000;stroke-width:0.5;" x="114.75" xlink:href="#ma6c1b8fb35" y="36.0"/>
      </g>
     </g>
     <g id="text_3">
      <!-- −1.5 -->
      <defs>
       <path d="M 12.40625 8.296875 
L 28.515625 8.296875 
L 28.515625 63.921875 
L 10.984375 60.40625 
L 10.984375 69.390625 
L 28.421875 72.90625 
L 38.28125 72.90625 
L 38.28125 8.296875 
L 54.390625 8.296875 
L 54.390625 0 
L 12.40625 0 
z
" id="BitstreamVeraSans-Roman-31"/>
      </defs>
      <g transform="translate(102.60859375 326.5984375)scale(0.1 -0.1)">
       <use xlink:href="#BitstreamVeraSans-Roman-2212"/>
       <use x="83.7890625" xlink:href="#BitstreamVeraSans-Roman-31"/>
       <use x="147.412109375" xlink:href="#BitstreamVeraSans-Roman-2e"/>
       <use x="179.19921875" xlink:href="#BitstreamVeraSans-Roman-35"/>
      </g>
     </g>
    </g>
    <g id="xtick_4">
     <g id="line2d_8">
      <g>
       <use style="stroke:#000000;stroke-width:0.5;" x="149.625" xlink:href="#m10c3c966c1" y="315.0"/>
      </g>
     </g>
     <g id="line2d_9">
      <g>
       <use style="stroke:#000000;stroke-width:0.5;" x="149.625" xlink:href="#ma6c1b8fb35" y="36.0"/>
      </g>
     </g>
     <g id="text_4">
      <!-- −1.0 -->
      <g transform="translate(137.48359375 326.5984375)scale(0.1 -0.1)">
       <use xlink:href="#BitstreamVeraSans-Roman-2212"/>
       <use x="83.7890625" xlink:href="#BitstreamVeraSans-Roman-31"/>
       <use x="147.412109375" xlink:href="#BitstreamVeraSans-Roman-2e"/>
       <use x="179.19921875" xlink:href="#BitstreamVeraSans-Roman-30"/>
      </g>
     </g>
    </g>
    <g id="xtick_5">
     <g id="line2d_10">
      <g>
       <use style="stroke:#000000;stroke-width:0.5;" x="184.5" xlink:href="#m10c3c966c1" y="315.0"/>
      </g>
     </g>
     <g id="line2d_11">
      <g>
       <use style="stroke:#000000;stroke-width:0.5;" x="184.5" xlink:href="#ma6c1b8fb35" y="36.0"/>
      </g>
     </g>
     <g id="text_5">
      <!-- −0.5 -->
      <g transform="translate(172.35859375 326.5984375)scale(0.1 -0.1)">
       <use xlink:href="#BitstreamVeraSans-Roman-2212"/>
       <use x="83.7890625" xlink:href="#BitstreamVeraSans-Roman-30"/>
       <use x="147.412109375" xlink:href="#BitstreamVeraSans-Roman-2e"/>
       <use x="179.19921875" xlink:href="#BitstreamVeraSans-Roman-35"/>
      </g>
     </g>
    </g>
    <g id="xtick_6">
     <g id="line2d_12">
      <g>
       <use style="stroke:#000000;stroke-width:0.5;" x="219.375" xlink:href="#m10c3c966c1" y="315.0"/>
      </g>
     </g>
     <g id="line2d_13">
      <g>
       <use style="stroke:#000000;stroke-width:0.5;" x="219.375" xlink:href="#ma6c1b8fb35" y="36.0"/>
      </g>
     </g>
     <g id="text_6">
      <!-- 0.0 -->
      <g transform="translate(211.4234375 326.5984375)scale(0.1 -0.1)">
       <use xlink:href="#BitstreamVeraSans-Roman-30"/>
       <use x="63.623046875" xlink:href="#BitstreamVeraSans-Roman-2e"/>
       <use x="95.41015625" xlink:href="#BitstreamVeraSans-Roman-30"/>
      </g>
     </g>
    </g>
    <g id="xtick_7">
     <g id="line2d_14">
      <g>
       <use style="stroke:#000000;stroke-width:0.5;" x="254.25" xlink:href="#m10c3c966c1" y="315.0"/>
      </g>
     </g>
     <g id="line2d_15">
      <g>
       <use style="stroke:#000000;stroke-width:0.5;" x="254.25" xlink:href="#ma6c1b8fb35" y="36.0"/>
      </g>
     </g>
     <g id="text_7">
      <!-- 0.5 -->
      <g transform="translate(246.2984375 326.5984375)scale(0.1 -0.1)">
       <use xlink:href="#BitstreamVeraSans-Roman-30"/>
       <use x="63.623046875" xlink:href="#BitstreamVeraSans-Roman-2e"/>
       <use x="95.41015625" xlink:href="#BitstreamVeraSans-Roman-35"/>
      </g>
     </g>
    </g>
    <g id="xtick_8">
     <g id="line2d_16">
      <g>
       <use style="stroke:#000000;stroke-width:0.5;" x="289.125" xlink:href="#m10c3c966c1" y="315.0"/>
      </g>
     </g>
     <g id="line2d_17">
      <g>
       <use style="stroke:#000000;stroke-width:0.5;" x="289.125" xlink:href="#ma6c1b8fb35" y="36.0"/>
      </g>
     </g>
     <g id="text_8">
      <!-- 1.0 -->
      <g transform="translate(281.1734375 326.5984375)scale(0.1 -0.1)">
       <use xlink:href="#BitstreamVeraSans-Roman-31"/>
       <use x="63.623046875" xlink:href="#BitstreamVeraSans-Roman-2e"/>
       <use x="95.41015625" xlink:href="#BitstreamVeraSans-Roman-30"/>
      </g>
     </g>
    </g>
    <g id="xtick_9">
     <g id="line2d_18">
      <g>
       <use style="stroke:#000000;stroke-width:0.5;" x="324.0" xlink:href="#m10c3c966c1" y="315.0"/>
      </g>
     </g>
     <g id="line2d_19">
      <g>
       <use style="stroke:#000000;stroke-width:0.5;" x="324.0" xlink:href="#ma6c1b8fb35" y="36.0"/>
      </g>
     </g>
     <g id="text_9">
      <!-- 1.5 -->
      <g transform="translate(316.0484375 326.5984375)scale(0.1 -0.1)">
       <use xlink:href="#BitstreamVeraSans-Roman-31"/>
       <use x="63.623046875" xlink:href="#BitstreamVeraSans-Roman-2e"/>
       <use x="95.41015625" xlink:href="#BitstreamVeraSans-Roman-35"/>
      </g>
     </g>
    </g>
    <g id="text_10">
     <!-- $y_1$ -->
     <defs>
      <path d="M 8.40625 -14.3125 
Q 10.5 -17.921875 15.71875 -17.921875 
Q 20.453125 -17.921875 23.921875 -14.59375 
Q 27.390625 -11.28125 29.515625 -6.5625 
Q 31.640625 -1.859375 32.8125 3.078125 
Q 28.375 -1.125 23.1875 -1.125 
Q 19.234375 -1.125 16.453125 0.234375 
Q 13.671875 1.609375 12.125 4.3125 
Q 10.59375 7.03125 10.59375 10.890625 
Q 10.59375 14.15625 11.46875 17.59375 
Q 12.359375 21.046875 13.9375 25.265625 
Q 15.53125 29.5 16.703125 32.625 
Q 18.015625 36.28125 18.015625 38.625 
Q 18.015625 41.609375 15.828125 41.609375 
Q 11.859375 41.609375 9.296875 37.53125 
Q 6.734375 33.453125 5.515625 28.421875 
Q 5.328125 27.78125 4.6875 27.78125 
L 3.515625 27.78125 
Q 2.6875 27.78125 2.6875 28.71875 
L 2.6875 29 
Q 4.296875 34.96875 7.609375 39.578125 
Q 10.9375 44.1875 16.015625 44.1875 
Q 19.578125 44.1875 22.046875 41.84375 
Q 24.515625 39.5 24.515625 35.890625 
Q 24.515625 34.03125 23.6875 31.984375 
Q 23.25 30.765625 21.6875 26.65625 
Q 20.125 22.5625 19.28125 19.875 
Q 18.453125 17.1875 17.921875 14.59375 
Q 17.390625 12.015625 17.390625 9.421875 
Q 17.390625 6.109375 18.796875 3.8125 
Q 20.21875 1.515625 23.296875 1.515625 
Q 29.5 1.515625 34.421875 9.078125 
L 42 39.890625 
Q 42.328125 41.21875 43.546875 42.15625 
Q 44.78125 43.109375 46.1875 43.109375 
Q 47.40625 43.109375 48.3125 42.328125 
Q 49.21875 41.546875 49.21875 40.28125 
Q 49.21875 39.703125 49.125 39.5 
L 39.203125 -0.296875 
Q 37.890625 -5.421875 34.375 -10.109375 
Q 30.859375 -14.796875 25.90625 -17.65625 
Q 20.953125 -20.515625 15.578125 -20.515625 
Q 12.984375 -20.515625 10.4375 -19.5 
Q 7.90625 -18.5 6.34375 -16.5 
Q 4.78125 -14.5 4.78125 -11.8125 
Q 4.78125 -9.078125 6.390625 -7.078125 
Q 8.015625 -5.078125 10.6875 -5.078125 
Q 12.3125 -5.078125 13.40625 -6.078125 
Q 14.5 -7.078125 14.5 -8.6875 
Q 14.5 -10.984375 12.78125 -12.6875 
Q 11.078125 -14.40625 8.796875 -14.40625 
Q 8.6875 -14.359375 8.59375 -14.328125 
Q 8.5 -14.3125 8.40625 -14.3125 
" id="Cmmi10-79"/>
      <path d="M 9.28125 0 
L 9.28125 3.515625 
Q 21.78125 3.515625 21.78125 6.6875 
L 21.78125 59.1875 
Q 16.609375 56.6875 8.6875 56.6875 
L 8.6875 60.203125 
Q 20.953125 60.203125 27.203125 66.609375 
L 28.609375 66.609375 
Q 28.953125 66.609375 29.265625 66.328125 
Q 29.59375 66.0625 29.59375 65.71875 
L 29.59375 6.6875 
Q 29.59375 3.515625 42.09375 3.515625 
L 42.09375 0 
z
" id="Cmr10-31"/>
     </defs>
     <g transform="translate(175.4 348.834375)scale(0.2 -0.2)">
      <use transform="translate(0.0 0.8125)" xlink:href="#Cmmi10-79"/>
      <use transform="translate(49.0234375 -16.19375)scale(0.7)" xlink:href="#Cmr10-31"/>
     </g>
    </g>
   </g>
   <g id="matplotlib.axis_2">
    <g id="ytick_1">
     <g id="line2d_20">
      <defs>
       <path d="M 0 0 
L 4 0 
" id="ma2c69370cf" style="stroke:#000000;stroke-width:0.5;"/>
      </defs>
      <g>
       <use style="stroke:#000000;stroke-width:0.5;" x="45.0" xlink:href="#ma2c69370cf" y="315.0"/>
      </g>
     </g>
     <g id="line2d_21">
      <defs>
       <path d="M 0 0 
L -4 0 
" id="m160061c227" style="stroke:#000000;stroke-width:0.5;"/>
      </defs>
      <g>
       <use style="stroke:#000000;stroke-width:0.5;" x="324.0" xlink:href="#m160061c227" y="315.0"/>
      </g>
     </g>
     <g id="text_11">
      <!-- −2.5 -->
      <g transform="translate(16.7171875 317.759375)scale(0.1 -0.1)">
       <use xlink:href="#BitstreamVeraSans-Roman-2212"/>
       <use x="83.7890625" xlink:href="#BitstreamVeraSans-Roman-32"/>
       <use x="147.412109375" xlink:href="#BitstreamVeraSans-Roman-2e"/>
       <use x="179.19921875" xlink:href="#BitstreamVeraSans-Roman-35"/>
      </g>
     </g>
    </g>
    <g id="ytick_2">
     <g id="line2d_22">
      <g>
       <use style="stroke:#000000;stroke-width:0.5;" x="45.0" xlink:href="#ma2c69370cf" y="284.0"/>
      </g>
     </g>
     <g id="line2d_23">
      <g>
       <use style="stroke:#000000;stroke-width:0.5;" x="324.0" xlink:href="#m160061c227" y="284.0"/>
      </g>
     </g>
     <g id="text_12">
      <!-- −2.0 -->
      <g transform="translate(16.7171875 286.759375)scale(0.1 -0.1)">
       <use xlink:href="#BitstreamVeraSans-Roman-2212"/>
       <use x="83.7890625" xlink:href="#BitstreamVeraSans-Roman-32"/>
       <use x="147.412109375" xlink:href="#BitstreamVeraSans-Roman-2e"/>
       <use x="179.19921875" xlink:href="#BitstreamVeraSans-Roman-30"/>
      </g>
     </g>
    </g>
    <g id="ytick_3">
     <g id="line2d_24">
      <g>
       <use style="stroke:#000000;stroke-width:0.5;" x="45.0" xlink:href="#ma2c69370cf" y="253.0"/>
      </g>
     </g>
     <g id="line2d_25">
      <g>
       <use style="stroke:#000000;stroke-width:0.5;" x="324.0" xlink:href="#m160061c227" y="253.0"/>
      </g>
     </g>
     <g id="text_13">
      <!-- −1.5 -->
      <g transform="translate(16.7171875 255.759375)scale(0.1 -0.1)">
       <use xlink:href="#BitstreamVeraSans-Roman-2212"/>
       <use x="83.7890625" xlink:href="#BitstreamVeraSans-Roman-31"/>
       <use x="147.412109375" xlink:href="#BitstreamVeraSans-Roman-2e"/>
       <use x="179.19921875" xlink:href="#BitstreamVeraSans-Roman-35"/>
      </g>
     </g>
    </g>
    <g id="ytick_4">
     <g id="line2d_26">
      <g>
       <use style="stroke:#000000;stroke-width:0.5;" x="45.0" xlink:href="#ma2c69370cf" y="222.0"/>
      </g>
     </g>
     <g id="line2d_27">
      <g>
       <use style="stroke:#000000;stroke-width:0.5;" x="324.0" xlink:href="#m160061c227" y="222.0"/>
      </g>
     </g>
     <g id="text_14">
      <!-- −1.0 -->
      <g transform="translate(16.7171875 224.759375)scale(0.1 -0.1)">
       <use xlink:href="#BitstreamVeraSans-Roman-2212"/>
       <use x="83.7890625" xlink:href="#BitstreamVeraSans-Roman-31"/>
       <use x="147.412109375" xlink:href="#BitstreamVeraSans-Roman-2e"/>
       <use x="179.19921875" xlink:href="#BitstreamVeraSans-Roman-30"/>
      </g>
     </g>
    </g>
    <g id="ytick_5">
     <g id="line2d_28">
      <g>
       <use style="stroke:#000000;stroke-width:0.5;" x="45.0" xlink:href="#ma2c69370cf" y="191.0"/>
      </g>
     </g>
     <g id="line2d_29">
      <g>
       <use style="stroke:#000000;stroke-width:0.5;" x="324.0" xlink:href="#m160061c227" y="191.0"/>
      </g>
     </g>
     <g id="text_15">
      <!-- −0.5 -->
      <g transform="translate(16.7171875 193.759375)scale(0.1 -0.1)">
       <use xlink:href="#BitstreamVeraSans-Roman-2212"/>
       <use x="83.7890625" xlink:href="#BitstreamVeraSans-Roman-30"/>
       <use x="147.412109375" xlink:href="#BitstreamVeraSans-Roman-2e"/>
       <use x="179.19921875" xlink:href="#BitstreamVeraSans-Roman-35"/>
      </g>
     </g>
    </g>
    <g id="ytick_6">
     <g id="line2d_30">
      <g>
       <use style="stroke:#000000;stroke-width:0.5;" x="45.0" xlink:href="#ma2c69370cf" y="160.0"/>
      </g>
     </g>
     <g id="line2d_31">
      <g>
       <use style="stroke:#000000;stroke-width:0.5;" x="324.0" xlink:href="#m160061c227" y="160.0"/>
      </g>
     </g>
     <g id="text_16">
      <!-- 0.0 -->
      <g transform="translate(25.096875 162.759375)scale(0.1 -0.1)">
       <use xlink:href="#BitstreamVeraSans-Roman-30"/>
       <use x="63.623046875" xlink:href="#BitstreamVeraSans-Roman-2e"/>
       <use x="95.41015625" xlink:href="#BitstreamVeraSans-Roman-30"/>
      </g>
     </g>
    </g>
    <g id="ytick_7">
     <g id="line2d_32">
      <g>
       <use style="stroke:#000000;stroke-width:0.5;" x="45.0" xlink:href="#ma2c69370cf" y="129.0"/>
      </g>
     </g>
     <g id="line2d_33">
      <g>
       <use style="stroke:#000000;stroke-width:0.5;" x="324.0" xlink:href="#m160061c227" y="129.0"/>
      </g>
     </g>
     <g id="text_17">
      <!-- 0.5 -->
      <g transform="translate(25.096875 131.759375)scale(0.1 -0.1)">
       <use xlink:href="#BitstreamVeraSans-Roman-30"/>
       <use x="63.623046875" xlink:href="#BitstreamVeraSans-Roman-2e"/>
       <use x="95.41015625" xlink:href="#BitstreamVeraSans-Roman-35"/>
      </g>
     </g>
    </g>
    <g id="ytick_8">
     <g id="line2d_34">
      <g>
       <use style="stroke:#000000;stroke-width:0.5;" x="45.0" xlink:href="#ma2c69370cf" y="98.0"/>
      </g>
     </g>
     <g id="line2d_35">
      <g>
       <use style="stroke:#000000;stroke-width:0.5;" x="324.0" xlink:href="#m160061c227" y="98.0"/>
      </g>
     </g>
     <g id="text_18">
      <!-- 1.0 -->
      <g transform="translate(25.096875 100.759375)scale(0.1 -0.1)">
       <use xlink:href="#BitstreamVeraSans-Roman-31"/>
       <use x="63.623046875" xlink:href="#BitstreamVeraSans-Roman-2e"/>
       <use x="95.41015625" xlink:href="#BitstreamVeraSans-Roman-30"/>
      </g>
     </g>
    </g>
    <g id="ytick_9">
     <g id="line2d_36">
      <g>
       <use style="stroke:#000000;stroke-width:0.5;" x="45.0" xlink:href="#ma2c69370cf" y="67.0"/>
      </g>
     </g>
     <g id="line2d_37">
      <g>
       <use style="stroke:#000000;stroke-width:0.5;" x="324.0" xlink:href="#m160061c227" y="67.0"/>
      </g>
     </g>
     <g id="text_19">
      <!-- 1.5 -->
      <g transform="translate(25.096875 69.759375)scale(0.1 -0.1)">
       <use xlink:href="#BitstreamVeraSans-Roman-31"/>
       <use x="63.623046875" xlink:href="#BitstreamVeraSans-Roman-2e"/>
       <use x="95.41015625" xlink:href="#BitstreamVeraSans-Roman-35"/>
      </g>
     </g>
    </g>
    <g id="ytick_10">
     <g id="line2d_38">
      <g>
       <use style="stroke:#000000;stroke-width:0.5;" x="45.0" xlink:href="#ma2c69370cf" y="36.0"/>
      </g>
     </g>
     <g id="line2d_39">
      <g>
       <use style="stroke:#000000;stroke-width:0.5;" x="324.0" xlink:href="#m160061c227" y="36.0"/>
      </g>
     </g>
     <g id="text_20">
      <!-- 2.0 -->
      <g transform="translate(25.096875 38.759375)scale(0.1 -0.1)">
       <use xlink:href="#BitstreamVeraSans-Roman-32"/>
       <use x="63.623046875" xlink:href="#BitstreamVeraSans-Roman-2e"/>
       <use x="95.41015625" xlink:href="#BitstreamVeraSans-Roman-30"/>
      </g>
     </g>
    </g>
    <g id="text_21">
     <!-- $y_2$ -->
     <defs>
      <path d="M 4.984375 0 
L 4.984375 2.6875 
Q 4.984375 2.9375 5.171875 3.21875 
L 20.703125 20.40625 
Q 24.21875 24.21875 26.40625 26.796875 
Q 28.609375 29.390625 30.75 32.765625 
Q 32.90625 36.140625 34.15625 39.625 
Q 35.40625 43.109375 35.40625 47.015625 
Q 35.40625 51.125 33.890625 54.859375 
Q 32.375 58.59375 29.375 60.84375 
Q 26.375 63.09375 22.125 63.09375 
Q 17.78125 63.09375 14.3125 60.46875 
Q 10.84375 57.859375 9.421875 53.71875 
Q 9.8125 53.8125 10.5 53.8125 
Q 12.75 53.8125 14.328125 52.296875 
Q 15.921875 50.78125 15.921875 48.390625 
Q 15.921875 46.09375 14.328125 44.5 
Q 12.75 42.921875 10.5 42.921875 
Q 8.15625 42.921875 6.5625 44.546875 
Q 4.984375 46.1875 4.984375 48.390625 
Q 4.984375 52.15625 6.390625 55.4375 
Q 7.8125 58.734375 10.46875 61.296875 
Q 13.140625 63.875 16.484375 65.234375 
Q 19.828125 66.609375 23.578125 66.609375 
Q 29.296875 66.609375 34.21875 64.1875 
Q 39.15625 61.765625 42.03125 57.34375 
Q 44.921875 52.9375 44.921875 47.015625 
Q 44.921875 42.671875 43.015625 38.765625 
Q 41.109375 34.859375 38.125 31.65625 
Q 35.15625 28.46875 30.515625 24.40625 
Q 25.875 20.359375 24.421875 19 
L 13.09375 8.109375 
L 22.703125 8.109375 
Q 29.78125 8.109375 34.546875 8.21875 
Q 39.3125 8.34375 39.59375 8.59375 
Q 40.765625 9.859375 42 17.828125 
L 44.921875 17.828125 
L 42.09375 0 
z
" id="Cmr10-32"/>
     </defs>
     <g transform="translate(7.5171875 184.6)rotate(-90.0)scale(0.2 -0.2)">
      <use transform="translate(0.0 0.8125)" xlink:href="#Cmmi10-79"/>
      <use transform="translate(49.0234375 -16.19375)scale(0.7)" xlink:href="#Cmr10-32"/>
     </g>
    </g>
   </g>
  </g>
 </g>
 <defs>
  <clipPath id="p6b93861c4f">
   <rect height="279.0" width="279.0" x="45.0" y="36.0"/>
  </clipPath>
 </defs>
</svg>
