<?xml version="1.0" encoding="utf-8" standalone="no"?>
<!DOCTYPE svg PUBLIC "-//W3C//DTD SVG 1.1//EN"
  "http://www.w3.org/Graphics/SVG/1.1/DTD/svg11.dtd">
<!-- Created with matplotlib (http://matplotlib.org/) -->
<svg height="504pt" version="1.1" viewBox="0 0 504 504" width="504pt" xmlns="http://www.w3.org/2000/svg" xmlns:xlink="http://www.w3.org/1999/xlink">
 <defs>
  <style type="text/css">
*{stroke-linecap:butt;stroke-linejoin:round;stroke-miterlimit:100000;}
  </style>
 </defs>
 <g id="figure_1">
  <g id="patch_1">
   <path d="M 0 504 
L 504 504 
L 504 0 
L 0 0 
z
" style="fill:#ffffff;"/>
  </g>
  <g id="axes_1">
   <g id="patch_2">
    <path d="M 63 441 
L 453.6 441 
L 453.6 50.4 
L 63 50.4 
z
" style="fill:#ffffff;"/>
   </g>
   <g id="LineCollection_1">
    <path clip-path="url(#p926541c1a9)" d="M 63 441 
L 63 253.232063 
" style="fill:none;stroke:#000000;"/>
   </g>
   <g id="LineCollection_2">
    <path clip-path="url(#p926541c1a9)" d="M 63 441 
L 453.6 441 
" style="fill:none;stroke:#000000;"/>
   </g>
   <g id="line2d_1">
    <path clip-path="url(#p926541c1a9)" d="M 96.48 441 
L 198.528649 440.896441 
L 204.393514 440.664416 
L 208.303423 440.308879 
L 211.431351 439.810938 
L 214.168288 439.137039 
L 216.514234 438.31447 
L 218.469189 437.406468 
L 220.424144 436.250126 
L 222.379099 434.798282 
L 223.943063 433.390822 
L 225.507027 431.736997 
L 227.070991 429.811955 
L 228.634955 427.59259 
L 230.58991 424.374085 
L 232.544865 420.634482 
L 234.49982 416.358076 
L 236.454775 411.547444 
L 238.800721 405.105787 
L 241.146667 398.021665 
L 244.274595 387.837075 
L 251.312432 364.524677 
L 253.658378 357.669075 
L 255.613333 352.689347 
L 257.177297 349.306096 
L 258.35027 347.168843 
L 259.523243 345.405127 
L 260.696216 344.037667 
L 261.869189 343.084277 
L 262.651171 342.685132 
L 263.433153 342.478039 
L 264.215135 342.464217 
L 264.997117 342.643748 
L 265.779099 343.015575 
L 266.561081 343.577514 
L 267.734054 344.769396 
L 268.907027 346.365794 
L 270.08 348.346037 
L 271.643964 351.539104 
L 273.207928 355.29803 
L 275.162883 360.667725 
L 277.508829 367.86377 
L 281.027748 379.538485 
L 286.110631 396.432999 
L 288.847568 404.78208 
L 291.193514 411.256806 
L 293.148468 416.097449 
L 295.103423 420.404644 
L 297.058378 424.174654 
L 299.013333 427.422245 
L 300.968288 430.176664 
L 302.923243 432.477568 
L 304.878198 434.371196 
L 306.833153 435.906972 
L 308.788108 437.134673 
L 310.743063 438.102219 
L 313.089009 438.982172 
L 315.434955 439.619531 
L 318.171892 440.133057 
L 321.690811 440.539873 
L 325.991712 440.799011 
L 332.638559 440.950282 
L 347.496216 440.998689 
L 487.08 441 
L 487.08 441 
" style="fill:none;stroke:#ff0000;stroke-linecap:square;stroke-width:3.0;"/>
   </g>
   <g id="line2d_2">
    <path clip-path="url(#p926541c1a9)" d="M 96.48 441 
L 238.800721 440.897559 
L 242.710631 440.679268 
L 245.447568 440.327431 
L 247.402523 439.89171 
L 249.357477 439.217998 
L 250.921441 438.440024 
L 252.485405 437.379738 
L 253.658378 436.353346 
L 254.831351 435.088434 
L 256.004324 433.545362 
L 257.177297 431.682221 
L 258.35027 429.455899 
L 259.523243 426.823478 
L 260.696216 423.743961 
L 262.26018 418.879282 
L 263.824144 413.085237 
L 265.388108 406.322699 
L 266.952072 398.593419 
L 268.907027 387.657564 
L 271.252973 372.990883 
L 278.681802 324.762069 
L 280.245766 316.623843 
L 281.418739 311.490616 
L 282.591712 307.332079 
L 283.373694 305.154416 
L 284.155676 303.482487 
L 284.937658 302.335703 
L 285.71964 301.727475 
L 286.110631 301.627799 
L 286.501622 301.664941 
L 286.892613 301.838792 
L 287.674595 302.594172 
L 288.456577 303.885078 
L 289.238559 305.696442 
L 290.020541 308.007279 
L 291.193514 312.35071 
L 292.366486 317.647269 
L 293.93045 325.964078 
L 295.885405 337.879743 
L 299.013333 358.740734 
L 302.532252 381.825921 
L 304.487207 393.38637 
L 306.442162 403.617395 
L 308.006126 410.734777 
L 309.57009 416.879028 
L 311.134054 422.075589 
L 312.698018 426.384067 
L 314.261982 429.887613 
L 315.434955 432.04501 
L 316.607928 433.847058 
L 317.780901 435.336744 
L 319.344865 436.908609 
L 320.908829 438.090272 
L 322.472793 438.962909 
L 324.036757 439.596071 
L 325.991712 440.13768 
L 328.337658 440.534861 
L 331.465586 440.80669 
L 336.157477 440.953965 
L 347.105225 440.999066 
L 487.08 441 
L 487.08 441 
" style="fill:none;stroke:#0000ff;stroke-linecap:square;stroke-width:3.0;"/>
   </g>
   <g id="line2d_3">
    <path clip-path="url(#p926541c1a9)" d="M 96.48 441 
L 239.582703 440.895053 
L 242.710631 440.673957 
L 245.056577 440.282804 
L 246.620541 439.822161 
L 248.184505 439.110708 
L 249.357477 438.348497 
L 250.53045 437.327787 
L 251.703423 435.981124 
L 252.876396 434.230948 
L 254.049369 431.990681 
L 255.222342 429.16689 
L 256.395315 425.662711 
L 257.568288 421.382617 
L 258.741261 416.238536 
L 259.914234 410.157162 
L 261.087207 403.088137 
L 262.651171 392.099439 
L 264.215135 379.394783 
L 266.17009 361.456629 
L 269.689009 326.16372 
L 272.034955 303.719219 
L 273.598919 290.857725 
L 274.771892 282.891154 
L 275.944865 276.694493 
L 276.726847 273.66596 
L 277.508829 271.582719 
L 277.89982 270.907614 
L 278.290811 270.481168 
L 278.681802 270.305262 
L 279.072793 270.380672 
L 279.463784 270.707066 
L 279.854775 271.283004 
L 280.636757 273.172286 
L 281.418739 276.015457 
L 282.200721 279.763238 
L 283.373694 286.937267 
L 284.546667 295.730681 
L 286.110631 309.420988 
L 288.456577 332.478708 
L 291.975495 367.408395 
L 293.93045 384.672012 
L 295.494414 396.70787 
L 297.058378 406.983171 
L 298.622342 415.483211 
L 299.795315 420.748444 
L 300.968288 425.138891 
L 302.141261 428.7411 
L 303.314234 431.649987 
L 304.487207 433.962544 
L 305.66018 435.772886 
L 306.833153 437.168657 
L 308.006126 438.228705 
L 309.179099 439.021858 
L 310.743063 439.76386 
L 312.307027 440.245528 
L 314.261982 440.606251 
L 316.998919 440.851078 
L 321.29982 440.97207 
L 334.202523 440.999937 
L 487.08 441 
L 487.08 441 
" style="fill:none;stroke:#ff00ff;stroke-linecap:square;stroke-width:3.0;"/>
   </g>
   <g id="patch_3">
    <path d="M 63 441 
L 453.6 441 
" style="fill:none;stroke:#000000;stroke-linecap:square;stroke-linejoin:miter;"/>
   </g>
   <g id="patch_4">
    <path d="M 63 50.4 
L 453.6 50.4 
" style="fill:none;stroke:#000000;stroke-linecap:square;stroke-linejoin:miter;"/>
   </g>
   <g id="patch_5">
    <path d="M 63 441 
L 63 50.4 
" style="fill:none;stroke:#000000;stroke-linecap:square;stroke-linejoin:miter;"/>
   </g>
   <g id="patch_6">
    <path d="M 453.6 441 
L 453.6 50.4 
" style="fill:none;stroke:#000000;stroke-linecap:square;stroke-linejoin:miter;"/>
   </g>
   <g id="matplotlib.axis_1">
    <g id="xtick_1">
     <g id="line2d_4">
      <defs>
       <path d="M 0 0 
L 0 -4 
" id="me46213cf10" style="stroke:#000000;stroke-width:0.5;"/>
      </defs>
      <g>
       <use style="stroke:#000000;stroke-width:0.5;" x="63.0" xlink:href="#me46213cf10" y="441.0"/>
      </g>
     </g>
     <g id="line2d_5">
      <defs>
       <path d="M 0 0 
L 0 4 
" id="mb87b077859" style="stroke:#000000;stroke-width:0.5;"/>
      </defs>
      <g>
       <use style="stroke:#000000;stroke-width:0.5;" x="63.0" xlink:href="#mb87b077859" y="50.4"/>
      </g>
     </g>
     <g id="text_1">
      <!-- −3 -->
      <defs>
       <path d="M 10.59375 35.5 
L 73.1875 35.5 
L 73.1875 27.203125 
L 10.59375 27.203125 
z
" id="BitstreamVeraSans-Roman-2212"/>
       <path d="M 40.578125 39.3125 
Q 47.65625 37.796875 51.625 33 
Q 55.609375 28.21875 55.609375 21.1875 
Q 55.609375 10.40625 48.1875 4.484375 
Q 40.765625 -1.421875 27.09375 -1.421875 
Q 22.515625 -1.421875 17.65625 -0.515625 
Q 12.796875 0.390625 7.625 2.203125 
L 7.625 11.71875 
Q 11.71875 9.328125 16.59375 8.109375 
Q 21.484375 6.890625 26.8125 6.890625 
Q 36.078125 6.890625 40.9375 10.546875 
Q 45.796875 14.203125 45.796875 21.1875 
Q 45.796875 27.640625 41.28125 31.265625 
Q 36.765625 34.90625 28.71875 34.90625 
L 20.21875 34.90625 
L 20.21875 43.015625 
L 29.109375 43.015625 
Q 36.375 43.015625 40.234375 45.921875 
Q 44.09375 48.828125 44.09375 54.296875 
Q 44.09375 59.90625 40.109375 62.90625 
Q 36.140625 65.921875 28.71875 65.921875 
Q 24.65625 65.921875 20.015625 65.03125 
Q 15.375 64.15625 9.8125 62.3125 
L 9.8125 71.09375 
Q 15.4375 72.65625 20.34375 73.4375 
Q 25.25 74.21875 29.59375 74.21875 
Q 40.828125 74.21875 47.359375 69.109375 
Q 53.90625 64.015625 53.90625 55.328125 
Q 53.90625 49.265625 50.4375 45.09375 
Q 46.96875 40.921875 40.578125 39.3125 
" id="BitstreamVeraSans-Roman-33"/>
      </defs>
      <g transform="translate(55.62890625 452.5984375)scale(0.1 -0.1)">
       <use xlink:href="#BitstreamVeraSans-Roman-2212"/>
       <use x="83.7890625" xlink:href="#BitstreamVeraSans-Roman-33"/>
      </g>
     </g>
    </g>
    <g id="xtick_2">
     <g id="line2d_6">
      <g>
       <use style="stroke:#000000;stroke-width:0.5;" x="118.8" xlink:href="#me46213cf10" y="441.0"/>
      </g>
     </g>
     <g id="line2d_7">
      <g>
       <use style="stroke:#000000;stroke-width:0.5;" x="118.8" xlink:href="#mb87b077859" y="50.4"/>
      </g>
     </g>
     <g id="text_2">
      <!-- −2 -->
      <defs>
       <path d="M 19.1875 8.296875 
L 53.609375 8.296875 
L 53.609375 0 
L 7.328125 0 
L 7.328125 8.296875 
Q 12.9375 14.109375 22.625 23.890625 
Q 32.328125 33.6875 34.8125 36.53125 
Q 39.546875 41.84375 41.421875 45.53125 
Q 43.3125 49.21875 43.3125 52.78125 
Q 43.3125 58.59375 39.234375 62.25 
Q 35.15625 65.921875 28.609375 65.921875 
Q 23.96875 65.921875 18.8125 64.3125 
Q 13.671875 62.703125 7.8125 59.421875 
L 7.8125 69.390625 
Q 13.765625 71.78125 18.9375 73 
Q 24.125 74.21875 28.421875 74.21875 
Q 39.75 74.21875 46.484375 68.546875 
Q 53.21875 62.890625 53.21875 53.421875 
Q 53.21875 48.921875 51.53125 44.890625 
Q 49.859375 40.875 45.40625 35.40625 
Q 44.1875 33.984375 37.640625 27.21875 
Q 31.109375 20.453125 19.1875 8.296875 
" id="BitstreamVeraSans-Roman-32"/>
      </defs>
      <g transform="translate(111.42890625 452.5984375)scale(0.1 -0.1)">
       <use xlink:href="#BitstreamVeraSans-Roman-2212"/>
       <use x="83.7890625" xlink:href="#BitstreamVeraSans-Roman-32"/>
      </g>
     </g>
    </g>
    <g id="xtick_3">
     <g id="line2d_8">
      <g>
       <use style="stroke:#000000;stroke-width:0.5;" x="174.6" xlink:href="#me46213cf10" y="441.0"/>
      </g>
     </g>
     <g id="line2d_9">
      <g>
       <use style="stroke:#000000;stroke-width:0.5;" x="174.6" xlink:href="#mb87b077859" y="50.4"/>
      </g>
     </g>
     <g id="text_3">
      <!-- −1 -->
      <defs>
       <path d="M 12.40625 8.296875 
L 28.515625 8.296875 
L 28.515625 63.921875 
L 10.984375 60.40625 
L 10.984375 69.390625 
L 28.421875 72.90625 
L 38.28125 72.90625 
L 38.28125 8.296875 
L 54.390625 8.296875 
L 54.390625 0 
L 12.40625 0 
z
" id="BitstreamVeraSans-Roman-31"/>
      </defs>
      <g transform="translate(167.22890625 452.5984375)scale(0.1 -0.1)">
       <use xlink:href="#BitstreamVeraSans-Roman-2212"/>
       <use x="83.7890625" xlink:href="#BitstreamVeraSans-Roman-31"/>
      </g>
     </g>
    </g>
    <g id="xtick_4">
     <g id="line2d_10">
      <g>
       <use style="stroke:#000000;stroke-width:0.5;" x="230.4" xlink:href="#me46213cf10" y="441.0"/>
      </g>
     </g>
     <g id="line2d_11">
      <g>
       <use style="stroke:#000000;stroke-width:0.5;" x="230.4" xlink:href="#mb87b077859" y="50.4"/>
      </g>
     </g>
     <g id="text_4">
      <!-- 0 -->
      <defs>
       <path d="M 31.78125 66.40625 
Q 24.171875 66.40625 20.328125 58.90625 
Q 16.5 51.421875 16.5 36.375 
Q 16.5 21.390625 20.328125 13.890625 
Q 24.171875 6.390625 31.78125 6.390625 
Q 39.453125 6.390625 43.28125 13.890625 
Q 47.125 21.390625 47.125 36.375 
Q 47.125 51.421875 43.28125 58.90625 
Q 39.453125 66.40625 31.78125 66.40625 
M 31.78125 74.21875 
Q 44.046875 74.21875 50.515625 64.515625 
Q 56.984375 54.828125 56.984375 36.375 
Q 56.984375 17.96875 50.515625 8.265625 
Q 44.046875 -1.421875 31.78125 -1.421875 
Q 19.53125 -1.421875 13.0625 8.265625 
Q 6.59375 17.96875 6.59375 36.375 
Q 6.59375 54.828125 13.0625 64.515625 
Q 19.53125 74.21875 31.78125 74.21875 
" id="BitstreamVeraSans-Roman-30"/>
      </defs>
      <g transform="translate(227.21875 452.5984375)scale(0.1 -0.1)">
       <use xlink:href="#BitstreamVeraSans-Roman-30"/>
      </g>
     </g>
    </g>
    <g id="xtick_5">
     <g id="line2d_12">
      <g>
       <use style="stroke:#000000;stroke-width:0.5;" x="286.2" xlink:href="#me46213cf10" y="441.0"/>
      </g>
     </g>
     <g id="line2d_13">
      <g>
       <use style="stroke:#000000;stroke-width:0.5;" x="286.2" xlink:href="#mb87b077859" y="50.4"/>
      </g>
     </g>
     <g id="text_5">
      <!-- 1 -->
      <g transform="translate(283.01875 452.5984375)scale(0.1 -0.1)">
       <use xlink:href="#BitstreamVeraSans-Roman-31"/>
      </g>
     </g>
    </g>
    <g id="xtick_6">
     <g id="line2d_14">
      <g>
       <use style="stroke:#000000;stroke-width:0.5;" x="342.0" xlink:href="#me46213cf10" y="441.0"/>
      </g>
     </g>
     <g id="line2d_15">
      <g>
       <use style="stroke:#000000;stroke-width:0.5;" x="342.0" xlink:href="#mb87b077859" y="50.4"/>
      </g>
     </g>
     <g id="text_6">
      <!-- 2 -->
      <g transform="translate(338.81875 452.5984375)scale(0.1 -0.1)">
       <use xlink:href="#BitstreamVeraSans-Roman-32"/>
      </g>
     </g>
    </g>
    <g id="xtick_7">
     <g id="line2d_16">
      <g>
       <use style="stroke:#000000;stroke-width:0.5;" x="397.8" xlink:href="#me46213cf10" y="441.0"/>
      </g>
     </g>
     <g id="line2d_17">
      <g>
       <use style="stroke:#000000;stroke-width:0.5;" x="397.8" xlink:href="#mb87b077859" y="50.4"/>
      </g>
     </g>
     <g id="text_7">
      <!-- 3 -->
      <g transform="translate(394.61875 452.5984375)scale(0.1 -0.1)">
       <use xlink:href="#BitstreamVeraSans-Roman-33"/>
      </g>
     </g>
    </g>
    <g id="xtick_8">
     <g id="line2d_18">
      <g>
       <use style="stroke:#000000;stroke-width:0.5;" x="453.6" xlink:href="#me46213cf10" y="441.0"/>
      </g>
     </g>
     <g id="line2d_19">
      <g>
       <use style="stroke:#000000;stroke-width:0.5;" x="453.6" xlink:href="#mb87b077859" y="50.4"/>
      </g>
     </g>
     <g id="text_8">
      <!-- 4 -->
      <defs>
       <path d="M 37.796875 64.3125 
L 12.890625 25.390625 
L 37.796875 25.390625 
z
M 35.203125 72.90625 
L 47.609375 72.90625 
L 47.609375 25.390625 
L 58.015625 25.390625 
L 58.015625 17.1875 
L 47.609375 17.1875 
L 47.609375 0 
L 37.796875 0 
L 37.796875 17.1875 
L 4.890625 17.1875 
L 4.890625 26.703125 
z
" id="BitstreamVeraSans-Roman-34"/>
      </defs>
      <g transform="translate(450.41875 452.5984375)scale(0.1 -0.1)">
       <use xlink:href="#BitstreamVeraSans-Roman-34"/>
      </g>
     </g>
    </g>
   </g>
   <g id="matplotlib.axis_2">
    <g id="ytick_1">
     <g id="line2d_20">
      <defs>
       <path d="M 0 0 
L 4 0 
" id="md632e8fabd" style="stroke:#000000;stroke-width:0.5;"/>
      </defs>
      <g>
       <use style="stroke:#000000;stroke-width:0.5;" x="63.0" xlink:href="#md632e8fabd" y="441.0"/>
      </g>
     </g>
     <g id="line2d_21">
      <defs>
       <path d="M 0 0 
L -4 0 
" id="ma0034c52da" style="stroke:#000000;stroke-width:0.5;"/>
      </defs>
      <g>
       <use style="stroke:#000000;stroke-width:0.5;" x="453.6" xlink:href="#ma0034c52da" y="441.0"/>
      </g>
     </g>
     <g id="text_9">
      <!-- 0 -->
      <g transform="translate(52.6375 443.759375)scale(0.1 -0.1)">
       <use xlink:href="#BitstreamVeraSans-Roman-30"/>
      </g>
     </g>
    </g>
    <g id="ytick_2">
     <g id="line2d_22">
      <g>
       <use style="stroke:#000000;stroke-width:0.5;" x="63.0" xlink:href="#md632e8fabd" y="362.88"/>
      </g>
     </g>
     <g id="line2d_23">
      <g>
       <use style="stroke:#000000;stroke-width:0.5;" x="453.6" xlink:href="#ma0034c52da" y="362.88"/>
      </g>
     </g>
     <g id="text_10">
      <!-- 1 -->
      <g transform="translate(52.6375 365.639375)scale(0.1 -0.1)">
       <use xlink:href="#BitstreamVeraSans-Roman-31"/>
      </g>
     </g>
    </g>
    <g id="ytick_3">
     <g id="line2d_24">
      <g>
       <use style="stroke:#000000;stroke-width:0.5;" x="63.0" xlink:href="#md632e8fabd" y="284.76"/>
      </g>
     </g>
     <g id="line2d_25">
      <g>
       <use style="stroke:#000000;stroke-width:0.5;" x="453.6" xlink:href="#ma0034c52da" y="284.76"/>
      </g>
     </g>
     <g id="text_11">
      <!-- 2 -->
      <g transform="translate(52.6375 287.519375)scale(0.1 -0.1)">
       <use xlink:href="#BitstreamVeraSans-Roman-32"/>
      </g>
     </g>
    </g>
    <g id="ytick_4">
     <g id="line2d_26">
      <g>
       <use style="stroke:#000000;stroke-width:0.5;" x="63.0" xlink:href="#md632e8fabd" y="206.64"/>
      </g>
     </g>
     <g id="line2d_27">
      <g>
       <use style="stroke:#000000;stroke-width:0.5;" x="453.6" xlink:href="#ma0034c52da" y="206.64"/>
      </g>
     </g>
     <g id="text_12">
      <!-- 3 -->
      <g transform="translate(52.6375 209.399375)scale(0.1 -0.1)">
       <use xlink:href="#BitstreamVeraSans-Roman-33"/>
      </g>
     </g>
    </g>
    <g id="ytick_5">
     <g id="line2d_28">
      <g>
       <use style="stroke:#000000;stroke-width:0.5;" x="63.0" xlink:href="#md632e8fabd" y="128.52"/>
      </g>
     </g>
     <g id="line2d_29">
      <g>
       <use style="stroke:#000000;stroke-width:0.5;" x="453.6" xlink:href="#ma0034c52da" y="128.52"/>
      </g>
     </g>
     <g id="text_13">
      <!-- 4 -->
      <g transform="translate(52.6375 131.279375)scale(0.1 -0.1)">
       <use xlink:href="#BitstreamVeraSans-Roman-34"/>
      </g>
     </g>
    </g>
    <g id="ytick_6">
     <g id="line2d_30">
      <g>
       <use style="stroke:#000000;stroke-width:0.5;" x="63.0" xlink:href="#md632e8fabd" y="50.4"/>
      </g>
     </g>
     <g id="line2d_31">
      <g>
       <use style="stroke:#000000;stroke-width:0.5;" x="453.6" xlink:href="#ma0034c52da" y="50.4"/>
      </g>
     </g>
     <g id="text_14">
      <!-- 5 -->
      <defs>
       <path d="M 10.796875 72.90625 
L 49.515625 72.90625 
L 49.515625 64.59375 
L 19.828125 64.59375 
L 19.828125 46.734375 
Q 21.96875 47.46875 24.109375 47.828125 
Q 26.265625 48.1875 28.421875 48.1875 
Q 40.625 48.1875 47.75 41.5 
Q 54.890625 34.8125 54.890625 23.390625 
Q 54.890625 11.625 47.5625 5.09375 
Q 40.234375 -1.421875 26.90625 -1.421875 
Q 22.3125 -1.421875 17.546875 -0.640625 
Q 12.796875 0.140625 7.71875 1.703125 
L 7.71875 11.625 
Q 12.109375 9.234375 16.796875 8.0625 
Q 21.484375 6.890625 26.703125 6.890625 
Q 35.15625 6.890625 40.078125 11.328125 
Q 45.015625 15.765625 45.015625 23.390625 
Q 45.015625 31 40.078125 35.4375 
Q 35.15625 39.890625 26.703125 39.890625 
Q 22.75 39.890625 18.8125 39.015625 
Q 14.890625 38.140625 10.796875 36.28125 
z
" id="BitstreamVeraSans-Roman-35"/>
      </defs>
      <g transform="translate(52.6375 53.159375)scale(0.1 -0.1)">
       <use xlink:href="#BitstreamVeraSans-Roman-35"/>
      </g>
     </g>
    </g>
   </g>
   <g id="text_15">
    <!-- $p(c) = \mathcal{N}(c|0, \alpha_1)$ -->
    <defs>
     <path d="M -2.875 0.203125 
Q -2.875 2.046875 -1.609375 5.03125 
Q -0.34375 8.015625 1.125 8.015625 
Q 1.3125 8.015625 1.421875 7.90625 
Q 4.59375 4.59375 9.28125 4.59375 
Q 11.921875 4.59375 13.9375 9.34375 
Q 15.96875 14.109375 17.921875 20.40625 
Q 18.953125 23.578125 20.4375 28.703125 
Q 21.921875 33.84375 22.703125 37.015625 
Q 23.390625 39.65625 24.34375 44.171875 
Q 25.296875 48.6875 25.90625 52.046875 
Q 26.515625 55.421875 27 58.9375 
Q 27.484375 62.453125 27.875 66.3125 
Q 27.875 66.84375 28.609375 67.578125 
Q 29.6875 68.703125 31.203125 69.578125 
Q 32.625 70.21875 34.078125 70.515625 
L 34.90625 70.515625 
Q 35.5 70.21875 35.59375 69.828125 
Q 38.09375 61.078125 41.796875 50 
Q 45.171875 39.75 47.5625 33.203125 
Q 49.953125 26.65625 53.203125 19.40625 
Q 56.453125 12.15625 60.296875 6 
Q 65.53125 28.421875 70.703125 46.6875 
L 72.015625 51.3125 
Q 74.171875 58.890625 75.5625 63.109375 
Q 76.953125 67.328125 79.109375 70.703125 
Q 80.859375 73.4375 83.6875 75 
Q 86.53125 76.5625 89.890625 77.21875 
Q 93.265625 77.875 96.921875 77.875 
Q 97.796875 77.875 97.796875 76.21875 
Q 97.796875 75.046875 97.28125 73.21875 
Q 96.78125 71.390625 95.890625 69.96875 
Q 95.015625 68.5625 93.890625 68.3125 
Q 89.9375 68.3125 86.828125 67.671875 
Q 83.734375 67.046875 81.203125 65.375 
Q 79.9375 64.453125 79.71875 63.96875 
Q 79.5 63.484375 78.71875 61.078125 
Q 77.4375 57.5625 76.125 52.59375 
L 74.8125 48.09375 
Q 72.265625 38.921875 70.28125 31.34375 
Q 68.3125 23.78125 66.5 16.328125 
Q 64.703125 8.890625 62.984375 1.3125 
Q 63.03125 1.3125 62.953125 1.4375 
Q 62.890625 1.5625 62.890625 1.609375 
Q 62.890625 0.734375 61.734375 -0.234375 
Q 60.59375 -1.21875 59.109375 -1.875 
Q 57.625 -2.546875 56.6875 -2.6875 
L 56 -2.6875 
Q 54.34375 -1.859375 50.34375 5.75 
Q 46.34375 13.375 44.28125 18.3125 
Q 36.859375 36.671875 30.71875 56.6875 
Q 29.9375 51.859375 27.484375 41.375 
Q 25.046875 30.90625 21.671875 20.265625 
Q 18.3125 9.625 14.28125 2.3125 
Q 10.25 -4.984375 6.203125 -4.984375 
Q 3.609375 -4.984375 0.359375 -3.515625 
Q -2.875 -2.046875 -2.875 0.203125 
" id="Cmsy10-4e"/>
     <path d="M 9.90625 -18.015625 
Q 9.90625 -17.578125 10.296875 -17.1875 
Q 13.921875 -13.71875 15.921875 -9.171875 
Q 17.921875 -4.640625 17.921875 0.390625 
L 17.921875 1.609375 
Q 16.3125 0 13.921875 0 
Q 11.625 0 10.015625 1.609375 
Q 8.40625 3.21875 8.40625 5.515625 
Q 8.40625 7.859375 10.015625 9.421875 
Q 11.625 10.984375 13.921875 10.984375 
Q 17.484375 10.984375 19 7.6875 
Q 20.515625 4.390625 20.515625 0.390625 
Q 20.515625 -5.171875 18.28125 -10.171875 
Q 16.0625 -15.1875 12.015625 -19.1875 
Q 11.625 -19.390625 11.375 -19.390625 
Q 10.890625 -19.390625 10.390625 -18.9375 
Q 9.90625 -18.5 9.90625 -18.015625 
" id="Cmmi10-3b"/>
     <path d="M 20.125 -1.125 
Q 15.375 -1.125 11.6875 1.125 
Q 8.015625 3.375 6 7.171875 
Q 4 10.984375 4 15.828125 
Q 4 22.609375 7.78125 29.25 
Q 11.578125 35.890625 17.84375 40.03125 
Q 24.125 44.1875 31 44.1875 
Q 36.078125 44.1875 39.9375 41.53125 
Q 43.796875 38.875 45.796875 34.453125 
Q 47.796875 30.03125 47.796875 25 
L 47.90625 18.3125 
Q 51.3125 23.046875 53.6875 28.140625 
Q 56.0625 33.25 57.328125 38.71875 
Q 57.515625 39.3125 58.109375 39.3125 
L 59.28125 39.3125 
Q 60.203125 39.3125 60.203125 38.375 
Q 60.203125 38.28125 60.109375 38.09375 
Q 58.9375 33.5 57.171875 29.265625 
Q 55.421875 25.046875 53.046875 21.09375 
Q 50.6875 17.140625 47.90625 13.921875 
Q 47.90625 1.515625 50.78125 1.515625 
Q 52.640625 1.515625 53.828125 2.609375 
Q 55.03125 3.71875 55.9375 5.328125 
Q 56.84375 6.9375 57.078125 6.984375 
L 58.296875 6.984375 
Q 59.078125 6.984375 59.078125 6 
Q 59.078125 3.515625 56.21875 1.1875 
Q 53.375 -1.125 50.59375 -1.125 
Q 46.96875 -1.125 44.578125 1.21875 
Q 42.1875 3.5625 41.3125 7.328125 
Q 36.625 3.328125 31.15625 1.09375 
Q 25.6875 -1.125 20.125 -1.125 
M 20.3125 1.515625 
Q 31 1.515625 40.828125 10.296875 
Q 40.765625 10.890625 40.671875 11.734375 
Q 40.578125 12.59375 40.578125 12.703125 
L 40.578125 23.484375 
Q 40.578125 41.609375 30.8125 41.609375 
Q 24.953125 41.609375 20.546875 36.59375 
Q 16.15625 31.59375 13.9375 24.625 
Q 11.71875 17.671875 11.71875 11.921875 
Q 11.71875 7.5625 13.9375 4.53125 
Q 16.15625 1.515625 20.3125 1.515625 
" id="Cmmi10-ae"/>
     <path d="M 31 -24.8125 
Q 25.4375 -20.40625 21.40625 -14.71875 
Q 17.390625 -9.03125 14.8125 -2.578125 
Q 12.25 3.859375 10.984375 10.890625 
Q 9.71875 17.921875 9.71875 25 
Q 9.71875 32.171875 10.984375 39.203125 
Q 12.25 46.234375 14.859375 52.734375 
Q 17.484375 59.234375 21.53125 64.890625 
Q 25.59375 70.5625 31 74.8125 
Q 31 75 31.5 75 
L 32.421875 75 
Q 32.71875 75 32.953125 74.734375 
Q 33.203125 74.46875 33.203125 74.125 
Q 33.203125 73.6875 33.015625 73.484375 
Q 28.125 68.703125 24.875 63.234375 
Q 21.625 57.765625 19.640625 51.578125 
Q 17.671875 45.40625 16.796875 38.78125 
Q 15.921875 32.171875 15.921875 25 
Q 15.921875 -6.78125 32.90625 -23.296875 
Q 33.203125 -23.578125 33.203125 -24.125 
Q 33.203125 -24.359375 32.9375 -24.671875 
Q 32.671875 -25 32.421875 -25 
L 31.5 -25 
Q 31 -25 31 -24.8125 
" id="Cmr10-28"/>
     <path d="M 25 -2.203125 
Q 12.75 -2.203125 8.328125 7.875 
Q 3.90625 17.96875 3.90625 31.890625 
Q 3.90625 40.578125 5.484375 48.234375 
Q 7.078125 55.90625 11.78125 61.25 
Q 16.5 66.609375 25 66.609375 
Q 31.59375 66.609375 35.78125 63.375 
Q 39.984375 60.15625 42.1875 55.046875 
Q 44.390625 49.953125 45.1875 44.109375 
Q 46 38.28125 46 31.890625 
Q 46 23.296875 44.40625 15.796875 
Q 42.828125 8.296875 38.1875 3.046875 
Q 33.546875 -2.203125 25 -2.203125 
M 25 0.390625 
Q 30.5625 0.390625 33.296875 6.09375 
Q 36.03125 11.8125 36.671875 18.75 
Q 37.3125 25.6875 37.3125 33.5 
Q 37.3125 41.015625 36.671875 47.359375 
Q 36.03125 53.71875 33.3125 58.859375 
Q 30.609375 64.015625 25 64.015625 
Q 19.34375 64.015625 16.609375 58.828125 
Q 13.875 53.65625 13.234375 47.328125 
Q 12.59375 41.015625 12.59375 33.5 
Q 12.59375 27.9375 12.859375 23 
Q 13.140625 18.0625 14.3125 12.8125 
Q 15.484375 7.5625 18.09375 3.96875 
Q 20.703125 0.390625 25 0.390625 
" id="Cmr10-30"/>
     <path d="M 11.921875 -23.1875 
L 11.921875 73.1875 
Q 11.921875 73.96875 12.5 74.484375 
Q 13.09375 75 13.921875 75 
Q 14.65625 75 15.28125 74.484375 
Q 15.921875 73.96875 15.921875 73.1875 
L 15.921875 -23.1875 
Q 15.921875 -23.96875 15.28125 -24.484375 
Q 14.65625 -25 13.921875 -25 
Q 13.09375 -25 12.5 -24.484375 
Q 11.921875 -23.96875 11.921875 -23.1875 
" id="Cmsy10-6a"/>
     <path d="M -2.484375 -19.390625 
Q -3.421875 -19.390625 -3.421875 -18.109375 
Q -3.078125 -15.921875 -2.09375 -15.921875 
Q 1.03125 -15.921875 2.265625 -15.359375 
Q 3.515625 -14.796875 4.203125 -12.5 
L 15.484375 32.515625 
Q 16.21875 34.375 16.21875 37.3125 
Q 16.21875 41.609375 13.28125 41.609375 
Q 10.15625 41.609375 8.640625 37.859375 
Q 7.125 34.125 5.71875 28.421875 
Q 5.71875 27.78125 4.890625 27.78125 
L 3.71875 27.78125 
Q 3.46875 27.78125 3.171875 28.140625 
Q 2.875 28.515625 2.875 28.8125 
Q 3.953125 33.15625 4.953125 36.171875 
Q 5.953125 39.203125 8.078125 41.6875 
Q 10.203125 44.1875 13.375 44.1875 
Q 16.796875 44.1875 19.375 42.25 
Q 21.96875 40.328125 22.703125 37.015625 
Q 25.4375 40.1875 28.75 42.1875 
Q 32.078125 44.1875 35.59375 44.1875 
Q 39.796875 44.1875 42.890625 41.9375 
Q 46 39.703125 47.5625 36.0625 
Q 49.125 32.421875 49.125 28.21875 
Q 49.125 21.78125 45.828125 14.890625 
Q 42.53125 8.015625 36.890625 3.4375 
Q 31.25 -1.125 24.8125 -1.125 
Q 21.875 -1.125 19.5 0.53125 
Q 17.140625 2.203125 15.828125 4.890625 
L 11.28125 -12.890625 
Q 11.03125 -14.359375 10.984375 -14.59375 
Q 10.984375 -15.921875 17.578125 -15.921875 
Q 18.609375 -15.921875 18.609375 -17.1875 
Q 18.265625 -18.5 18.046875 -18.9375 
Q 17.828125 -19.390625 16.890625 -19.390625 
z
M 24.90625 1.515625 
Q 28.375 1.515625 31.34375 4.375 
Q 34.328125 7.234375 36.1875 10.796875 
Q 37.546875 13.484375 38.734375 17.359375 
Q 39.9375 21.234375 40.8125 25.625 
Q 41.703125 30.03125 41.703125 32.625 
Q 41.703125 34.90625 41.09375 36.90625 
Q 40.484375 38.921875 39.09375 40.265625 
Q 37.703125 41.609375 35.40625 41.609375 
Q 31.734375 41.609375 28.484375 38.984375 
Q 25.25 36.375 22.609375 32.515625 
L 22.609375 32.171875 
L 17.09375 10.109375 
Q 17.78125 6.546875 19.734375 4.03125 
Q 21.6875 1.515625 24.90625 1.515625 
" id="Cmmi10-70"/>
     <path d="M 6.5 -25 
Q 5.609375 -25 5.609375 -24.125 
Q 5.609375 -23.6875 5.8125 -23.484375 
Q 22.90625 -6.78125 22.90625 25 
Q 22.90625 56.78125 6 73.296875 
Q 5.609375 73.53125 5.609375 74.125 
Q 5.609375 74.46875 5.875 74.734375 
Q 6.15625 75 6.5 75 
L 7.421875 75 
Q 7.71875 75 7.90625 74.8125 
Q 15.09375 69.140625 19.875 61.03125 
Q 24.65625 52.9375 26.875 43.75 
Q 29.109375 34.578125 29.109375 25 
Q 29.109375 17.921875 27.90625 11.0625 
Q 26.703125 4.203125 24.09375 -2.453125 
Q 21.484375 -9.125 17.484375 -14.765625 
Q 13.484375 -20.40625 7.90625 -24.8125 
Q 7.71875 -25 7.421875 -25 
z
" id="Cmr10-29"/>
     <path d="M 7.515625 13.28125 
Q 6.6875 13.28125 6.140625 13.90625 
Q 5.609375 14.546875 5.609375 15.28125 
Q 5.609375 16.109375 6.140625 16.6875 
Q 6.6875 17.28125 7.515625 17.28125 
L 70.3125 17.28125 
Q 71.046875 17.28125 71.578125 16.6875 
Q 72.125 16.109375 72.125 15.28125 
Q 72.125 14.546875 71.578125 13.90625 
Q 71.046875 13.28125 70.3125 13.28125 
z
M 7.515625 32.71875 
Q 6.6875 32.71875 6.140625 33.296875 
Q 5.609375 33.890625 5.609375 34.71875 
Q 5.609375 35.453125 6.140625 36.078125 
Q 6.6875 36.71875 7.515625 36.71875 
L 70.3125 36.71875 
Q 71.046875 36.71875 71.578125 36.078125 
Q 72.125 35.453125 72.125 34.71875 
Q 72.125 33.890625 71.578125 33.296875 
Q 71.046875 32.71875 70.3125 32.71875 
z
" id="Cmr10-3d"/>
     <path d="M 11.71875 11.921875 
Q 11.71875 7.5625 13.9375 4.53125 
Q 16.15625 1.515625 20.3125 1.515625 
Q 26.265625 1.515625 31.75 4.25 
Q 37.25 6.984375 40.71875 11.8125 
Q 41.015625 12.109375 41.5 12.109375 
Q 42 12.109375 42.5 11.546875 
Q 43.015625 10.984375 43.015625 10.5 
Q 43.015625 10.109375 42.828125 9.90625 
Q 39.15625 4.78125 32.953125 1.828125 
Q 26.765625 -1.125 20.125 -1.125 
Q 15.328125 -1.125 11.671875 1.140625 
Q 8.015625 3.421875 6 7.21875 
Q 4 11.03125 4 15.828125 
Q 4 22.5625 7.765625 29.203125 
Q 11.53125 35.84375 17.78125 40.015625 
Q 24.03125 44.1875 30.90625 44.1875 
Q 35.40625 44.1875 38.984375 42.015625 
Q 42.578125 39.84375 42.578125 35.59375 
Q 42.578125 32.859375 40.984375 30.921875 
Q 39.40625 29 36.71875 29 
Q 35.109375 29 34 30 
Q 32.90625 31 32.90625 32.625 
Q 32.90625 34.96875 34.609375 36.625 
Q 36.328125 38.28125 38.625 38.28125 
L 38.8125 38.28125 
Q 37.640625 39.984375 35.421875 40.796875 
Q 33.203125 41.609375 30.8125 41.609375 
Q 24.953125 41.609375 20.546875 36.59375 
Q 16.15625 31.59375 13.9375 24.625 
Q 11.71875 17.671875 11.71875 11.921875 
" id="Cmmi10-63"/>
     <path d="M 9.28125 0 
L 9.28125 3.515625 
Q 21.78125 3.515625 21.78125 6.6875 
L 21.78125 59.1875 
Q 16.609375 56.6875 8.6875 56.6875 
L 8.6875 60.203125 
Q 20.953125 60.203125 27.203125 66.609375 
L 28.609375 66.609375 
Q 28.953125 66.609375 29.265625 66.328125 
Q 29.59375 66.0625 29.59375 65.71875 
L 29.59375 6.6875 
Q 29.59375 3.515625 42.09375 3.515625 
L 42.09375 0 
z
" id="Cmr10-31"/>
    </defs>
    <g transform="translate(389.9 284.76)scale(0.1 -0.1)">
     <use transform="translate(0.0 0.125)" xlink:href="#Cmmi10-70"/>
     <use transform="translate(50.29296875 0.125)" xlink:href="#Cmr10-28"/>
     <use transform="translate(89.111328125 0.125)" xlink:href="#Cmmi10-63"/>
     <use transform="translate(132.32421875 0.125)" xlink:href="#Cmr10-29"/>
     <use transform="translate(188.701171875 0.125)" xlink:href="#Cmr10-3d"/>
     <use transform="translate(283.9453125 0.125)" xlink:href="#Cmsy10-4e"/>
     <use transform="translate(365.927734375 0.125)" xlink:href="#Cmr10-28"/>
     <use transform="translate(404.74609375 0.125)" xlink:href="#Cmmi10-63"/>
     <use transform="translate(447.958984375 0.125)" xlink:href="#Cmsy10-6a"/>
     <use transform="translate(475.64453125 0.125)" xlink:href="#Cmr10-30"/>
     <use transform="translate(525.64453125 0.125)" xlink:href="#Cmmi10-3b"/>
     <use transform="translate(570.888671875 0.125)" xlink:href="#Cmmi10-ae"/>
     <use transform="translate(634.8046875 -16.881249999999994)scale(0.7)" xlink:href="#Cmr10-31"/>
     <use transform="translate(676.18203125 0.125)" xlink:href="#Cmr10-29"/>
    </g>
   </g>
   <g id="text_16">
    <!-- $p(y|m, c, x, \sigma^2)=\mathcal{N}(y|mx+c,\sigma^2)$ -->
    <defs>
     <path d="M 8.40625 -14.3125 
Q 10.5 -17.921875 15.71875 -17.921875 
Q 20.453125 -17.921875 23.921875 -14.59375 
Q 27.390625 -11.28125 29.515625 -6.5625 
Q 31.640625 -1.859375 32.8125 3.078125 
Q 28.375 -1.125 23.1875 -1.125 
Q 19.234375 -1.125 16.453125 0.234375 
Q 13.671875 1.609375 12.125 4.3125 
Q 10.59375 7.03125 10.59375 10.890625 
Q 10.59375 14.15625 11.46875 17.59375 
Q 12.359375 21.046875 13.9375 25.265625 
Q 15.53125 29.5 16.703125 32.625 
Q 18.015625 36.28125 18.015625 38.625 
Q 18.015625 41.609375 15.828125 41.609375 
Q 11.859375 41.609375 9.296875 37.53125 
Q 6.734375 33.453125 5.515625 28.421875 
Q 5.328125 27.78125 4.6875 27.78125 
L 3.515625 27.78125 
Q 2.6875 27.78125 2.6875 28.71875 
L 2.6875 29 
Q 4.296875 34.96875 7.609375 39.578125 
Q 10.9375 44.1875 16.015625 44.1875 
Q 19.578125 44.1875 22.046875 41.84375 
Q 24.515625 39.5 24.515625 35.890625 
Q 24.515625 34.03125 23.6875 31.984375 
Q 23.25 30.765625 21.6875 26.65625 
Q 20.125 22.5625 19.28125 19.875 
Q 18.453125 17.1875 17.921875 14.59375 
Q 17.390625 12.015625 17.390625 9.421875 
Q 17.390625 6.109375 18.796875 3.8125 
Q 20.21875 1.515625 23.296875 1.515625 
Q 29.5 1.515625 34.421875 9.078125 
L 42 39.890625 
Q 42.328125 41.21875 43.546875 42.15625 
Q 44.78125 43.109375 46.1875 43.109375 
Q 47.40625 43.109375 48.3125 42.328125 
Q 49.21875 41.546875 49.21875 40.28125 
Q 49.21875 39.703125 49.125 39.5 
L 39.203125 -0.296875 
Q 37.890625 -5.421875 34.375 -10.109375 
Q 30.859375 -14.796875 25.90625 -17.65625 
Q 20.953125 -20.515625 15.578125 -20.515625 
Q 12.984375 -20.515625 10.4375 -19.5 
Q 7.90625 -18.5 6.34375 -16.5 
Q 4.78125 -14.5 4.78125 -11.8125 
Q 4.78125 -9.078125 6.390625 -7.078125 
Q 8.015625 -5.078125 10.6875 -5.078125 
Q 12.3125 -5.078125 13.40625 -6.078125 
Q 14.5 -7.078125 14.5 -8.6875 
Q 14.5 -10.984375 12.78125 -12.6875 
Q 11.078125 -14.40625 8.796875 -14.40625 
Q 8.6875 -14.359375 8.59375 -14.328125 
Q 8.5 -14.3125 8.40625 -14.3125 
" id="Cmmi10-79"/>
     <path d="M 7.71875 1.703125 
Q 7.71875 2.296875 7.8125 2.59375 
L 15.28125 32.421875 
Q 16.015625 35.203125 16.015625 37.3125 
Q 16.015625 41.609375 13.09375 41.609375 
Q 9.96875 41.609375 8.453125 37.859375 
Q 6.9375 34.125 5.515625 28.421875 
Q 5.515625 28.125 5.21875 27.953125 
Q 4.9375 27.78125 4.6875 27.78125 
L 3.515625 27.78125 
Q 3.171875 27.78125 2.921875 28.140625 
Q 2.6875 28.515625 2.6875 28.8125 
Q 3.765625 33.15625 4.765625 36.171875 
Q 5.765625 39.203125 7.890625 41.6875 
Q 10.015625 44.1875 13.1875 44.1875 
Q 16.9375 44.1875 19.8125 41.8125 
Q 22.703125 39.453125 22.703125 35.796875 
Q 25.6875 39.703125 29.6875 41.9375 
Q 33.6875 44.1875 38.1875 44.1875 
Q 42.921875 44.1875 46.359375 41.765625 
Q 49.8125 39.359375 49.8125 34.90625 
Q 52.875 39.265625 57 41.71875 
Q 61.140625 44.1875 66.015625 44.1875 
Q 71.1875 44.1875 74.328125 41.375 
Q 77.484375 38.578125 77.484375 33.40625 
Q 77.484375 29.296875 75.65625 23.484375 
Q 73.828125 17.671875 71.09375 10.5 
Q 69.671875 7.03125 69.671875 4.5 
Q 69.671875 1.515625 72.015625 1.515625 
Q 75.921875 1.515625 78.515625 5.703125 
Q 81.109375 9.90625 82.171875 14.703125 
Q 82.46875 15.28125 83.015625 15.28125 
L 84.1875 15.28125 
Q 84.578125 15.28125 84.84375 15.015625 
Q 85.109375 14.75 85.109375 14.40625 
Q 85.109375 14.3125 85.015625 14.109375 
Q 83.640625 8.453125 80.25 3.65625 
Q 76.859375 -1.125 71.78125 -1.125 
Q 68.265625 -1.125 65.765625 1.296875 
Q 63.28125 3.71875 63.28125 7.171875 
Q 63.28125 8.9375 64.109375 11.078125 
Q 66.9375 18.609375 68.8125 24.515625 
Q 70.703125 30.421875 70.703125 34.90625 
Q 70.703125 37.703125 69.578125 39.65625 
Q 68.453125 41.609375 65.828125 41.609375 
Q 60.359375 41.609375 56.34375 38.25 
Q 52.34375 34.90625 49.421875 29.390625 
Q 49.21875 28.421875 49.125 27.875 
L 42.671875 2.203125 
Q 42.328125 0.828125 41.125 -0.140625 
Q 39.9375 -1.125 38.484375 -1.125 
Q 37.3125 -1.125 36.40625 -0.34375 
Q 35.5 0.4375 35.5 1.703125 
Q 35.5 2.296875 35.59375 2.59375 
L 42 28.078125 
Q 43.015625 32.171875 43.015625 34.90625 
Q 43.015625 37.703125 41.859375 39.65625 
Q 40.71875 41.609375 37.984375 41.609375 
Q 34.328125 41.609375 31.25 39.984375 
Q 28.171875 38.375 25.875 35.71875 
Q 23.578125 33.0625 21.6875 29.390625 
L 14.890625 2.203125 
Q 14.546875 0.828125 13.34375 -0.140625 
Q 12.15625 -1.125 10.6875 -1.125 
Q 9.46875 -1.125 8.59375 -0.34375 
Q 7.71875 0.4375 7.71875 1.703125 
" id="Cmmi10-6d"/>
     <path d="M 18.703125 -1.125 
Q 14.265625 -1.125 10.8125 1 
Q 7.375 3.125 5.484375 6.734375 
Q 3.609375 10.359375 3.609375 14.703125 
Q 3.609375 19.34375 5.703125 24.46875 
Q 7.8125 29.59375 11.453125 33.84375 
Q 15.09375 38.09375 19.671875 40.59375 
Q 24.265625 43.109375 29.109375 43.109375 
L 54.296875 43.109375 
Q 55.328125 43.109375 56.046875 42.421875 
Q 56.78125 41.75 56.78125 40.578125 
Q 56.78125 39.109375 55.734375 38.015625 
Q 54.6875 36.921875 53.21875 36.921875 
L 41.015625 36.921875 
Q 43.890625 32.625 43.890625 26.515625 
Q 43.890625 21.484375 41.9375 16.59375 
Q 39.984375 11.71875 36.515625 7.6875 
Q 33.0625 3.65625 28.4375 1.265625 
Q 23.828125 -1.125 18.703125 -1.125 
M 18.796875 1.515625 
Q 24.265625 1.515625 28.484375 5.78125 
Q 32.71875 10.0625 34.953125 16.234375 
Q 37.203125 22.40625 37.203125 27.6875 
Q 37.203125 31.984375 34.828125 34.453125 
Q 32.46875 36.921875 28.21875 36.921875 
Q 22.40625 36.921875 18.328125 33.015625 
Q 14.265625 29.109375 12.234375 23.1875 
Q 10.203125 17.28125 10.203125 11.8125 
Q 10.203125 7.515625 12.46875 4.515625 
Q 14.75 1.515625 18.796875 1.515625 
" id="Cmmi10-be"/>
     <path d="M 4.984375 0 
L 4.984375 2.6875 
Q 4.984375 2.9375 5.171875 3.21875 
L 20.703125 20.40625 
Q 24.21875 24.21875 26.40625 26.796875 
Q 28.609375 29.390625 30.75 32.765625 
Q 32.90625 36.140625 34.15625 39.625 
Q 35.40625 43.109375 35.40625 47.015625 
Q 35.40625 51.125 33.890625 54.859375 
Q 32.375 58.59375 29.375 60.84375 
Q 26.375 63.09375 22.125 63.09375 
Q 17.78125 63.09375 14.3125 60.46875 
Q 10.84375 57.859375 9.421875 53.71875 
Q 9.8125 53.8125 10.5 53.8125 
Q 12.75 53.8125 14.328125 52.296875 
Q 15.921875 50.78125 15.921875 48.390625 
Q 15.921875 46.09375 14.328125 44.5 
Q 12.75 42.921875 10.5 42.921875 
Q 8.15625 42.921875 6.5625 44.546875 
Q 4.984375 46.1875 4.984375 48.390625 
Q 4.984375 52.15625 6.390625 55.4375 
Q 7.8125 58.734375 10.46875 61.296875 
Q 13.140625 63.875 16.484375 65.234375 
Q 19.828125 66.609375 23.578125 66.609375 
Q 29.296875 66.609375 34.21875 64.1875 
Q 39.15625 61.765625 42.03125 57.34375 
Q 44.921875 52.9375 44.921875 47.015625 
Q 44.921875 42.671875 43.015625 38.765625 
Q 41.109375 34.859375 38.125 31.65625 
Q 35.15625 28.46875 30.515625 24.40625 
Q 25.875 20.359375 24.421875 19 
L 13.09375 8.109375 
L 22.703125 8.109375 
Q 29.78125 8.109375 34.546875 8.21875 
Q 39.3125 8.34375 39.59375 8.59375 
Q 40.765625 9.859375 42 17.828125 
L 44.921875 17.828125 
L 42.09375 0 
z
" id="Cmr10-32"/>
     <path d="M 7.515625 23 
Q 6.6875 23 6.140625 23.625 
Q 5.609375 24.265625 5.609375 25 
Q 5.609375 25.734375 6.140625 26.359375 
Q 6.6875 27 7.515625 27 
L 36.921875 27 
L 36.921875 56.5 
Q 36.921875 57.28125 37.5 57.78125 
Q 38.09375 58.296875 38.921875 58.296875 
Q 39.65625 58.296875 40.28125 57.78125 
Q 40.921875 57.28125 40.921875 56.5 
L 40.921875 27 
L 70.3125 27 
Q 71.046875 27 71.578125 26.359375 
Q 72.125 25.734375 72.125 25 
Q 72.125 24.265625 71.578125 23.625 
Q 71.046875 23 70.3125 23 
L 40.921875 23 
L 40.921875 -6.5 
Q 40.921875 -7.28125 40.28125 -7.78125 
Q 39.65625 -8.296875 38.921875 -8.296875 
Q 38.09375 -8.296875 37.5 -7.78125 
Q 36.921875 -7.28125 36.921875 -6.5 
L 36.921875 23 
z
" id="Cmr10-2b"/>
     <path d="M 7.8125 2.875 
Q 9.578125 1.515625 12.796875 1.515625 
Q 15.921875 1.515625 18.3125 4.515625 
Q 20.703125 7.515625 21.578125 11.078125 
L 26.125 28.8125 
Q 27.203125 33.640625 27.203125 35.40625 
Q 27.203125 37.890625 25.8125 39.75 
Q 24.421875 41.609375 21.921875 41.609375 
Q 18.75 41.609375 15.96875 39.625 
Q 13.1875 37.640625 11.28125 34.59375 
Q 9.375 31.546875 8.59375 28.421875 
Q 8.40625 27.78125 7.8125 27.78125 
L 6.59375 27.78125 
Q 5.8125 27.78125 5.8125 28.71875 
L 5.8125 29 
Q 6.78125 32.71875 9.125 36.25 
Q 11.46875 39.796875 14.859375 41.984375 
Q 18.265625 44.1875 22.125 44.1875 
Q 25.78125 44.1875 28.734375 42.234375 
Q 31.6875 40.28125 32.90625 36.921875 
Q 34.625 39.984375 37.28125 42.078125 
Q 39.9375 44.1875 43.109375 44.1875 
Q 45.265625 44.1875 47.5 43.421875 
Q 49.75 42.671875 51.171875 41.109375 
Q 52.59375 39.546875 52.59375 37.203125 
Q 52.59375 34.671875 50.953125 32.828125 
Q 49.3125 31 46.78125 31 
Q 45.171875 31 44.09375 32.03125 
Q 43.015625 33.0625 43.015625 34.625 
Q 43.015625 36.71875 44.453125 38.296875 
Q 45.90625 39.890625 47.90625 40.1875 
Q 46.09375 41.609375 42.921875 41.609375 
Q 39.703125 41.609375 37.328125 38.625 
Q 34.96875 35.640625 33.984375 31.984375 
L 29.59375 14.3125 
Q 28.515625 10.296875 28.515625 7.71875 
Q 28.515625 5.171875 29.953125 3.34375 
Q 31.390625 1.515625 33.796875 1.515625 
Q 38.484375 1.515625 42.15625 5.640625 
Q 45.84375 9.765625 47.015625 14.703125 
Q 47.21875 15.28125 47.796875 15.28125 
L 49.03125 15.28125 
Q 49.421875 15.28125 49.65625 15.015625 
Q 49.90625 14.75 49.90625 14.40625 
Q 49.90625 14.3125 49.8125 14.109375 
Q 48.390625 8.15625 43.84375 3.515625 
Q 39.3125 -1.125 33.59375 -1.125 
Q 29.9375 -1.125 26.984375 0.84375 
Q 24.03125 2.828125 22.796875 6.203125 
Q 21.234375 3.265625 18.46875 1.0625 
Q 15.71875 -1.125 12.59375 -1.125 
Q 10.453125 -1.125 8.171875 -0.359375 
Q 5.90625 0.390625 4.484375 1.953125 
Q 3.078125 3.515625 3.078125 5.90625 
Q 3.078125 8.25 4.703125 10.171875 
Q 6.34375 12.109375 8.796875 12.109375 
Q 10.453125 12.109375 11.578125 11.109375 
Q 12.703125 10.109375 12.703125 8.5 
Q 12.703125 6.390625 11.296875 4.828125 
Q 9.90625 3.265625 7.8125 2.875 
" id="Cmmi10-78"/>
    </defs>
    <g transform="translate(354.05 323.82)scale(0.1 -0.1)">
     <use transform="translate(0.0 0.109375)" xlink:href="#Cmmi10-70"/>
     <use transform="translate(50.29296875 0.109375)" xlink:href="#Cmr10-28"/>
     <use transform="translate(89.111328125 0.109375)" xlink:href="#Cmmi10-79"/>
     <use transform="translate(138.134765625 0.109375)" xlink:href="#Cmsy10-6a"/>
     <use transform="translate(165.8203125 0.109375)" xlink:href="#Cmmi10-6d"/>
     <use transform="translate(253.61328125 0.109375)" xlink:href="#Cmmi10-3b"/>
     <use transform="translate(298.857421875 0.109375)" xlink:href="#Cmmi10-63"/>
     <use transform="translate(342.0703125 0.109375)" xlink:href="#Cmmi10-3b"/>
     <use transform="translate(387.314453125 0.109375)" xlink:href="#Cmmi10-78"/>
     <use transform="translate(444.39453125 0.109375)" xlink:href="#Cmmi10-3b"/>
     <use transform="translate(489.638671875 0.109375)" xlink:href="#Cmmi10-be"/>
     <use transform="translate(552.795625 38.3734375)scale(0.7)" xlink:href="#Cmr10-32"/>
     <use transform="translate(594.17296875 0.109375)" xlink:href="#Cmr10-29"/>
     <use transform="translate(650.549921875 0.109375)" xlink:href="#Cmr10-3d"/>
     <use transform="translate(745.7940625 0.109375)" xlink:href="#Cmsy10-4e"/>
     <use transform="translate(827.776484375 0.109375)" xlink:href="#Cmr10-28"/>
     <use transform="translate(866.59484375 0.109375)" xlink:href="#Cmmi10-79"/>
     <use transform="translate(915.61828125 0.109375)" xlink:href="#Cmsy10-6a"/>
     <use transform="translate(943.303828125 0.109375)" xlink:href="#Cmmi10-6d"/>
     <use transform="translate(1031.096796875 0.109375)" xlink:href="#Cmmi10-78"/>
     <use transform="translate(1105.73546875 0.109375)" xlink:href="#Cmr10-2b"/>
     <use transform="translate(1200.979609375 0.109375)" xlink:href="#Cmmi10-63"/>
     <use transform="translate(1244.1925 0.109375)" xlink:href="#Cmmi10-3b"/>
     <use transform="translate(1289.436640625 0.109375)" xlink:href="#Cmmi10-be"/>
     <use transform="translate(1352.59359375 38.3734375)scale(0.7)" xlink:href="#Cmr10-32"/>
     <use transform="translate(1393.9709375000002 0.109375)" xlink:href="#Cmr10-29"/>
    </g>
   </g>
   <g id="text_17">
    <!-- $p(c|y, m, x, \sigma^2)=$ -->
    <g transform="translate(388.4 362.88)scale(0.1 -0.1)">
     <use transform="translate(0.0 0.109375)" xlink:href="#Cmmi10-70"/>
     <use transform="translate(50.29296875 0.109375)" xlink:href="#Cmr10-28"/>
     <use transform="translate(89.111328125 0.109375)" xlink:href="#Cmmi10-63"/>
     <use transform="translate(132.32421875 0.109375)" xlink:href="#Cmsy10-6a"/>
     <use transform="translate(160.009765625 0.109375)" xlink:href="#Cmmi10-79"/>
     <use transform="translate(209.033203125 0.109375)" xlink:href="#Cmmi10-3b"/>
     <use transform="translate(254.27734375 0.109375)" xlink:href="#Cmmi10-6d"/>
     <use transform="translate(342.0703125 0.109375)" xlink:href="#Cmmi10-3b"/>
     <use transform="translate(387.314453125 0.109375)" xlink:href="#Cmmi10-78"/>
     <use transform="translate(444.39453125 0.109375)" xlink:href="#Cmmi10-3b"/>
     <use transform="translate(489.638671875 0.109375)" xlink:href="#Cmmi10-be"/>
     <use transform="translate(552.795625 38.3734375)scale(0.7)" xlink:href="#Cmr10-32"/>
     <use transform="translate(594.17296875 0.109375)" xlink:href="#Cmr10-29"/>
     <use transform="translate(650.549921875 0.109375)" xlink:href="#Cmr10-3d"/>
    </g>
   </g>
   <g id="text_18">
    <!-- $\mathcal{N}\left(c|\frac{y-mx}{1+\sigma^2\alpha_1},(\sigma^{-2}+\alpha_1^{-1})^{-1}\right)$ -->
    <defs>
     <path d="M 4.390625 -175.875 
Q 3.515625 -175.875 3.515625 -175 
Q 3.515625 -174.609375 3.71875 -174.421875 
Q 12.203125 -165.921875 18.0625 -155.546875 
Q 23.921875 -145.171875 27.296875 -133.84375 
Q 30.671875 -122.515625 32.125 -110.546875 
Q 33.59375 -98.578125 33.59375 -85.890625 
Q 33.59375 -72.90625 32.09375 -61.03125 
Q 30.609375 -49.171875 27.234375 -37.890625 
Q 23.875 -26.609375 18.03125 -16.234375 
Q 12.203125 -5.859375 3.71875 2.484375 
Q 3.515625 2.6875 3.515625 3.078125 
Q 3.515625 4 4.390625 4 
L 6.6875 4 
Q 6.984375 4 7.171875 3.8125 
Q 16.40625 -4.15625 23.09375 -14.578125 
Q 29.78125 -25 33.859375 -36.6875 
Q 37.9375 -48.390625 39.765625 -60.734375 
Q 41.609375 -73.09375 41.609375 -85.984375 
Q 41.609375 -98.828125 39.765625 -111.15625 
Q 37.9375 -123.484375 33.859375 -135.203125 
Q 29.78125 -146.921875 23.09375 -157.3125 
Q 16.40625 -167.71875 7.171875 -175.6875 
Q 6.984375 -175.875 6.6875 -175.875 
z
" id="Cmex10-b4"/>
     <path d="M 52.484375 -175.6875 
Q 43.171875 -167.578125 36.546875 -157.265625 
Q 29.9375 -146.96875 25.859375 -135.25 
Q 21.78125 -123.53125 19.890625 -111.171875 
Q 18.015625 -98.828125 18.015625 -85.984375 
Q 18.015625 -73.09375 19.890625 -60.71875 
Q 21.78125 -48.34375 25.859375 -36.625 
Q 29.9375 -24.90625 36.546875 -14.59375 
Q 43.171875 -4.296875 52.484375 3.8125 
Q 52.484375 4 52.984375 4 
L 55.328125 4 
Q 55.609375 4 55.859375 3.6875 
Q 56.109375 3.375 56.109375 3.078125 
Q 56.109375 2.6875 55.90625 2.484375 
Q 47.359375 -6.0625 41.59375 -16.265625 
Q 35.84375 -26.46875 32.375 -38.109375 
Q 28.90625 -49.75 27.4375 -61.6875 
Q 25.984375 -73.640625 25.984375 -86.078125 
Q 25.984375 -98.484375 27.4375 -110.46875 
Q 28.90625 -122.46875 32.375 -133.984375 
Q 35.84375 -145.515625 41.671875 -155.765625 
Q 47.515625 -166.015625 55.90625 -174.421875 
Q 56.109375 -174.609375 56.109375 -175 
Q 56.109375 -175.25 55.828125 -175.5625 
Q 55.5625 -175.875 55.328125 -175.875 
L 52.984375 -175.875 
Q 52.484375 -175.875 52.484375 -175.6875 
" id="Cmex10-b3"/>
     <path d="M 10.203125 23 
Q 9.375 23 8.828125 23.625 
Q 8.296875 24.265625 8.296875 25 
Q 8.296875 25.734375 8.828125 26.359375 
Q 9.375 27 10.203125 27 
L 67.578125 27 
Q 68.359375 27 68.875 26.359375 
Q 69.390625 25.734375 69.390625 25 
Q 69.390625 24.265625 68.875 23.625 
Q 68.359375 23 67.578125 23 
z
" id="Cmsy10-a1"/>
    </defs>
    <g transform="translate(366.35 382.41)scale(0.1 -0.1)">
     <use transform="translate(0.0 0.109375)" xlink:href="#Cmsy10-4e"/>
     <use transform="translate(81.982421875 81.6409375)scale(0.8337369701181374)" xlink:href="#Cmex10-b3"/>
     <use transform="translate(131.761962890625 0.109375)" xlink:href="#Cmmi10-63"/>
     <use transform="translate(174.974853515625 0.109375)" xlink:href="#Cmsy10-6a"/>
     <use transform="translate(225.660400390625 51.970312499999984)scale(0.7)" xlink:href="#Cmmi10-79"/>
     <use transform="translate(272.267822265625 51.970312499999984)scale(0.7)" xlink:href="#Cmsy10-a1"/>
     <use transform="translate(338.938720703125 51.970312499999984)scale(0.7)" xlink:href="#Cmmi10-6d"/>
     <use transform="translate(400.393798828125 51.970312499999984)scale(0.7)" xlink:href="#Cmmi10-78"/>
     <use transform="translate(202.660400390625 -53.064062500000006)scale(0.7)" xlink:href="#Cmr10-31"/>
     <use transform="translate(249.951416015625 -53.064062500000006)scale(0.7)" xlink:href="#Cmr10-2b"/>
     <use transform="translate(316.622314453125 -53.064062500000006)scale(0.7)" xlink:href="#Cmmi10-be"/>
     <use transform="translate(360.832181640625 -26.279218750000013)scale(0.49)" xlink:href="#Cmr10-32"/>
     <use transform="translate(389.796322265625 -53.064062500000006)scale(0.7)" xlink:href="#Cmmi10-ae"/>
     <use transform="translate(434.537533203125 -64.9684375)scale(0.49)" xlink:href="#Cmr10-31"/>
     <use transform="translate(476.001673828125 0.109375)" xlink:href="#Cmmi10-3b"/>
     <use transform="translate(521.2458144531249 0.109375)" xlink:href="#Cmr10-28"/>
     <use transform="translate(560.0641738281249 0.109375)" xlink:href="#Cmmi10-be"/>
     <use transform="translate(623.2211269531249 38.3734375)scale(0.7)" xlink:href="#Cmsy10-a1"/>
     <use transform="translate(677.6010097656249 38.3734375)scale(0.7)" xlink:href="#Cmr10-32"/>
     <use transform="translate(736.5369472656249 0.109375)" xlink:href="#Cmr10-2b"/>
     <use transform="translate(831.7810878906249 0.109375)" xlink:href="#Cmmi10-ae"/>
     <use transform="translate(902.000384765625 38.3734375)scale(0.7)" xlink:href="#Cmsy10-a1"/>
     <use transform="translate(956.380267578125 38.3734375)scale(0.7)" xlink:href="#Cmr10-31"/>
     <use transform="translate(895.6971035156249 -25.400000000000006)scale(0.7)" xlink:href="#Cmr10-31"/>
     <use transform="translate(997.7576113281249 0.109375)" xlink:href="#Cmr10-29"/>
     <use transform="translate(1041.0401113281248 38.3734375)scale(0.7)" xlink:href="#Cmsy10-a1"/>
     <use transform="translate(1095.4199941406248 38.3734375)scale(0.7)" xlink:href="#Cmr10-31"/>
     <use transform="translate(1136.797337890625 81.6409375)scale(0.8337369701181374)" xlink:href="#Cmex10-b4"/>
     <path d="M 202.6604 12.609375 
L 202.6604 18.859375 
L 463.501674 18.859375 
L 463.501674 12.609375 
L 202.6604 12.609375 
z
"/>
    </g>
   </g>
  </g>
 </g>
 <defs>
  <clipPath id="p926541c1a9">
   <rect height="390.6" width="390.6" x="63.0" y="50.4"/>
  </clipPath>
 </defs>
</svg>
