<?xml version="1.0" encoding="utf-8" standalone="no"?>
<!DOCTYPE svg PUBLIC "-//W3C//DTD SVG 1.1//EN"
  "http://www.w3.org/Graphics/SVG/1.1/DTD/svg11.dtd">
<!-- Created with matplotlib (http://matplotlib.org/) -->
<svg height="360pt" version="1.1" viewBox="0 0 360 360" width="360pt" xmlns="http://www.w3.org/2000/svg" xmlns:xlink="http://www.w3.org/1999/xlink">
 <defs>
  <style type="text/css">
*{stroke-linecap:butt;stroke-linejoin:round;stroke-miterlimit:100000;}
  </style>
 </defs>
 <g id="figure_1">
  <g id="patch_1">
   <path d="M 0 360 
L 360 360 
L 360 0 
L 0 0 
z
" style="fill:#ffffff;"/>
  </g>
  <g id="axes_1">
   <g id="patch_2">
    <path d="M 45 315 
L 324 315 
L 324 36 
L 45 36 
z
" style="fill:#ffffff;"/>
   </g>
   <g id="line2d_1">
    <defs>
     <path d="M -5 5 
L 5 -5 
M -5 -5 
L 5 5 
" id="m6a06a71e09" style="stroke:#ff0000;stroke-width:0.5;"/>
    </defs>
    <g clip-path="url(#p56accd6567)">
     <use style="fill:#ff0000;stroke:#ff0000;stroke-width:0.5;" x="141.10653019" xlink:href="#m6a06a71e09" y="222.0003286"/>
     <use style="fill:#ff0000;stroke:#ff0000;stroke-width:0.5;" x="141.667836362" xlink:href="#m6a06a71e09" y="219.542714082"/>
     <use style="fill:#ff0000;stroke:#ff0000;stroke-width:0.5;" x="146.099842348" xlink:href="#m6a06a71e09" y="253.25582839"/>
     <use style="fill:#ff0000;stroke:#ff0000;stroke-width:0.5;" x="159.912953656" xlink:href="#m6a06a71e09" y="219.168520847"/>
     <use style="fill:#ff0000;stroke:#ff0000;stroke-width:0.5;" x="118.802912022" xlink:href="#m6a06a71e09" y="184.441918522"/>
     <use style="fill:#ff0000;stroke:#ff0000;stroke-width:0.5;" x="130.52069318" xlink:href="#m6a06a71e09" y="246.298864374"/>
     <use style="fill:#ff0000;stroke:#ff0000;stroke-width:0.5;" x="117.619858648" xlink:href="#m6a06a71e09" y="243.875502992"/>
     <use style="fill:#ff0000;stroke:#ff0000;stroke-width:0.5;" x="116.384500165" xlink:href="#m6a06a71e09" y="240.061814357"/>
     <use style="fill:#ff0000;stroke:#ff0000;stroke-width:0.5;" x="106.828834472" xlink:href="#m6a06a71e09" y="197.033086522"/>
     <use style="fill:#ff0000;stroke:#ff0000;stroke-width:0.5;" x="143.499389768" xlink:href="#m6a06a71e09" y="241.571315745"/>
     <use style="fill:#ff0000;stroke:#ff0000;stroke-width:0.5;" x="152.472416463" xlink:href="#m6a06a71e09" y="280.401617742"/>
     <use style="fill:#ff0000;stroke:#ff0000;stroke-width:0.5;" x="161.31923146" xlink:href="#m6a06a71e09" y="176.019635981"/>
     <use style="fill:#ff0000;stroke:#ff0000;stroke-width:0.5;" x="118.365929005" xlink:href="#m6a06a71e09" y="263.697336369"/>
     <use style="fill:#ff0000;stroke:#ff0000;stroke-width:0.5;" x="140.567961739" xlink:href="#m6a06a71e09" y="232.102828633"/>
     <use style="fill:#ff0000;stroke:#ff0000;stroke-width:0.5;" x="88.8170351676" xlink:href="#m6a06a71e09" y="233.960606798"/>
     <use style="fill:#ff0000;stroke:#ff0000;stroke-width:0.5;" x="95.0874168554" xlink:href="#m6a06a71e09" y="258.729728105"/>
     <use style="fill:#ff0000;stroke:#ff0000;stroke-width:0.5;" x="139.870817982" xlink:href="#m6a06a71e09" y="241.51779888"/>
     <use style="fill:#ff0000;stroke:#ff0000;stroke-width:0.5;" x="142.236088327" xlink:href="#m6a06a71e09" y="230.352237964"/>
     <use style="fill:#ff0000;stroke:#ff0000;stroke-width:0.5;" x="144.942192152" xlink:href="#m6a06a71e09" y="262.061164572"/>
     <use style="fill:#ff0000;stroke:#ff0000;stroke-width:0.5;" x="73.1057943945" xlink:href="#m6a06a71e09" y="272.820795845"/>
     <use style="fill:#ff0000;stroke:#ff0000;stroke-width:0.5;" x="123.92589902" xlink:href="#m6a06a71e09" y="218.345349627"/>
     <use style="fill:#ff0000;stroke:#ff0000;stroke-width:0.5;" x="117.247141156" xlink:href="#m6a06a71e09" y="277.910855513"/>
     <use style="fill:#ff0000;stroke:#ff0000;stroke-width:0.5;" x="140.040366928" xlink:href="#m6a06a71e09" y="262.521843625"/>
     <use style="fill:#ff0000;stroke:#ff0000;stroke-width:0.5;" x="123.70760325" xlink:href="#m6a06a71e09" y="227.299036391"/>
     <use style="fill:#ff0000;stroke:#ff0000;stroke-width:0.5;" x="139.136734556" xlink:href="#m6a06a71e09" y="238.647321002"/>
     <use style="fill:#ff0000;stroke:#ff0000;stroke-width:0.5;" x="142.985370833" xlink:href="#m6a06a71e09" y="231.975617881"/>
     <use style="fill:#ff0000;stroke:#ff0000;stroke-width:0.5;" x="138.391283666" xlink:href="#m6a06a71e09" y="251.869420658"/>
     <use style="fill:#ff0000;stroke:#ff0000;stroke-width:0.5;" x="113.399444747" xlink:href="#m6a06a71e09" y="221.067827237"/>
     <use style="fill:#ff0000;stroke:#ff0000;stroke-width:0.5;" x="114.713944627" xlink:href="#m6a06a71e09" y="279.12080406"/>
    </g>
   </g>
   <g id="line2d_2">
    <defs>
     <path d="M 0 5 
C 1.326016 5 2.597899 4.473168 3.535534 3.535534 
C 4.473168 2.597899 5 1.326016 5 0 
C 5 -1.326016 4.473168 -2.597899 3.535534 -3.535534 
C 2.597899 -4.473168 1.326016 -5 0 -5 
C -1.326016 -5 -2.597899 -4.473168 -3.535534 -3.535534 
C -4.473168 -2.597899 -5 -1.326016 -5 0 
C -5 1.326016 -4.473168 2.597899 -3.535534 3.535534 
C -2.597899 4.473168 -1.326016 5 0 5 
z
" id="ma91d6b9430" style="stroke:#000000;stroke-width:0.5;"/>
    </defs>
    <g clip-path="url(#p56accd6567)">
     <use style="fill:#00ff00;stroke:#000000;stroke-width:0.5;" x="256.039809468" xlink:href="#ma91d6b9430" y="109.978412884"/>
     <use style="fill:#00ff00;stroke:#000000;stroke-width:0.5;" x="238.562459624" xlink:href="#ma91d6b9430" y="106.880275502"/>
     <use style="fill:#00ff00;stroke:#000000;stroke-width:0.5;" x="238.20647502" xlink:href="#ma91d6b9430" y="60.6279121648"/>
     <use style="fill:#00ff00;stroke:#000000;stroke-width:0.5;" x="264.670453862" xlink:href="#ma91d6b9430" y="109.559041477"/>
     <use style="fill:#00ff00;stroke:#000000;stroke-width:0.5;" x="234.305960843" xlink:href="#ma91d6b9430" y="136.326388831"/>
     <use style="fill:#00ff00;stroke:#000000;stroke-width:0.5;" x="228.936744752" xlink:href="#ma91d6b9430" y="92.9446292157"/>
     <use style="fill:#00ff00;stroke:#000000;stroke-width:0.5;" x="249.656402232" xlink:href="#ma91d6b9430" y="125.021621739"/>
     <use style="fill:#00ff00;stroke:#000000;stroke-width:0.5;" x="231.791205039" xlink:href="#ma91d6b9430" y="116.724629807"/>
     <use style="fill:#00ff00;stroke:#000000;stroke-width:0.5;" x="242.277831039" xlink:href="#ma91d6b9430" y="139.219871987"/>
     <use style="fill:#00ff00;stroke:#000000;stroke-width:0.5;" x="250.117196736" xlink:href="#ma91d6b9430" y="151.415431951"/>
     <use style="fill:#00ff00;stroke:#000000;stroke-width:0.5;" x="256.598895626" xlink:href="#ma91d6b9430" y="139.341707578"/>
     <use style="fill:#00ff00;stroke:#000000;stroke-width:0.5;" x="233.054106718" xlink:href="#ma91d6b9430" y="140.438287572"/>
     <use style="fill:#00ff00;stroke:#000000;stroke-width:0.5;" x="247.604846513" xlink:href="#ma91d6b9430" y="99.8367308419"/>
     <use style="fill:#00ff00;stroke:#000000;stroke-width:0.5;" x="256.279284614" xlink:href="#ma91d6b9430" y="100.204820166"/>
     <use style="fill:#00ff00;stroke:#000000;stroke-width:0.5;" x="241.699685043" xlink:href="#ma91d6b9430" y="92.7728378599"/>
     <use style="fill:#00ff00;stroke:#000000;stroke-width:0.5;" x="240.089986066" xlink:href="#ma91d6b9430" y="127.056827535"/>
     <use style="fill:#00ff00;stroke:#000000;stroke-width:0.5;" x="239.185401005" xlink:href="#ma91d6b9430" y="137.465609807"/>
     <use style="fill:#00ff00;stroke:#000000;stroke-width:0.5;" x="226.777528881" xlink:href="#ma91d6b9430" y="108.236678059"/>
     <use style="fill:#00ff00;stroke:#000000;stroke-width:0.5;" x="229.173083478" xlink:href="#ma91d6b9430" y="87.7096480893"/>
     <use style="fill:#00ff00;stroke:#000000;stroke-width:0.5;" x="206.825337642" xlink:href="#ma91d6b9430" y="122.602997565"/>
     <use style="fill:#00ff00;stroke:#000000;stroke-width:0.5;" x="214.852769343" xlink:href="#ma91d6b9430" y="127.457938523"/>
     <use style="fill:#00ff00;stroke:#000000;stroke-width:0.5;" x="263.537770151" xlink:href="#ma91d6b9430" y="150.326165254"/>
     <use style="fill:#00ff00;stroke:#000000;stroke-width:0.5;" x="244.518568315" xlink:href="#ma91d6b9430" y="83.1876629019"/>
     <use style="fill:#00ff00;stroke:#000000;stroke-width:0.5;" x="272.832682809" xlink:href="#ma91d6b9430" y="140.378760479"/>
     <use style="fill:#00ff00;stroke:#000000;stroke-width:0.5;" x="236.27773604" xlink:href="#ma91d6b9430" y="94.1579389588"/>
     <use style="fill:#00ff00;stroke:#000000;stroke-width:0.5;" x="247.794326078" xlink:href="#ma91d6b9430" y="101.82684217"/>
     <use style="fill:#00ff00;stroke:#000000;stroke-width:0.5;" x="223.921316041" xlink:href="#ma91d6b9430" y="124.050934501"/>
     <use style="fill:#00ff00;stroke:#000000;stroke-width:0.5;" x="266.411290843" xlink:href="#ma91d6b9430" y="140.870918335"/>
     <use style="fill:#00ff00;stroke:#000000;stroke-width:0.5;" x="251.463902686" xlink:href="#ma91d6b9430" y="141.136010638"/>
     <use style="fill:#00ff00;stroke:#000000;stroke-width:0.5;" x="227.687570855" xlink:href="#ma91d6b9430" y="91.2869364664"/>
    </g>
   </g>
   <g id="line2d_3">
    <defs>
     <path d="M -5 0 
L 5 0 
M 0 5 
L 0 -5 
" id="m18ee85c445" style="stroke:#0000ff;stroke-width:0.5;"/>
    </defs>
    <g clip-path="url(#p56accd6567)">
     <use style="fill:#0000ff;stroke:#0000ff;stroke-width:0.5;" x="190.011342701" xlink:href="#m18ee85c445" y="233.073813211"/>
     <use style="fill:#0000ff;stroke:#0000ff;stroke-width:0.5;" x="253.264948067" xlink:href="#m18ee85c445" y="246.417854819"/>
     <use style="fill:#0000ff;stroke:#0000ff;stroke-width:0.5;" x="268.599447724" xlink:href="#m18ee85c445" y="208.037320761"/>
     <use style="fill:#0000ff;stroke:#0000ff;stroke-width:0.5;" x="254.669367411" xlink:href="#m18ee85c445" y="276.921184383"/>
     <use style="fill:#0000ff;stroke:#0000ff;stroke-width:0.5;" x="241.761410488" xlink:href="#m18ee85c445" y="236.596045715"/>
     <use style="fill:#0000ff;stroke:#0000ff;stroke-width:0.5;" x="221.215657466" xlink:href="#m18ee85c445" y="234.890816129"/>
     <use style="fill:#0000ff;stroke:#0000ff;stroke-width:0.5;" x="231.973811215" xlink:href="#m18ee85c445" y="251.356445537"/>
     <use style="fill:#0000ff;stroke:#0000ff;stroke-width:0.5;" x="260.751738105" xlink:href="#m18ee85c445" y="206.619630099"/>
     <use style="fill:#0000ff;stroke:#0000ff;stroke-width:0.5;" x="238.756305749" xlink:href="#m18ee85c445" y="235.078391526"/>
     <use style="fill:#0000ff;stroke:#0000ff;stroke-width:0.5;" x="241.536547841" xlink:href="#m18ee85c445" y="217.554350378"/>
     <use style="fill:#0000ff;stroke:#0000ff;stroke-width:0.5;" x="241.071867814" xlink:href="#m18ee85c445" y="223.227489681"/>
     <use style="fill:#0000ff;stroke:#0000ff;stroke-width:0.5;" x="261.052059299" xlink:href="#m18ee85c445" y="194.048196731"/>
     <use style="fill:#0000ff;stroke:#0000ff;stroke-width:0.5;" x="242.783396508" xlink:href="#m18ee85c445" y="208.333460307"/>
     <use style="fill:#0000ff;stroke:#0000ff;stroke-width:0.5;" x="221.772474968" xlink:href="#m18ee85c445" y="258.204417843"/>
     <use style="fill:#0000ff;stroke:#0000ff;stroke-width:0.5;" x="232.896035208" xlink:href="#m18ee85c445" y="264.203077131"/>
     <use style="fill:#0000ff;stroke:#0000ff;stroke-width:0.5;" x="279.499827801" xlink:href="#m18ee85c445" y="222.923549146"/>
     <use style="fill:#0000ff;stroke:#0000ff;stroke-width:0.5;" x="272.016485599" xlink:href="#m18ee85c445" y="245.537320766"/>
     <use style="fill:#0000ff;stroke:#0000ff;stroke-width:0.5;" x="287.395713078" xlink:href="#m18ee85c445" y="225.386492888"/>
     <use style="fill:#0000ff;stroke:#0000ff;stroke-width:0.5;" x="246.192378911" xlink:href="#m18ee85c445" y="206.987266633"/>
     <use style="fill:#0000ff;stroke:#0000ff;stroke-width:0.5;" x="240.933276482" xlink:href="#m18ee85c445" y="232.841080132"/>
     <use style="fill:#0000ff;stroke:#0000ff;stroke-width:0.5;" x="242.608229717" xlink:href="#m18ee85c445" y="227.377257925"/>
     <use style="fill:#0000ff;stroke:#0000ff;stroke-width:0.5;" x="233.644021167" xlink:href="#m18ee85c445" y="217.354078874"/>
     <use style="fill:#0000ff;stroke:#0000ff;stroke-width:0.5;" x="247.41555564" xlink:href="#m18ee85c445" y="244.493484088"/>
     <use style="fill:#0000ff;stroke:#0000ff;stroke-width:0.5;" x="223.768618548" xlink:href="#m18ee85c445" y="228.894085082"/>
     <use style="fill:#0000ff;stroke:#0000ff;stroke-width:0.5;" x="222.957765963" xlink:href="#m18ee85c445" y="226.053945012"/>
     <use style="fill:#0000ff;stroke:#0000ff;stroke-width:0.5;" x="226.868039175" xlink:href="#m18ee85c445" y="254.671756353"/>
     <use style="fill:#0000ff;stroke:#0000ff;stroke-width:0.5;" x="225.473786832" xlink:href="#m18ee85c445" y="240.403797242"/>
     <use style="fill:#0000ff;stroke:#0000ff;stroke-width:0.5;" x="279.022473116" xlink:href="#m18ee85c445" y="245.552359066"/>
     <use style="fill:#0000ff;stroke:#0000ff;stroke-width:0.5;" x="254.461728863" xlink:href="#m18ee85c445" y="220.6483353"/>
     <use style="fill:#0000ff;stroke:#0000ff;stroke-width:0.5;" x="255.865146922" xlink:href="#m18ee85c445" y="246.554422811"/>
     <use style="fill:#0000ff;stroke:#0000ff;stroke-width:0.5;" x="236.844431934" xlink:href="#m18ee85c445" y="244.459219446"/>
    </g>
   </g>
   <g id="line2d_4">
    <defs>
     <path d="M 0 6 
C 1.591219 6 3.117479 5.367802 4.242641 4.242641 
C 5.367802 3.117479 6 1.591219 6 0 
C 6 -1.591219 5.367802 -3.117479 4.242641 -4.242641 
C 3.117479 -5.367802 1.591219 -6 0 -6 
C -1.591219 -6 -3.117479 -5.367802 -4.242641 -4.242641 
C -5.367802 -3.117479 -6 -1.591219 -6 0 
C -6 1.591219 -5.367802 3.117479 -4.242641 4.242641 
C -3.117479 5.367802 -1.591219 6 0 6 
z
" id="mac826daab3" style="stroke:#000000;stroke-width:0.5;"/>
    </defs>
    <g clip-path="url(#p56accd6567)">
     <use style="stroke:#000000;stroke-width:0.5;" x="123.70760325" xlink:href="#mac826daab3" y="227.299036391"/>
     <use style="stroke:#000000;stroke-width:0.5;" x="240.089986066" xlink:href="#mac826daab3" y="127.056827535"/>
     <use style="stroke:#000000;stroke-width:0.5;" x="222.957765963" xlink:href="#mac826daab3" y="226.053945012"/>
    </g>
   </g>
   <g id="patch_3">
    <path d="M 45 315 
L 324 315 
" style="fill:none;stroke:#000000;stroke-linecap:square;stroke-linejoin:miter;"/>
   </g>
   <g id="patch_4">
    <path d="M 45 36 
L 324 36 
" style="fill:none;stroke:#000000;stroke-linecap:square;stroke-linejoin:miter;"/>
   </g>
   <g id="patch_5">
    <path d="M 324 315 
L 324 36 
" style="fill:none;stroke:#000000;stroke-linecap:square;stroke-linejoin:miter;"/>
   </g>
   <g id="patch_6">
    <path d="M 45 315 
L 45 36 
" style="fill:none;stroke:#000000;stroke-linecap:square;stroke-linejoin:miter;"/>
   </g>
   <g id="matplotlib.axis_1">
    <g id="xtick_1">
     <g id="line2d_5">
      <defs>
       <path d="M 0 0 
L 0 -4 
" id="m88f292a15c" style="stroke:#000000;stroke-width:0.5;"/>
      </defs>
      <g>
       <use style="stroke:#000000;stroke-width:0.5;" x="45.0" xlink:href="#m88f292a15c" y="315.0"/>
      </g>
     </g>
     <g id="line2d_6">
      <defs>
       <path d="M 0 0 
L 0 4 
" id="m6fdceb46c4" style="stroke:#000000;stroke-width:0.5;"/>
      </defs>
      <g>
       <use style="stroke:#000000;stroke-width:0.5;" x="45.0" xlink:href="#m6fdceb46c4" y="36.0"/>
      </g>
     </g>
     <g id="text_1">
      <!-- −6 -->
      <defs>
       <path d="M 10.59375 35.5 
L 73.1875 35.5 
L 73.1875 27.203125 
L 10.59375 27.203125 
z
" id="BitstreamVeraSans-Roman-2212"/>
       <path d="M 33.015625 40.375 
Q 26.375 40.375 22.484375 35.828125 
Q 18.609375 31.296875 18.609375 23.390625 
Q 18.609375 15.53125 22.484375 10.953125 
Q 26.375 6.390625 33.015625 6.390625 
Q 39.65625 6.390625 43.53125 10.953125 
Q 47.40625 15.53125 47.40625 23.390625 
Q 47.40625 31.296875 43.53125 35.828125 
Q 39.65625 40.375 33.015625 40.375 
M 52.59375 71.296875 
L 52.59375 62.3125 
Q 48.875 64.0625 45.09375 64.984375 
Q 41.3125 65.921875 37.59375 65.921875 
Q 27.828125 65.921875 22.671875 59.328125 
Q 17.53125 52.734375 16.796875 39.40625 
Q 19.671875 43.65625 24.015625 45.921875 
Q 28.375 48.1875 33.59375 48.1875 
Q 44.578125 48.1875 50.953125 41.515625 
Q 57.328125 34.859375 57.328125 23.390625 
Q 57.328125 12.15625 50.6875 5.359375 
Q 44.046875 -1.421875 33.015625 -1.421875 
Q 20.359375 -1.421875 13.671875 8.265625 
Q 6.984375 17.96875 6.984375 36.375 
Q 6.984375 53.65625 15.1875 63.9375 
Q 23.390625 74.21875 37.203125 74.21875 
Q 40.921875 74.21875 44.703125 73.484375 
Q 48.484375 72.75 52.59375 71.296875 
" id="BitstreamVeraSans-Roman-36"/>
      </defs>
      <g transform="translate(37.62890625 326.5984375)scale(0.1 -0.1)">
       <use xlink:href="#BitstreamVeraSans-Roman-2212"/>
       <use x="83.7890625" xlink:href="#BitstreamVeraSans-Roman-36"/>
      </g>
     </g>
    </g>
    <g id="xtick_2">
     <g id="line2d_7">
      <g>
       <use style="stroke:#000000;stroke-width:0.5;" x="91.5" xlink:href="#m88f292a15c" y="315.0"/>
      </g>
     </g>
     <g id="line2d_8">
      <g>
       <use style="stroke:#000000;stroke-width:0.5;" x="91.5" xlink:href="#m6fdceb46c4" y="36.0"/>
      </g>
     </g>
     <g id="text_2">
      <!-- −4 -->
      <defs>
       <path d="M 37.796875 64.3125 
L 12.890625 25.390625 
L 37.796875 25.390625 
z
M 35.203125 72.90625 
L 47.609375 72.90625 
L 47.609375 25.390625 
L 58.015625 25.390625 
L 58.015625 17.1875 
L 47.609375 17.1875 
L 47.609375 0 
L 37.796875 0 
L 37.796875 17.1875 
L 4.890625 17.1875 
L 4.890625 26.703125 
z
" id="BitstreamVeraSans-Roman-34"/>
      </defs>
      <g transform="translate(84.12890625 326.5984375)scale(0.1 -0.1)">
       <use xlink:href="#BitstreamVeraSans-Roman-2212"/>
       <use x="83.7890625" xlink:href="#BitstreamVeraSans-Roman-34"/>
      </g>
     </g>
    </g>
    <g id="xtick_3">
     <g id="line2d_9">
      <g>
       <use style="stroke:#000000;stroke-width:0.5;" x="138.0" xlink:href="#m88f292a15c" y="315.0"/>
      </g>
     </g>
     <g id="line2d_10">
      <g>
       <use style="stroke:#000000;stroke-width:0.5;" x="138.0" xlink:href="#m6fdceb46c4" y="36.0"/>
      </g>
     </g>
     <g id="text_3">
      <!-- −2 -->
      <defs>
       <path d="M 19.1875 8.296875 
L 53.609375 8.296875 
L 53.609375 0 
L 7.328125 0 
L 7.328125 8.296875 
Q 12.9375 14.109375 22.625 23.890625 
Q 32.328125 33.6875 34.8125 36.53125 
Q 39.546875 41.84375 41.421875 45.53125 
Q 43.3125 49.21875 43.3125 52.78125 
Q 43.3125 58.59375 39.234375 62.25 
Q 35.15625 65.921875 28.609375 65.921875 
Q 23.96875 65.921875 18.8125 64.3125 
Q 13.671875 62.703125 7.8125 59.421875 
L 7.8125 69.390625 
Q 13.765625 71.78125 18.9375 73 
Q 24.125 74.21875 28.421875 74.21875 
Q 39.75 74.21875 46.484375 68.546875 
Q 53.21875 62.890625 53.21875 53.421875 
Q 53.21875 48.921875 51.53125 44.890625 
Q 49.859375 40.875 45.40625 35.40625 
Q 44.1875 33.984375 37.640625 27.21875 
Q 31.109375 20.453125 19.1875 8.296875 
" id="BitstreamVeraSans-Roman-32"/>
      </defs>
      <g transform="translate(130.62890625 326.5984375)scale(0.1 -0.1)">
       <use xlink:href="#BitstreamVeraSans-Roman-2212"/>
       <use x="83.7890625" xlink:href="#BitstreamVeraSans-Roman-32"/>
      </g>
     </g>
    </g>
    <g id="xtick_4">
     <g id="line2d_11">
      <g>
       <use style="stroke:#000000;stroke-width:0.5;" x="184.5" xlink:href="#m88f292a15c" y="315.0"/>
      </g>
     </g>
     <g id="line2d_12">
      <g>
       <use style="stroke:#000000;stroke-width:0.5;" x="184.5" xlink:href="#m6fdceb46c4" y="36.0"/>
      </g>
     </g>
     <g id="text_4">
      <!-- 0 -->
      <defs>
       <path d="M 31.78125 66.40625 
Q 24.171875 66.40625 20.328125 58.90625 
Q 16.5 51.421875 16.5 36.375 
Q 16.5 21.390625 20.328125 13.890625 
Q 24.171875 6.390625 31.78125 6.390625 
Q 39.453125 6.390625 43.28125 13.890625 
Q 47.125 21.390625 47.125 36.375 
Q 47.125 51.421875 43.28125 58.90625 
Q 39.453125 66.40625 31.78125 66.40625 
M 31.78125 74.21875 
Q 44.046875 74.21875 50.515625 64.515625 
Q 56.984375 54.828125 56.984375 36.375 
Q 56.984375 17.96875 50.515625 8.265625 
Q 44.046875 -1.421875 31.78125 -1.421875 
Q 19.53125 -1.421875 13.0625 8.265625 
Q 6.59375 17.96875 6.59375 36.375 
Q 6.59375 54.828125 13.0625 64.515625 
Q 19.53125 74.21875 31.78125 74.21875 
" id="BitstreamVeraSans-Roman-30"/>
      </defs>
      <g transform="translate(181.31875 326.5984375)scale(0.1 -0.1)">
       <use xlink:href="#BitstreamVeraSans-Roman-30"/>
      </g>
     </g>
    </g>
    <g id="xtick_5">
     <g id="line2d_13">
      <g>
       <use style="stroke:#000000;stroke-width:0.5;" x="231.0" xlink:href="#m88f292a15c" y="315.0"/>
      </g>
     </g>
     <g id="line2d_14">
      <g>
       <use style="stroke:#000000;stroke-width:0.5;" x="231.0" xlink:href="#m6fdceb46c4" y="36.0"/>
      </g>
     </g>
     <g id="text_5">
      <!-- 2 -->
      <g transform="translate(227.81875 326.5984375)scale(0.1 -0.1)">
       <use xlink:href="#BitstreamVeraSans-Roman-32"/>
      </g>
     </g>
    </g>
    <g id="xtick_6">
     <g id="line2d_15">
      <g>
       <use style="stroke:#000000;stroke-width:0.5;" x="277.5" xlink:href="#m88f292a15c" y="315.0"/>
      </g>
     </g>
     <g id="line2d_16">
      <g>
       <use style="stroke:#000000;stroke-width:0.5;" x="277.5" xlink:href="#m6fdceb46c4" y="36.0"/>
      </g>
     </g>
     <g id="text_6">
      <!-- 4 -->
      <g transform="translate(274.31875 326.5984375)scale(0.1 -0.1)">
       <use xlink:href="#BitstreamVeraSans-Roman-34"/>
      </g>
     </g>
    </g>
    <g id="xtick_7">
     <g id="line2d_17">
      <g>
       <use style="stroke:#000000;stroke-width:0.5;" x="324.0" xlink:href="#m88f292a15c" y="315.0"/>
      </g>
     </g>
     <g id="line2d_18">
      <g>
       <use style="stroke:#000000;stroke-width:0.5;" x="324.0" xlink:href="#m6fdceb46c4" y="36.0"/>
      </g>
     </g>
     <g id="text_7">
      <!-- 6 -->
      <g transform="translate(320.81875 326.5984375)scale(0.1 -0.1)">
       <use xlink:href="#BitstreamVeraSans-Roman-36"/>
      </g>
     </g>
    </g>
    <g id="text_8">
     <!-- $y_1$ -->
     <defs>
      <path d="M 8.40625 -14.3125 
Q 10.5 -17.921875 15.71875 -17.921875 
Q 20.453125 -17.921875 23.921875 -14.59375 
Q 27.390625 -11.28125 29.515625 -6.5625 
Q 31.640625 -1.859375 32.8125 3.078125 
Q 28.375 -1.125 23.1875 -1.125 
Q 19.234375 -1.125 16.453125 0.234375 
Q 13.671875 1.609375 12.125 4.3125 
Q 10.59375 7.03125 10.59375 10.890625 
Q 10.59375 14.15625 11.46875 17.59375 
Q 12.359375 21.046875 13.9375 25.265625 
Q 15.53125 29.5 16.703125 32.625 
Q 18.015625 36.28125 18.015625 38.625 
Q 18.015625 41.609375 15.828125 41.609375 
Q 11.859375 41.609375 9.296875 37.53125 
Q 6.734375 33.453125 5.515625 28.421875 
Q 5.328125 27.78125 4.6875 27.78125 
L 3.515625 27.78125 
Q 2.6875 27.78125 2.6875 28.71875 
L 2.6875 29 
Q 4.296875 34.96875 7.609375 39.578125 
Q 10.9375 44.1875 16.015625 44.1875 
Q 19.578125 44.1875 22.046875 41.84375 
Q 24.515625 39.5 24.515625 35.890625 
Q 24.515625 34.03125 23.6875 31.984375 
Q 23.25 30.765625 21.6875 26.65625 
Q 20.125 22.5625 19.28125 19.875 
Q 18.453125 17.1875 17.921875 14.59375 
Q 17.390625 12.015625 17.390625 9.421875 
Q 17.390625 6.109375 18.796875 3.8125 
Q 20.21875 1.515625 23.296875 1.515625 
Q 29.5 1.515625 34.421875 9.078125 
L 42 39.890625 
Q 42.328125 41.21875 43.546875 42.15625 
Q 44.78125 43.109375 46.1875 43.109375 
Q 47.40625 43.109375 48.3125 42.328125 
Q 49.21875 41.546875 49.21875 40.28125 
Q 49.21875 39.703125 49.125 39.5 
L 39.203125 -0.296875 
Q 37.890625 -5.421875 34.375 -10.109375 
Q 30.859375 -14.796875 25.90625 -17.65625 
Q 20.953125 -20.515625 15.578125 -20.515625 
Q 12.984375 -20.515625 10.4375 -19.5 
Q 7.90625 -18.5 6.34375 -16.5 
Q 4.78125 -14.5 4.78125 -11.8125 
Q 4.78125 -9.078125 6.390625 -7.078125 
Q 8.015625 -5.078125 10.6875 -5.078125 
Q 12.3125 -5.078125 13.40625 -6.078125 
Q 14.5 -7.078125 14.5 -8.6875 
Q 14.5 -10.984375 12.78125 -12.6875 
Q 11.078125 -14.40625 8.796875 -14.40625 
Q 8.6875 -14.359375 8.59375 -14.328125 
Q 8.5 -14.3125 8.40625 -14.3125 
" id="Cmmi10-79"/>
      <path d="M 9.28125 0 
L 9.28125 3.515625 
Q 21.78125 3.515625 21.78125 6.6875 
L 21.78125 59.1875 
Q 16.609375 56.6875 8.6875 56.6875 
L 8.6875 60.203125 
Q 20.953125 60.203125 27.203125 66.609375 
L 28.609375 66.609375 
Q 28.953125 66.609375 29.265625 66.328125 
Q 29.59375 66.0625 29.59375 65.71875 
L 29.59375 6.6875 
Q 29.59375 3.515625 42.09375 3.515625 
L 42.09375 0 
z
" id="Cmr10-31"/>
     </defs>
     <g transform="translate(175.4 348.834375)scale(0.2 -0.2)">
      <use transform="translate(0.0 0.8125)" xlink:href="#Cmmi10-79"/>
      <use transform="translate(49.0234375 -16.19375)scale(0.7)" xlink:href="#Cmr10-31"/>
     </g>
    </g>
   </g>
   <g id="matplotlib.axis_2">
    <g id="ytick_1">
     <g id="line2d_19">
      <defs>
       <path d="M 0 0 
L 4 0 
" id="m781130516a" style="stroke:#000000;stroke-width:0.5;"/>
      </defs>
      <g>
       <use style="stroke:#000000;stroke-width:0.5;" x="45.0" xlink:href="#m781130516a" y="315.0"/>
      </g>
     </g>
     <g id="line2d_20">
      <defs>
       <path d="M 0 0 
L -4 0 
" id="mb47dfce01b" style="stroke:#000000;stroke-width:0.5;"/>
      </defs>
      <g>
       <use style="stroke:#000000;stroke-width:0.5;" x="324.0" xlink:href="#mb47dfce01b" y="315.0"/>
      </g>
     </g>
     <g id="text_9">
      <!-- −6 -->
      <g transform="translate(26.2578125 317.759375)scale(0.1 -0.1)">
       <use xlink:href="#BitstreamVeraSans-Roman-2212"/>
       <use x="83.7890625" xlink:href="#BitstreamVeraSans-Roman-36"/>
      </g>
     </g>
    </g>
    <g id="ytick_2">
     <g id="line2d_21">
      <g>
       <use style="stroke:#000000;stroke-width:0.5;" x="45.0" xlink:href="#m781130516a" y="268.5"/>
      </g>
     </g>
     <g id="line2d_22">
      <g>
       <use style="stroke:#000000;stroke-width:0.5;" x="324.0" xlink:href="#mb47dfce01b" y="268.5"/>
      </g>
     </g>
     <g id="text_10">
      <!-- −4 -->
      <g transform="translate(26.2578125 271.259375)scale(0.1 -0.1)">
       <use xlink:href="#BitstreamVeraSans-Roman-2212"/>
       <use x="83.7890625" xlink:href="#BitstreamVeraSans-Roman-34"/>
      </g>
     </g>
    </g>
    <g id="ytick_3">
     <g id="line2d_23">
      <g>
       <use style="stroke:#000000;stroke-width:0.5;" x="45.0" xlink:href="#m781130516a" y="222.0"/>
      </g>
     </g>
     <g id="line2d_24">
      <g>
       <use style="stroke:#000000;stroke-width:0.5;" x="324.0" xlink:href="#mb47dfce01b" y="222.0"/>
      </g>
     </g>
     <g id="text_11">
      <!-- −2 -->
      <g transform="translate(26.2578125 224.759375)scale(0.1 -0.1)">
       <use xlink:href="#BitstreamVeraSans-Roman-2212"/>
       <use x="83.7890625" xlink:href="#BitstreamVeraSans-Roman-32"/>
      </g>
     </g>
    </g>
    <g id="ytick_4">
     <g id="line2d_25">
      <g>
       <use style="stroke:#000000;stroke-width:0.5;" x="45.0" xlink:href="#m781130516a" y="175.5"/>
      </g>
     </g>
     <g id="line2d_26">
      <g>
       <use style="stroke:#000000;stroke-width:0.5;" x="324.0" xlink:href="#mb47dfce01b" y="175.5"/>
      </g>
     </g>
     <g id="text_12">
      <!-- 0 -->
      <g transform="translate(34.6375 178.259375)scale(0.1 -0.1)">
       <use xlink:href="#BitstreamVeraSans-Roman-30"/>
      </g>
     </g>
    </g>
    <g id="ytick_5">
     <g id="line2d_27">
      <g>
       <use style="stroke:#000000;stroke-width:0.5;" x="45.0" xlink:href="#m781130516a" y="129.0"/>
      </g>
     </g>
     <g id="line2d_28">
      <g>
       <use style="stroke:#000000;stroke-width:0.5;" x="324.0" xlink:href="#mb47dfce01b" y="129.0"/>
      </g>
     </g>
     <g id="text_13">
      <!-- 2 -->
      <g transform="translate(34.6375 131.759375)scale(0.1 -0.1)">
       <use xlink:href="#BitstreamVeraSans-Roman-32"/>
      </g>
     </g>
    </g>
    <g id="ytick_6">
     <g id="line2d_29">
      <g>
       <use style="stroke:#000000;stroke-width:0.5;" x="45.0" xlink:href="#m781130516a" y="82.5"/>
      </g>
     </g>
     <g id="line2d_30">
      <g>
       <use style="stroke:#000000;stroke-width:0.5;" x="324.0" xlink:href="#mb47dfce01b" y="82.5"/>
      </g>
     </g>
     <g id="text_14">
      <!-- 4 -->
      <g transform="translate(34.6375 85.259375)scale(0.1 -0.1)">
       <use xlink:href="#BitstreamVeraSans-Roman-34"/>
      </g>
     </g>
    </g>
    <g id="ytick_7">
     <g id="line2d_31">
      <g>
       <use style="stroke:#000000;stroke-width:0.5;" x="45.0" xlink:href="#m781130516a" y="36.0"/>
      </g>
     </g>
     <g id="line2d_32">
      <g>
       <use style="stroke:#000000;stroke-width:0.5;" x="324.0" xlink:href="#mb47dfce01b" y="36.0"/>
      </g>
     </g>
     <g id="text_15">
      <!-- 6 -->
      <g transform="translate(34.6375 38.759375)scale(0.1 -0.1)">
       <use xlink:href="#BitstreamVeraSans-Roman-36"/>
      </g>
     </g>
    </g>
    <g id="text_16">
     <!-- $y_2$ -->
     <defs>
      <path d="M 4.984375 0 
L 4.984375 2.6875 
Q 4.984375 2.9375 5.171875 3.21875 
L 20.703125 20.40625 
Q 24.21875 24.21875 26.40625 26.796875 
Q 28.609375 29.390625 30.75 32.765625 
Q 32.90625 36.140625 34.15625 39.625 
Q 35.40625 43.109375 35.40625 47.015625 
Q 35.40625 51.125 33.890625 54.859375 
Q 32.375 58.59375 29.375 60.84375 
Q 26.375 63.09375 22.125 63.09375 
Q 17.78125 63.09375 14.3125 60.46875 
Q 10.84375 57.859375 9.421875 53.71875 
Q 9.8125 53.8125 10.5 53.8125 
Q 12.75 53.8125 14.328125 52.296875 
Q 15.921875 50.78125 15.921875 48.390625 
Q 15.921875 46.09375 14.328125 44.5 
Q 12.75 42.921875 10.5 42.921875 
Q 8.15625 42.921875 6.5625 44.546875 
Q 4.984375 46.1875 4.984375 48.390625 
Q 4.984375 52.15625 6.390625 55.4375 
Q 7.8125 58.734375 10.46875 61.296875 
Q 13.140625 63.875 16.484375 65.234375 
Q 19.828125 66.609375 23.578125 66.609375 
Q 29.296875 66.609375 34.21875 64.1875 
Q 39.15625 61.765625 42.03125 57.34375 
Q 44.921875 52.9375 44.921875 47.015625 
Q 44.921875 42.671875 43.015625 38.765625 
Q 41.109375 34.859375 38.125 31.65625 
Q 35.15625 28.46875 30.515625 24.40625 
Q 25.875 20.359375 24.421875 19 
L 13.09375 8.109375 
L 22.703125 8.109375 
Q 29.78125 8.109375 34.546875 8.21875 
Q 39.3125 8.34375 39.59375 8.59375 
Q 40.765625 9.859375 42 17.828125 
L 44.921875 17.828125 
L 42.09375 0 
z
" id="Cmr10-32"/>
     </defs>
     <g transform="translate(17.0578125 184.6)rotate(-90.0)scale(0.2 -0.2)">
      <use transform="translate(0.0 0.8125)" xlink:href="#Cmmi10-79"/>
      <use transform="translate(49.0234375 -16.19375)scale(0.7)" xlink:href="#Cmr10-32"/>
     </g>
    </g>
   </g>
   <g id="text_17">
    <!-- Iteration 0 -->
    <defs>
     <path d="M 30.609375 48.390625 
Q 23.390625 48.390625 19.1875 42.75 
Q 14.984375 37.109375 14.984375 27.296875 
Q 14.984375 17.484375 19.15625 11.84375 
Q 23.34375 6.203125 30.609375 6.203125 
Q 37.796875 6.203125 41.984375 11.859375 
Q 46.1875 17.53125 46.1875 27.296875 
Q 46.1875 37.015625 41.984375 42.703125 
Q 37.796875 48.390625 30.609375 48.390625 
M 30.609375 56 
Q 42.328125 56 49.015625 48.375 
Q 55.71875 40.765625 55.71875 27.296875 
Q 55.71875 13.875 49.015625 6.21875 
Q 42.328125 -1.421875 30.609375 -1.421875 
Q 18.84375 -1.421875 12.171875 6.21875 
Q 5.515625 13.875 5.515625 27.296875 
Q 5.515625 40.765625 12.171875 48.375 
Q 18.84375 56 30.609375 56 
" id="BitstreamVeraSans-Roman-6f"/>
     <path d="M 54.890625 33.015625 
L 54.890625 0 
L 45.90625 0 
L 45.90625 32.71875 
Q 45.90625 40.484375 42.875 44.328125 
Q 39.84375 48.1875 33.796875 48.1875 
Q 26.515625 48.1875 22.3125 43.546875 
Q 18.109375 38.921875 18.109375 30.90625 
L 18.109375 0 
L 9.078125 0 
L 9.078125 54.6875 
L 18.109375 54.6875 
L 18.109375 46.1875 
Q 21.34375 51.125 25.703125 53.5625 
Q 30.078125 56 35.796875 56 
Q 45.21875 56 50.046875 50.171875 
Q 54.890625 44.34375 54.890625 33.015625 
" id="BitstreamVeraSans-Roman-6e"/>
     <path id="BitstreamVeraSans-Roman-20"/>
     <path d="M 34.28125 27.484375 
Q 23.390625 27.484375 19.1875 25 
Q 14.984375 22.515625 14.984375 16.5 
Q 14.984375 11.71875 18.140625 8.90625 
Q 21.296875 6.109375 26.703125 6.109375 
Q 34.1875 6.109375 38.703125 11.40625 
Q 43.21875 16.703125 43.21875 25.484375 
L 43.21875 27.484375 
z
M 52.203125 31.203125 
L 52.203125 0 
L 43.21875 0 
L 43.21875 8.296875 
Q 40.140625 3.328125 35.546875 0.953125 
Q 30.953125 -1.421875 24.3125 -1.421875 
Q 15.921875 -1.421875 10.953125 3.296875 
Q 6 8.015625 6 15.921875 
Q 6 25.140625 12.171875 29.828125 
Q 18.359375 34.515625 30.609375 34.515625 
L 43.21875 34.515625 
L 43.21875 35.40625 
Q 43.21875 41.609375 39.140625 45 
Q 35.0625 48.390625 27.6875 48.390625 
Q 23 48.390625 18.546875 47.265625 
Q 14.109375 46.140625 10.015625 43.890625 
L 10.015625 52.203125 
Q 14.9375 54.109375 19.578125 55.046875 
Q 24.21875 56 28.609375 56 
Q 40.484375 56 46.34375 49.84375 
Q 52.203125 43.703125 52.203125 31.203125 
" id="BitstreamVeraSans-Roman-61"/>
     <path d="M 9.8125 72.90625 
L 19.671875 72.90625 
L 19.671875 0 
L 9.8125 0 
z
" id="BitstreamVeraSans-Roman-49"/>
     <path d="M 56.203125 29.59375 
L 56.203125 25.203125 
L 14.890625 25.203125 
Q 15.484375 15.921875 20.484375 11.0625 
Q 25.484375 6.203125 34.421875 6.203125 
Q 39.59375 6.203125 44.453125 7.46875 
Q 49.3125 8.734375 54.109375 11.28125 
L 54.109375 2.78125 
Q 49.265625 0.734375 44.1875 -0.34375 
Q 39.109375 -1.421875 33.890625 -1.421875 
Q 20.796875 -1.421875 13.15625 6.1875 
Q 5.515625 13.8125 5.515625 26.8125 
Q 5.515625 40.234375 12.765625 48.109375 
Q 20.015625 56 32.328125 56 
Q 43.359375 56 49.78125 48.890625 
Q 56.203125 41.796875 56.203125 29.59375 
M 47.21875 32.234375 
Q 47.125 39.59375 43.09375 43.984375 
Q 39.0625 48.390625 32.421875 48.390625 
Q 24.90625 48.390625 20.390625 44.140625 
Q 15.875 39.890625 15.1875 32.171875 
z
" id="BitstreamVeraSans-Roman-65"/>
     <path d="M 41.109375 46.296875 
Q 39.59375 47.171875 37.8125 47.578125 
Q 36.03125 48 33.890625 48 
Q 26.265625 48 22.1875 43.046875 
Q 18.109375 38.09375 18.109375 28.8125 
L 18.109375 0 
L 9.078125 0 
L 9.078125 54.6875 
L 18.109375 54.6875 
L 18.109375 46.1875 
Q 20.953125 51.171875 25.484375 53.578125 
Q 30.03125 56 36.53125 56 
Q 37.453125 56 38.578125 55.875 
Q 39.703125 55.765625 41.0625 55.515625 
z
" id="BitstreamVeraSans-Roman-72"/>
     <path d="M 18.3125 70.21875 
L 18.3125 54.6875 
L 36.8125 54.6875 
L 36.8125 47.703125 
L 18.3125 47.703125 
L 18.3125 18.015625 
Q 18.3125 11.328125 20.140625 9.421875 
Q 21.96875 7.515625 27.59375 7.515625 
L 36.8125 7.515625 
L 36.8125 0 
L 27.59375 0 
Q 17.1875 0 13.234375 3.875 
Q 9.28125 7.765625 9.28125 18.015625 
L 9.28125 47.703125 
L 2.6875 47.703125 
L 2.6875 54.6875 
L 9.28125 54.6875 
L 9.28125 70.21875 
z
" id="BitstreamVeraSans-Roman-74"/>
     <path d="M 9.421875 54.6875 
L 18.40625 54.6875 
L 18.40625 0 
L 9.421875 0 
z
M 9.421875 75.984375 
L 18.40625 75.984375 
L 18.40625 64.59375 
L 9.421875 64.59375 
z
" id="BitstreamVeraSans-Roman-69"/>
    </defs>
    <g transform="translate(153.3253125 31.0)scale(0.12 -0.12)">
     <use xlink:href="#BitstreamVeraSans-Roman-49"/>
     <use x="29.4921875" xlink:href="#BitstreamVeraSans-Roman-74"/>
     <use x="68.701171875" xlink:href="#BitstreamVeraSans-Roman-65"/>
     <use x="130.224609375" xlink:href="#BitstreamVeraSans-Roman-72"/>
     <use x="171.337890625" xlink:href="#BitstreamVeraSans-Roman-61"/>
     <use x="232.6171875" xlink:href="#BitstreamVeraSans-Roman-74"/>
     <use x="271.826171875" xlink:href="#BitstreamVeraSans-Roman-69"/>
     <use x="299.609375" xlink:href="#BitstreamVeraSans-Roman-6f"/>
     <use x="360.791015625" xlink:href="#BitstreamVeraSans-Roman-6e"/>
     <use x="424.169921875" xlink:href="#BitstreamVeraSans-Roman-20"/>
     <use x="455.95703125" xlink:href="#BitstreamVeraSans-Roman-30"/>
    </g>
   </g>
  </g>
 </g>
 <defs>
  <clipPath id="p56accd6567">
   <rect height="279.0" width="279.0" x="45.0" y="36.0"/>
  </clipPath>
 </defs>
</svg>
