<?xml version="1.0" encoding="utf-8" standalone="no"?>
<!DOCTYPE svg PUBLIC "-//W3C//DTD SVG 1.1//EN"
  "http://www.w3.org/Graphics/SVG/1.1/DTD/svg11.dtd">
<!-- Created with matplotlib (http://matplotlib.org/) -->
<svg height="432pt" version="1.1" viewBox="0 0 576 432" width="576pt" xmlns="http://www.w3.org/2000/svg" xmlns:xlink="http://www.w3.org/1999/xlink">
 <defs>
  <style type="text/css">
*{stroke-linecap:butt;stroke-linejoin:round;stroke-miterlimit:100000;}
  </style>
 </defs>
 <g id="figure_1">
  <g id="patch_1">
   <path d="M 0 432 
L 576 432 
L 576 0 
L 0 0 
z
" style="fill:#ffffff;"/>
  </g>
  <g id="axes_1">
   <g id="patch_2">
    <path d="M 72 378 
L 518.4 378 
L 518.4 43.2 
L 72 43.2 
z
" style="fill:#ffffff;"/>
   </g>
   <g id="LineCollection_1"/>
   <g id="LineCollection_2"/>
   <g id="LineCollection_3"/>
   <g id="LineCollection_4"/>
   <g id="LineCollection_5">
    <path clip-path="url(#paf5ec11615)" d="M 72 195.174171 
L 76.509091 194.082508 
L 81.018182 193.040161 
L 85.527273 192.0474 
L 85.754337 192 
L 90.036364 191.214645 
L 94.545455 190.432034 
L 99.054545 189.693957 
L 103.563636 189.00063 
L 106.225145 188.618182 
L 108.072727 188.381558 
L 112.581818 187.844957 
L 117.090909 187.34893 
L 121.6 186.893652 
L 126.109091 186.479298 
L 130.618182 186.106044 
L 135.127273 185.774069 
L 139.636364 185.483551 
L 144.114791 185.236364 
L 144.145455 185.234839 
L 144.208299 185.232242 
" style="fill:none;stroke:#0000c8;"/>
    <path clip-path="url(#paf5ec11615)" d="M 198.182288 185.558262 
L 198.254545 185.562511 
L 202.763636 185.871723 
L 207.272727 186.225198 
L 211.781818 186.623131 
L 216.290909 187.065719 
L 220.8 187.553162 
L 225.309091 188.085658 
L 229.465694 188.618182 
L 229.818182 188.66926 
L 234.327273 189.373252 
L 238.836364 190.129102 
L 243.345455 190.937074 
L 247.854545 191.797429 
L 248.856302 192 
L 252.363636 192.817053 
L 256.872727 193.928428 
L 261.381818 195.10157 
L 262.406349 195.381818 
L 265.890909 196.506639 
L 270.4 198.036067 
L 272.447138 198.763636 
L 274.909091 199.831374 
L 279.418182 201.878614 
L 279.981244 202.145455 
L 283.927273 204.54573 
L 285.473841 205.527273 
L 288.436364 208.151501 
L 289.257483 208.909091 
L 291.47843 212.290909 
L 292.260995 215.672727 
L 291.622715 219.054545 
L 289.580844 222.436364 
L 288.436364 223.56223 
L 286.069339 225.818182 
L 283.927273 227.271776 
L 280.991326 229.2 
L 279.418182 230.002165 
L 274.909091 232.223928 
L 274.155967 232.581818 
L 270.4 234.039732 
L 265.890909 235.726797 
L 265.232016 235.963636 
L 261.381818 237.13289 
L 256.872727 238.447388 
L 253.656259 239.345455 
L 252.363636 239.65781 
L 247.854545 240.697842 
L 243.345455 241.689418 
L 238.836364 242.632282 
L 238.356438 242.727273 
L 234.327273 243.429744 
L 229.818182 244.172137 
L 225.309091 244.870705 
L 220.8 245.525241 
L 216.486007 246.109091 
L 216.290909 246.132672 
L 211.781818 246.637143 
L 207.272727 247.101633 
L 202.763636 247.525971 
L 198.254545 247.909988 
L 193.745455 248.253514 
L 189.236364 248.556376 
L 184.727273 248.818402 
L 180.218182 249.039417 
L 175.709091 249.219246 
L 171.2 249.357715 
L 166.690909 249.454645 
L 163.728001 249.490909 
L 162.181818 249.50798 
L 157.672727 249.519974 
L 153.163636 249.494076 
L 152.940047 249.490909 
L 148.654545 249.423415 
L 144.145455 249.309967 
L 139.636364 249.153899 
L 135.127273 248.955026 
L 130.618182 248.713163 
L 126.109091 248.428124 
L 121.6 248.099722 
L 117.090909 247.727769 
L 112.581818 247.312074 
L 108.072727 246.852447 
L 103.563636 246.348697 
L 101.590711 246.109091 
L 99.054545 245.761567 
L 94.545455 245.093757 
L 90.036364 244.375313 
L 85.527273 243.605986 
L 81.018182 242.785524 
L 80.716451 242.727273 
L 76.509091 241.794573 
L 72 240.735407 
" style="fill:none;stroke:#0000c8;"/>
   </g>
   <g id="LineCollection_6">
    <path clip-path="url(#paf5ec11615)" d="M 72 157.704198 
L 76.509091 157.246748 
L 81.018182 156.80964 
L 85.527273 156.392918 
L 90.036364 155.996626 
L 94.545455 155.620808 
L 99.054545 155.265507 
L 103.563636 154.930768 
L 105.44148 154.8 
L 108.072727 154.626246 
L 112.581818 154.348164 
L 117.090909 154.08971 
L 121.6 153.850926 
L 126.109091 153.631852 
L 130.618182 153.432528 
L 135.127273 153.252994 
L 139.636364 153.093291 
L 144.145455 152.953459 
L 148.654545 152.83354 
L 153.163636 152.733573 
L 157.672727 152.653601 
L 162.181818 152.593664 
L 166.690909 152.553803 
L 171.2 152.534059 
L 175.709091 152.534475 
L 180.218182 152.555091 
L 184.727273 152.595949 
L 189.236364 152.657091 
L 193.745455 152.738558 
L 198.254545 152.840394 
L 202.763636 152.962639 
L 207.272727 153.105336 
L 211.781818 153.268528 
L 216.290909 153.452257 
L 220.8 153.656564 
L 225.309091 153.881494 
L 229.818182 154.127089 
L 234.327273 154.393392 
L 238.836364 154.680445 
L 240.588246 154.8 
L 243.345455 154.998937 
L 247.854545 155.346224 
L 252.363636 155.715601 
L 256.872727 156.107117 
L 261.381818 156.52082 
L 265.890909 156.95676 
L 270.4 157.414985 
L 274.909091 157.895545 
L 277.476456 158.181818 
L 279.418182 158.411553 
L 283.927273 158.968642 
L 288.436364 159.549622 
L 292.945455 160.154549 
L 297.454545 160.783478 
L 301.963636 161.436468 
L 302.811039 161.563636 
L 306.472727 162.149035 
L 310.981818 162.895601 
L 315.490909 163.668038 
L 320 164.466411 
L 322.62115 164.945455 
L 324.509091 165.314674 
L 329.018182 166.224018 
L 333.527273 167.16141 
L 338.036364 168.126928 
L 338.946101 168.327273 
L 342.545455 169.179834 
L 347.054545 170.278203 
L 351.563636 171.407192 
L 352.738307 171.709091 
L 356.072727 172.636262 
L 360.581818 173.92321 
L 364.569501 175.090909 
L 365.090909 175.25723 
L 369.6 176.731051 
L 374.109091 178.241941 
L 374.781955 178.472727 
L 378.618182 179.917912 
L 383.127273 181.657591 
L 383.626431 181.854545 
L 387.636364 183.609566 
L 391.268979 185.236364 
L 392.145455 185.677001 
L 396.654545 187.994359 
L 397.84232 188.618182 
L 401.163636 190.606744 
L 403.441116 192 
L 405.672727 193.587421 
L 408.142714 195.381818 
L 410.181818 197.151208 
L 412.002084 198.763636 
L 414.690909 201.720314 
L 415.069797 202.145455 
L 417.360073 205.527273 
L 418.925775 208.909091 
L 419.2 210.004302 
L 419.761345 212.290909 
L 419.888981 215.672727 
L 419.317734 219.054545 
L 419.2 219.368488 
L 418.031442 222.436364 
L 416.04041 225.818182 
L 414.690909 227.513411 
L 413.326923 229.2 
L 410.181818 232.287609 
L 409.877285 232.581818 
L 405.672727 235.949826 
L 405.655203 235.963636 
L 401.163636 238.98685 
L 400.621959 239.345455 
L 396.654545 241.637519 
L 394.736202 242.727273 
L 392.145455 244.032758 
L 387.953724 246.109091 
L 387.636364 246.250338 
L 383.127273 248.220804 
L 380.1684 249.490909 
L 378.618182 250.094957 
L 377.189669 250.641188 
" style="fill:none;stroke:#0000ff;"/>
    <path clip-path="url(#paf5ec11615)" d="M 325.346098 265.542655 
L 324.509091 265.726724 
L 321.369255 266.4 
L 320 266.67495 
L 315.490909 267.556808 
L 310.981818 268.415555 
L 306.472727 269.251133 
L 303.526214 269.781818 
L 301.963636 270.046391 
L 297.454545 270.787523 
L 292.945455 271.506654 
L 288.436364 272.203733 
L 283.927273 272.878706 
L 281.958347 273.163636 
L 279.418182 273.510397 
L 274.909091 274.104749 
L 270.4 274.678065 
L 265.890909 275.230298 
L 261.381818 275.7614 
L 256.872727 276.271324 
L 254.342577 276.545455 
L 252.363636 276.748322 
L 247.854545 277.190231 
L 243.345455 277.611947 
L 238.836364 278.013429 
L 234.327273 278.394632 
L 229.818182 278.755513 
L 225.309091 279.09603 
L 220.8 279.416139 
L 216.290909 279.715797 
L 212.874512 279.927273 
L 211.781818 279.991437 
L 207.272727 280.236593 
L 202.763636 280.462221 
L 198.254545 280.66828 
L 193.745455 280.854731 
L 189.236364 281.021535 
L 184.727273 281.168651 
L 180.218182 281.296039 
L 175.709091 281.40366 
L 171.2 281.491473 
L 166.690909 281.559438 
L 162.181818 281.607514 
L 157.672727 281.635661 
L 153.163636 281.643838 
L 148.654545 281.632005 
L 144.145455 281.60012 
L 139.636364 281.548142 
L 135.127273 281.476031 
L 130.618182 281.383745 
L 126.109091 281.271243 
L 121.6 281.138483 
L 117.090909 280.985424 
L 112.581818 280.812024 
L 108.072727 280.618242 
L 103.563636 280.404035 
L 99.054545 280.169361 
L 94.776669 279.927273 
L 94.545455 279.913447 
L 90.036364 279.622284 
L 85.527273 279.309352 
L 81.018182 278.974603 
L 76.509091 278.617991 
L 72 278.239467 
" style="fill:none;stroke:#0000ff;"/>
   </g>
   <g id="LineCollection_7">
    <path clip-path="url(#paf5ec11615)" d="M 518.4 262.783867 
L 517.910075 263.018182 
L 513.890909 264.814662 
L 510.304328 266.4 
L 509.381818 266.78273 
L 504.872727 268.63154 
L 502.034581 269.781818 
L 500.363636 270.419832 
L 495.854545 272.120948 
L 493.057368 273.163636 
L 491.345455 273.766829 
L 486.836364 275.336019 
L 483.318061 276.545455 
L 482.327273 276.868347 
L 477.818182 278.318981 
L 473.309091 279.751504 
L 472.748397 279.927273 
L 468.8 281.10382 
L 464.290909 282.429968 
L 461.261382 283.309091 
L 459.781818 283.718193 
L 455.272727 284.947768 
L 454.308426 285.207148 
" style="fill:none;stroke:#0080ff;"/>
    <path clip-path="url(#paf5ec11615)" d="M 392.827041 298.87211 
L 392.145455 298.997817 
L 387.636364 299.814892 
L 385.369788 300.218182 
L 383.127273 300.601873 
L 378.618182 301.359123 
L 374.109091 302.102296 
L 369.6 302.831373 
L 365.090909 303.54633 
L 364.745432 303.6 
L 360.581818 304.222862 
L 356.072727 304.883725 
L 351.563636 305.530913 
L 347.054545 306.164405 
L 342.545455 306.784182 
L 341.074514 306.981818 
L 338.036364 307.375417 
L 333.527273 307.946213 
L 329.018182 308.503713 
L 324.509091 309.047898 
L 320 309.57875 
L 315.490909 310.096249 
L 313.098781 310.363636 
L 310.981818 310.592072 
L 306.472727 311.065583 
L 301.963636 311.526139 
L 297.454545 311.973724 
L 292.945455 312.40832 
L 288.436364 312.829908 
L 283.927273 313.238472 
L 279.418182 313.633993 
L 278.103654 313.745455 
L 274.909091 314.007236 
L 270.4 314.364045 
L 265.890909 314.708192 
L 261.381818 315.039661 
L 256.872727 315.358435 
L 252.363636 315.664496 
L 247.854545 315.957829 
L 243.345455 316.238417 
L 238.836364 316.506241 
L 234.327273 316.761286 
L 229.818182 317.003535 
L 227.385865 317.127273 
L 225.309091 317.229477 
L 220.8 317.438918 
L 216.290909 317.635931 
L 211.781818 317.820499 
L 207.272727 317.992606 
L 202.763636 318.152237 
L 198.254545 318.299374 
L 193.745455 318.434002 
L 189.236364 318.556106 
L 184.727273 318.665668 
L 180.218182 318.762672 
L 175.709091 318.847103 
L 171.2 318.918944 
L 166.690909 318.978179 
L 162.181818 319.024791 
L 157.672727 319.058765 
L 153.163636 319.080083 
L 148.654545 319.08873 
L 144.145455 319.084689 
L 139.636364 319.067944 
L 135.127273 319.038478 
L 130.618182 318.996275 
L 126.109091 318.941317 
L 121.6 318.87359 
L 117.090909 318.793075 
L 112.581818 318.699758 
L 108.072727 318.593619 
L 103.563636 318.474645 
L 99.054545 318.342816 
L 94.545455 318.198118 
L 90.036364 318.040532 
L 85.527273 317.870043 
L 81.018182 317.686633 
L 76.509091 317.490285 
L 72 317.280984 
" style="fill:none;stroke:#0080ff;"/>
    <path clip-path="url(#paf5ec11615)" d="M 72 118.684943 
L 76.509091 118.382673 
L 81.018182 118.093209 
L 85.527273 117.816567 
L 89.229282 117.6 
L 90.036364 117.554333 
L 94.545455 117.31172 
L 99.054545 117.081561 
L 103.563636 116.863872 
L 108.072727 116.658669 
L 112.581818 116.465967 
L 117.090909 116.285784 
L 121.6 116.118135 
L 126.109091 115.963036 
L 130.618182 115.820504 
L 135.127273 115.690555 
L 139.636364 115.573205 
L 144.145455 115.468471 
L 148.654545 115.376368 
L 153.163636 115.296915 
L 157.672727 115.230126 
L 162.181818 115.176018 
L 166.690909 115.134608 
L 171.2 115.105913 
L 171.264532 115.105684 
" style="fill:none;stroke:#0080ff;"/>
    <path clip-path="url(#paf5ec11615)" d="M 234.253375 116.04601 
L 234.327273 116.048486 
L 238.836364 116.212505 
L 243.345455 116.389506 
L 247.854545 116.579507 
L 252.363636 116.782524 
L 256.872727 116.998575 
L 261.381818 117.227676 
L 265.890909 117.469845 
L 268.190615 117.6 
L 270.4 117.729471 
L 274.909091 118.007212 
L 279.418182 118.298539 
L 283.927273 118.603472 
L 288.436364 118.922029 
L 292.945455 119.254228 
L 297.454545 119.600087 
L 301.963636 119.959626 
L 306.472727 120.332863 
L 310.981818 120.719817 
L 313.930672 120.981818 
L 315.490909 121.125553 
L 320 121.555086 
L 324.509091 121.998908 
L 329.018182 122.45704 
L 333.527273 122.929501 
L 338.036364 123.416311 
L 342.545455 123.917492 
L 346.4476 124.363636 
L 347.054545 124.435694 
L 351.563636 124.985769 
L 356.072727 125.550842 
L 360.581818 126.130936 
L 365.090909 126.726073 
L 369.6 127.336274 
L 372.551189 127.745455 
L 374.109091 127.9701 
L 378.618182 128.635814 
L 383.127273 129.317285 
L 387.636364 130.014536 
L 392.145455 130.727591 
L 394.618572 131.127273 
L 396.654545 131.470052 
L 401.163636 132.245526 
L 405.672727 133.037566 
L 410.181818 133.8462 
L 413.804167 134.509091 
L 414.690909 134.678451 
L 419.2 135.556668 
L 423.709091 136.452317 
L 428.218182 137.365429 
L 430.764932 137.890909 
L 432.727273 138.314327 
L 437.236364 139.305301 
L 441.745455 140.31467 
L 445.948762 141.272727 
L 446.254545 141.345769 
L 450.763636 142.441627 
L 455.272727 143.556914 
L 459.634401 144.654545 
L 459.781818 144.693516 
L 464.290909 145.905327 
L 468.8 147.137725 
L 472.034401 148.036364 
L 473.309091 148.409374 
L 477.818182 149.750059 
L 482.327273 151.112632 
L 483.322923 151.418182 
L 486.836364 152.557114 
L 491.345455 154.04188 
L 493.612939 154.8 
L 495.854545 155.59422 
L 500.363636 157.216146 
L 503.008393 158.181818 
L 504.872727 158.905801 
L 509.381818 160.682782 
L 511.584635 161.563636 
L 513.890909 162.548507 
L 518.4 164.502185 
" style="fill:none;stroke:#0080ff;"/>
   </g>
   <g id="LineCollection_8">
    <path clip-path="url(#paf5ec11615)" d="M 518.4 335.572784 
L 513.890909 336.44148 
L 509.381818 337.300232 
L 508.75504 337.418182 
L 504.872727 338.129312 
L 500.363636 338.9455 
L 495.854545 339.751967 
L 491.345455 340.548702 
L 489.905293 340.8 
L 486.836364 341.321602 
L 482.327273 342.078383 
L 477.818182 342.825646 
L 473.309091 343.563379 
L 469.47943 344.181818 
L 468.8 344.288757 
L 464.290909 344.98895 
L 459.781818 345.679819 
L 455.272727 346.361353 
L 450.763636 347.033544 
L 447.157329 347.563636 
L 446.254545 347.693054 
L 441.745455 348.330142 
L 437.236364 348.958084 
L 432.727273 349.576869 
L 428.218182 350.18649 
L 423.709091 350.786936 
L 422.499911 350.945455 
L 419.2 351.367597 
L 414.690909 351.9354 
L 410.181818 352.494219 
L 405.672727 353.044044 
L 401.163636 353.584868 
L 396.654545 354.116682 
L 394.837863 354.327273 
L 392.145455 354.631997 
L 387.636364 355.13345 
L 383.127273 355.626075 
L 378.618182 356.109866 
L 374.109091 356.584812 
L 369.6 357.050908 
L 365.090909 357.508143 
L 363.069692 357.709091 
L 360.581818 357.950709 
L 356.072727 358.379889 
L 351.563636 358.800388 
L 347.054545 359.212195 
L 342.545455 359.615304 
L 338.036364 360.009707 
L 333.527273 360.395396 
L 329.018182 360.772362 
L 325.117376 361.090909 
L 324.509091 361.139457 
L 320 361.490696 
L 315.490909 361.833385 
L 310.981818 362.167516 
L 306.472727 362.493081 
L 301.963636 362.810074 
L 297.454545 363.118486 
L 292.945455 363.418309 
L 288.436364 363.709536 
L 283.927273 363.99216 
L 279.418182 364.266172 
L 275.90852 364.472727 
L 274.909091 364.53024 
L 270.4 364.78122 
L 265.890909 365.023758 
L 261.381818 365.257844 
L 256.872727 365.483473 
L 252.363636 365.700635 
L 247.854545 365.909325 
L 243.345455 366.109534 
L 238.836364 366.301255 
L 234.327273 366.48448 
L 229.818182 366.659203 
L 225.309091 366.825415 
L 220.8 366.983109 
L 216.290909 367.132278 
L 211.781818 367.272915 
L 207.272727 367.405011 
L 202.763636 367.528559 
L 198.254545 367.643552 
L 193.745455 367.749981 
L 189.236364 367.847841 
L 189.169527 367.849164 
" style="fill:none;stroke:#7dff7a;"/>
    <path clip-path="url(#paf5ec11615)" d="M 126.172956 368.303845 
L 126.109091 368.303527 
L 121.6 368.27262 
L 117.090909 368.233214 
L 112.581818 368.185302 
L 108.072727 368.128878 
L 103.563636 368.063932 
L 99.054545 367.990459 
L 94.545455 367.908451 
L 91.860866 367.854545 
L 90.036364 367.817064 
L 85.527273 367.715703 
L 81.018182 367.605588 
L 76.509091 367.486711 
L 72 367.359065 
" style="fill:none;stroke:#7dff7a;"/>
    <path clip-path="url(#paf5ec11615)" d="M 72 68.601591 
L 76.509091 68.387283 
L 81.018182 68.181482 
L 85.527273 67.984195 
L 90.036364 67.79543 
L 94.545455 67.615195 
L 99.054545 67.443497 
L 103.563636 67.280343 
L 108.072727 67.125741 
L 112.581818 66.979699 
L 116.090664 66.872727 
L 117.090909 66.842902 
L 121.6 66.716864 
L 126.109091 66.599219 
L 130.618182 66.489975 
L 135.127273 66.389139 
L 139.636364 66.296718 
L 144.145455 66.212719 
L 148.654545 66.13715 
L 153.163636 66.070019 
L 157.672727 66.011331 
L 162.181818 65.961095 
L 166.690909 65.919318 
L 171.2 65.886006 
L 175.709091 65.861169 
L 180.218182 65.844812 
L 184.727273 65.836944 
L 189.236364 65.837571 
L 193.745455 65.846701 
L 198.254545 65.864342 
L 202.763636 65.8905 
L 207.272727 65.925183 
L 211.781818 65.968399 
L 216.290909 66.020155 
L 220.8 66.080458 
L 225.309091 66.149316 
L 229.818182 66.226736 
L 234.327273 66.312725 
L 238.836364 66.407292 
L 243.345455 66.510443 
L 247.854545 66.622186 
L 252.363636 66.742529 
L 256.872727 66.871479 
L 256.91367 66.872727 
L 261.381818 67.012166 
L 265.890909 67.161704 
L 270.4 67.320072 
L 274.909091 67.487276 
L 279.418182 67.663326 
L 283.927273 67.848229 
L 288.436364 68.041992 
L 292.945455 68.244625 
L 297.454545 68.456134 
L 301.963636 68.676527 
L 306.472727 68.905814 
L 310.981818 69.144 
L 315.490909 69.391096 
L 320 69.647107 
L 324.509091 69.912044 
L 329.018182 70.185912 
L 330.112715 70.254545 
L 333.527273 70.473769 
L 338.036364 70.772406 
L 342.545455 71.080215 
L 347.054545 71.397204 
L 351.563636 71.723382 
L 356.072727 72.058757 
L 360.581818 72.403338 
L 365.090909 72.757132 
L 369.6 73.120149 
L 374.109091 73.492397 
L 375.811064 73.636364 
L 378.618182 73.879636 
L 383.127273 74.279836 
L 387.636364 74.689524 
L 392.145455 75.108707 
L 396.654545 75.537394 
L 401.163636 75.975595 
L 405.672727 76.423318 
L 410.181818 76.880573 
L 411.511371 77.018182 
L 414.690909 77.355557 
L 419.2 77.843758 
L 419.481042 77.874798 
" style="fill:none;stroke:#7dff7a;"/>
    <path clip-path="url(#paf5ec11615)" d="M 481.970193 85.850704 
L 482.327273 85.902918 
L 486.836364 86.572743 
L 490.752925 87.163636 
L 491.345455 87.25548 
L 495.854545 87.964995 
L 500.363636 88.685323 
L 504.872727 89.416476 
L 509.381818 90.158466 
L 511.700067 90.545455 
L 513.890909 90.921491 
L 518.4 91.706465 
" style="fill:none;stroke:#7dff7a;"/>
   </g>
   <g id="LineCollection_9"/>
   <g id="patch_3">
    <path d="M 72 378 
L 72 43.2 
" style="fill:none;stroke:#000000;stroke-linecap:square;stroke-linejoin:miter;"/>
   </g>
   <g id="patch_4">
    <path d="M 518.4 378 
L 518.4 43.2 
" style="fill:none;stroke:#000000;stroke-linecap:square;stroke-linejoin:miter;"/>
   </g>
   <g id="patch_5">
    <path d="M 72 378 
L 518.4 378 
" style="fill:none;stroke:#000000;stroke-linecap:square;stroke-linejoin:miter;"/>
   </g>
   <g id="patch_6">
    <path d="M 72 43.2 
L 518.4 43.2 
" style="fill:none;stroke:#000000;stroke-linecap:square;stroke-linejoin:miter;"/>
   </g>
   <g id="matplotlib.axis_1">
    <g id="xtick_1">
     <g id="line2d_1">
      <defs>
       <path d="M 0 0 
L 0 -4 
" id="me93e2c3629" style="stroke:#000000;stroke-width:0.5;"/>
      </defs>
      <g>
       <use style="stroke:#000000;stroke-width:0.5;" x="116.64" xlink:href="#me93e2c3629" y="378.0"/>
      </g>
     </g>
     <g id="line2d_2">
      <defs>
       <path d="M 0 0 
L 0 4 
" id="m3bc42c3903" style="stroke:#000000;stroke-width:0.5;"/>
      </defs>
      <g>
       <use style="stroke:#000000;stroke-width:0.5;" x="116.64" xlink:href="#m3bc42c3903" y="43.2"/>
      </g>
     </g>
     <g id="text_1">
      <!-- −1 -->
      <defs>
       <path d="M 10.59375 35.5 
L 73.1875 35.5 
L 73.1875 27.203125 
L 10.59375 27.203125 
z
" id="BitstreamVeraSans-Roman-2212"/>
       <path d="M 12.40625 8.296875 
L 28.515625 8.296875 
L 28.515625 63.921875 
L 10.984375 60.40625 
L 10.984375 69.390625 
L 28.421875 72.90625 
L 38.28125 72.90625 
L 38.28125 8.296875 
L 54.390625 8.296875 
L 54.390625 0 
L 12.40625 0 
z
" id="BitstreamVeraSans-Roman-31"/>
      </defs>
      <g transform="translate(109.26890625 389.5984375)scale(0.1 -0.1)">
       <use xlink:href="#BitstreamVeraSans-Roman-2212"/>
       <use x="83.7890625" xlink:href="#BitstreamVeraSans-Roman-31"/>
      </g>
     </g>
    </g>
    <g id="xtick_2">
     <g id="line2d_3">
      <g>
       <use style="stroke:#000000;stroke-width:0.5;" x="191.04" xlink:href="#me93e2c3629" y="378.0"/>
      </g>
     </g>
     <g id="line2d_4">
      <g>
       <use style="stroke:#000000;stroke-width:0.5;" x="191.04" xlink:href="#m3bc42c3903" y="43.2"/>
      </g>
     </g>
     <g id="text_2">
      <!-- 0 -->
      <defs>
       <path d="M 31.78125 66.40625 
Q 24.171875 66.40625 20.328125 58.90625 
Q 16.5 51.421875 16.5 36.375 
Q 16.5 21.390625 20.328125 13.890625 
Q 24.171875 6.390625 31.78125 6.390625 
Q 39.453125 6.390625 43.28125 13.890625 
Q 47.125 21.390625 47.125 36.375 
Q 47.125 51.421875 43.28125 58.90625 
Q 39.453125 66.40625 31.78125 66.40625 
M 31.78125 74.21875 
Q 44.046875 74.21875 50.515625 64.515625 
Q 56.984375 54.828125 56.984375 36.375 
Q 56.984375 17.96875 50.515625 8.265625 
Q 44.046875 -1.421875 31.78125 -1.421875 
Q 19.53125 -1.421875 13.0625 8.265625 
Q 6.59375 17.96875 6.59375 36.375 
Q 6.59375 54.828125 13.0625 64.515625 
Q 19.53125 74.21875 31.78125 74.21875 
" id="BitstreamVeraSans-Roman-30"/>
      </defs>
      <g transform="translate(187.85875 389.5984375)scale(0.1 -0.1)">
       <use xlink:href="#BitstreamVeraSans-Roman-30"/>
      </g>
     </g>
    </g>
    <g id="xtick_3">
     <g id="line2d_5">
      <g>
       <use style="stroke:#000000;stroke-width:0.5;" x="265.44" xlink:href="#me93e2c3629" y="378.0"/>
      </g>
     </g>
     <g id="line2d_6">
      <g>
       <use style="stroke:#000000;stroke-width:0.5;" x="265.44" xlink:href="#m3bc42c3903" y="43.2"/>
      </g>
     </g>
     <g id="text_3">
      <!-- 1 -->
      <g transform="translate(262.25875 389.5984375)scale(0.1 -0.1)">
       <use xlink:href="#BitstreamVeraSans-Roman-31"/>
      </g>
     </g>
    </g>
    <g id="xtick_4">
     <g id="line2d_7">
      <g>
       <use style="stroke:#000000;stroke-width:0.5;" x="339.84" xlink:href="#me93e2c3629" y="378.0"/>
      </g>
     </g>
     <g id="line2d_8">
      <g>
       <use style="stroke:#000000;stroke-width:0.5;" x="339.84" xlink:href="#m3bc42c3903" y="43.2"/>
      </g>
     </g>
     <g id="text_4">
      <!-- 2 -->
      <defs>
       <path d="M 19.1875 8.296875 
L 53.609375 8.296875 
L 53.609375 0 
L 7.328125 0 
L 7.328125 8.296875 
Q 12.9375 14.109375 22.625 23.890625 
Q 32.328125 33.6875 34.8125 36.53125 
Q 39.546875 41.84375 41.421875 45.53125 
Q 43.3125 49.21875 43.3125 52.78125 
Q 43.3125 58.59375 39.234375 62.25 
Q 35.15625 65.921875 28.609375 65.921875 
Q 23.96875 65.921875 18.8125 64.3125 
Q 13.671875 62.703125 7.8125 59.421875 
L 7.8125 69.390625 
Q 13.765625 71.78125 18.9375 73 
Q 24.125 74.21875 28.421875 74.21875 
Q 39.75 74.21875 46.484375 68.546875 
Q 53.21875 62.890625 53.21875 53.421875 
Q 53.21875 48.921875 51.53125 44.890625 
Q 49.859375 40.875 45.40625 35.40625 
Q 44.1875 33.984375 37.640625 27.21875 
Q 31.109375 20.453125 19.1875 8.296875 
" id="BitstreamVeraSans-Roman-32"/>
      </defs>
      <g transform="translate(336.65875 389.5984375)scale(0.1 -0.1)">
       <use xlink:href="#BitstreamVeraSans-Roman-32"/>
      </g>
     </g>
    </g>
    <g id="xtick_5">
     <g id="line2d_9">
      <g>
       <use style="stroke:#000000;stroke-width:0.5;" x="414.24" xlink:href="#me93e2c3629" y="378.0"/>
      </g>
     </g>
     <g id="line2d_10">
      <g>
       <use style="stroke:#000000;stroke-width:0.5;" x="414.24" xlink:href="#m3bc42c3903" y="43.2"/>
      </g>
     </g>
     <g id="text_5">
      <!-- 3 -->
      <defs>
       <path d="M 40.578125 39.3125 
Q 47.65625 37.796875 51.625 33 
Q 55.609375 28.21875 55.609375 21.1875 
Q 55.609375 10.40625 48.1875 4.484375 
Q 40.765625 -1.421875 27.09375 -1.421875 
Q 22.515625 -1.421875 17.65625 -0.515625 
Q 12.796875 0.390625 7.625 2.203125 
L 7.625 11.71875 
Q 11.71875 9.328125 16.59375 8.109375 
Q 21.484375 6.890625 26.8125 6.890625 
Q 36.078125 6.890625 40.9375 10.546875 
Q 45.796875 14.203125 45.796875 21.1875 
Q 45.796875 27.640625 41.28125 31.265625 
Q 36.765625 34.90625 28.71875 34.90625 
L 20.21875 34.90625 
L 20.21875 43.015625 
L 29.109375 43.015625 
Q 36.375 43.015625 40.234375 45.921875 
Q 44.09375 48.828125 44.09375 54.296875 
Q 44.09375 59.90625 40.109375 62.90625 
Q 36.140625 65.921875 28.71875 65.921875 
Q 24.65625 65.921875 20.015625 65.03125 
Q 15.375 64.15625 9.8125 62.3125 
L 9.8125 71.09375 
Q 15.4375 72.65625 20.34375 73.4375 
Q 25.25 74.21875 29.59375 74.21875 
Q 40.828125 74.21875 47.359375 69.109375 
Q 53.90625 64.015625 53.90625 55.328125 
Q 53.90625 49.265625 50.4375 45.09375 
Q 46.96875 40.921875 40.578125 39.3125 
" id="BitstreamVeraSans-Roman-33"/>
      </defs>
      <g transform="translate(411.05875 389.5984375)scale(0.1 -0.1)">
       <use xlink:href="#BitstreamVeraSans-Roman-33"/>
      </g>
     </g>
    </g>
    <g id="xtick_6">
     <g id="line2d_11">
      <g>
       <use style="stroke:#000000;stroke-width:0.5;" x="488.64" xlink:href="#me93e2c3629" y="378.0"/>
      </g>
     </g>
     <g id="line2d_12">
      <g>
       <use style="stroke:#000000;stroke-width:0.5;" x="488.64" xlink:href="#m3bc42c3903" y="43.2"/>
      </g>
     </g>
     <g id="text_6">
      <!-- 4 -->
      <defs>
       <path d="M 37.796875 64.3125 
L 12.890625 25.390625 
L 37.796875 25.390625 
z
M 35.203125 72.90625 
L 47.609375 72.90625 
L 47.609375 25.390625 
L 58.015625 25.390625 
L 58.015625 17.1875 
L 47.609375 17.1875 
L 47.609375 0 
L 37.796875 0 
L 37.796875 17.1875 
L 4.890625 17.1875 
L 4.890625 26.703125 
z
" id="BitstreamVeraSans-Roman-34"/>
      </defs>
      <g transform="translate(485.45875 389.5984375)scale(0.1 -0.1)">
       <use xlink:href="#BitstreamVeraSans-Roman-34"/>
      </g>
     </g>
    </g>
    <g id="text_7">
     <!-- $m$ -->
     <defs>
      <path d="M 7.71875 1.703125 
Q 7.71875 2.296875 7.8125 2.59375 
L 15.28125 32.421875 
Q 16.015625 35.203125 16.015625 37.3125 
Q 16.015625 41.609375 13.09375 41.609375 
Q 9.96875 41.609375 8.453125 37.859375 
Q 6.9375 34.125 5.515625 28.421875 
Q 5.515625 28.125 5.21875 27.953125 
Q 4.9375 27.78125 4.6875 27.78125 
L 3.515625 27.78125 
Q 3.171875 27.78125 2.921875 28.140625 
Q 2.6875 28.515625 2.6875 28.8125 
Q 3.765625 33.15625 4.765625 36.171875 
Q 5.765625 39.203125 7.890625 41.6875 
Q 10.015625 44.1875 13.1875 44.1875 
Q 16.9375 44.1875 19.8125 41.8125 
Q 22.703125 39.453125 22.703125 35.796875 
Q 25.6875 39.703125 29.6875 41.9375 
Q 33.6875 44.1875 38.1875 44.1875 
Q 42.921875 44.1875 46.359375 41.765625 
Q 49.8125 39.359375 49.8125 34.90625 
Q 52.875 39.265625 57 41.71875 
Q 61.140625 44.1875 66.015625 44.1875 
Q 71.1875 44.1875 74.328125 41.375 
Q 77.484375 38.578125 77.484375 33.40625 
Q 77.484375 29.296875 75.65625 23.484375 
Q 73.828125 17.671875 71.09375 10.5 
Q 69.671875 7.03125 69.671875 4.5 
Q 69.671875 1.515625 72.015625 1.515625 
Q 75.921875 1.515625 78.515625 5.703125 
Q 81.109375 9.90625 82.171875 14.703125 
Q 82.46875 15.28125 83.015625 15.28125 
L 84.1875 15.28125 
Q 84.578125 15.28125 84.84375 15.015625 
Q 85.109375 14.75 85.109375 14.40625 
Q 85.109375 14.3125 85.015625 14.109375 
Q 83.640625 8.453125 80.25 3.65625 
Q 76.859375 -1.125 71.78125 -1.125 
Q 68.265625 -1.125 65.765625 1.296875 
Q 63.28125 3.71875 63.28125 7.171875 
Q 63.28125 8.9375 64.109375 11.078125 
Q 66.9375 18.609375 68.8125 24.515625 
Q 70.703125 30.421875 70.703125 34.90625 
Q 70.703125 37.703125 69.578125 39.65625 
Q 68.453125 41.609375 65.828125 41.609375 
Q 60.359375 41.609375 56.34375 38.25 
Q 52.34375 34.90625 49.421875 29.390625 
Q 49.21875 28.421875 49.125 27.875 
L 42.671875 2.203125 
Q 42.328125 0.828125 41.125 -0.140625 
Q 39.9375 -1.125 38.484375 -1.125 
Q 37.3125 -1.125 36.40625 -0.34375 
Q 35.5 0.4375 35.5 1.703125 
Q 35.5 2.296875 35.59375 2.59375 
L 42 28.078125 
Q 43.015625 32.171875 43.015625 34.90625 
Q 43.015625 37.703125 41.859375 39.65625 
Q 40.71875 41.609375 37.984375 41.609375 
Q 34.328125 41.609375 31.25 39.984375 
Q 28.171875 38.375 25.875 35.71875 
Q 23.578125 33.0625 21.6875 29.390625 
L 14.890625 2.203125 
Q 14.546875 0.828125 13.34375 -0.140625 
Q 12.15625 -1.125 10.6875 -1.125 
Q 9.46875 -1.125 8.59375 -0.34375 
Q 7.71875 0.4375 7.71875 1.703125 
" id="Cmmi10-6d"/>
     </defs>
     <g transform="translate(284.2 415.67421875)scale(0.25 -0.25)">
      <use transform="translate(0.0 0.8125)" xlink:href="#Cmmi10-6d"/>
     </g>
    </g>
   </g>
   <g id="matplotlib.axis_2">
    <g id="ytick_1">
     <g id="line2d_13">
      <defs>
       <path d="M 0 0 
L 4 0 
" id="me1712ef1e6" style="stroke:#000000;stroke-width:0.5;"/>
      </defs>
      <g>
       <use style="stroke:#000000;stroke-width:0.5;" x="72.0" xlink:href="#me1712ef1e6" y="372.42"/>
      </g>
     </g>
     <g id="line2d_14">
      <defs>
       <path d="M 0 0 
L -4 0 
" id="m6e63bfb4c0" style="stroke:#000000;stroke-width:0.5;"/>
      </defs>
      <g>
       <use style="stroke:#000000;stroke-width:0.5;" x="518.4" xlink:href="#m6e63bfb4c0" y="372.42"/>
      </g>
     </g>
     <g id="text_8">
      <!-- −6 -->
      <defs>
       <path d="M 33.015625 40.375 
Q 26.375 40.375 22.484375 35.828125 
Q 18.609375 31.296875 18.609375 23.390625 
Q 18.609375 15.53125 22.484375 10.953125 
Q 26.375 6.390625 33.015625 6.390625 
Q 39.65625 6.390625 43.53125 10.953125 
Q 47.40625 15.53125 47.40625 23.390625 
Q 47.40625 31.296875 43.53125 35.828125 
Q 39.65625 40.375 33.015625 40.375 
M 52.59375 71.296875 
L 52.59375 62.3125 
Q 48.875 64.0625 45.09375 64.984375 
Q 41.3125 65.921875 37.59375 65.921875 
Q 27.828125 65.921875 22.671875 59.328125 
Q 17.53125 52.734375 16.796875 39.40625 
Q 19.671875 43.65625 24.015625 45.921875 
Q 28.375 48.1875 33.59375 48.1875 
Q 44.578125 48.1875 50.953125 41.515625 
Q 57.328125 34.859375 57.328125 23.390625 
Q 57.328125 12.15625 50.6875 5.359375 
Q 44.046875 -1.421875 33.015625 -1.421875 
Q 20.359375 -1.421875 13.671875 8.265625 
Q 6.984375 17.96875 6.984375 36.375 
Q 6.984375 53.65625 15.1875 63.9375 
Q 23.390625 74.21875 37.203125 74.21875 
Q 40.921875 74.21875 44.703125 73.484375 
Q 48.484375 72.75 52.59375 71.296875 
" id="BitstreamVeraSans-Roman-36"/>
      </defs>
      <g transform="translate(53.2578125 375.179375)scale(0.1 -0.1)">
       <use xlink:href="#BitstreamVeraSans-Roman-2212"/>
       <use x="83.7890625" xlink:href="#BitstreamVeraSans-Roman-36"/>
      </g>
     </g>
    </g>
    <g id="ytick_2">
     <g id="line2d_15">
      <g>
       <use style="stroke:#000000;stroke-width:0.5;" x="72.0" xlink:href="#me1712ef1e6" y="316.62"/>
      </g>
     </g>
     <g id="line2d_16">
      <g>
       <use style="stroke:#000000;stroke-width:0.5;" x="518.4" xlink:href="#m6e63bfb4c0" y="316.62"/>
      </g>
     </g>
     <g id="text_9">
      <!-- −5 -->
      <defs>
       <path d="M 10.796875 72.90625 
L 49.515625 72.90625 
L 49.515625 64.59375 
L 19.828125 64.59375 
L 19.828125 46.734375 
Q 21.96875 47.46875 24.109375 47.828125 
Q 26.265625 48.1875 28.421875 48.1875 
Q 40.625 48.1875 47.75 41.5 
Q 54.890625 34.8125 54.890625 23.390625 
Q 54.890625 11.625 47.5625 5.09375 
Q 40.234375 -1.421875 26.90625 -1.421875 
Q 22.3125 -1.421875 17.546875 -0.640625 
Q 12.796875 0.140625 7.71875 1.703125 
L 7.71875 11.625 
Q 12.109375 9.234375 16.796875 8.0625 
Q 21.484375 6.890625 26.703125 6.890625 
Q 35.15625 6.890625 40.078125 11.328125 
Q 45.015625 15.765625 45.015625 23.390625 
Q 45.015625 31 40.078125 35.4375 
Q 35.15625 39.890625 26.703125 39.890625 
Q 22.75 39.890625 18.8125 39.015625 
Q 14.890625 38.140625 10.796875 36.28125 
z
" id="BitstreamVeraSans-Roman-35"/>
      </defs>
      <g transform="translate(53.2578125 319.379375)scale(0.1 -0.1)">
       <use xlink:href="#BitstreamVeraSans-Roman-2212"/>
       <use x="83.7890625" xlink:href="#BitstreamVeraSans-Roman-35"/>
      </g>
     </g>
    </g>
    <g id="ytick_3">
     <g id="line2d_17">
      <g>
       <use style="stroke:#000000;stroke-width:0.5;" x="72.0" xlink:href="#me1712ef1e6" y="260.82"/>
      </g>
     </g>
     <g id="line2d_18">
      <g>
       <use style="stroke:#000000;stroke-width:0.5;" x="518.4" xlink:href="#m6e63bfb4c0" y="260.82"/>
      </g>
     </g>
     <g id="text_10">
      <!-- −4 -->
      <g transform="translate(53.2578125 263.579375)scale(0.1 -0.1)">
       <use xlink:href="#BitstreamVeraSans-Roman-2212"/>
       <use x="83.7890625" xlink:href="#BitstreamVeraSans-Roman-34"/>
      </g>
     </g>
    </g>
    <g id="ytick_4">
     <g id="line2d_19">
      <g>
       <use style="stroke:#000000;stroke-width:0.5;" x="72.0" xlink:href="#me1712ef1e6" y="205.02"/>
      </g>
     </g>
     <g id="line2d_20">
      <g>
       <use style="stroke:#000000;stroke-width:0.5;" x="518.4" xlink:href="#m6e63bfb4c0" y="205.02"/>
      </g>
     </g>
     <g id="text_11">
      <!-- −3 -->
      <g transform="translate(53.2578125 207.779375)scale(0.1 -0.1)">
       <use xlink:href="#BitstreamVeraSans-Roman-2212"/>
       <use x="83.7890625" xlink:href="#BitstreamVeraSans-Roman-33"/>
      </g>
     </g>
    </g>
    <g id="ytick_5">
     <g id="line2d_21">
      <g>
       <use style="stroke:#000000;stroke-width:0.5;" x="72.0" xlink:href="#me1712ef1e6" y="149.22"/>
      </g>
     </g>
     <g id="line2d_22">
      <g>
       <use style="stroke:#000000;stroke-width:0.5;" x="518.4" xlink:href="#m6e63bfb4c0" y="149.22"/>
      </g>
     </g>
     <g id="text_12">
      <!-- −2 -->
      <g transform="translate(53.2578125 151.979375)scale(0.1 -0.1)">
       <use xlink:href="#BitstreamVeraSans-Roman-2212"/>
       <use x="83.7890625" xlink:href="#BitstreamVeraSans-Roman-32"/>
      </g>
     </g>
    </g>
    <g id="ytick_6">
     <g id="line2d_23">
      <g>
       <use style="stroke:#000000;stroke-width:0.5;" x="72.0" xlink:href="#me1712ef1e6" y="93.42"/>
      </g>
     </g>
     <g id="line2d_24">
      <g>
       <use style="stroke:#000000;stroke-width:0.5;" x="518.4" xlink:href="#m6e63bfb4c0" y="93.42"/>
      </g>
     </g>
     <g id="text_13">
      <!-- −1 -->
      <g transform="translate(53.2578125 96.179375)scale(0.1 -0.1)">
       <use xlink:href="#BitstreamVeraSans-Roman-2212"/>
       <use x="83.7890625" xlink:href="#BitstreamVeraSans-Roman-31"/>
      </g>
     </g>
    </g>
    <g id="text_14">
     <!-- $c$ -->
     <defs>
      <path d="M 11.71875 11.921875 
Q 11.71875 7.5625 13.9375 4.53125 
Q 16.15625 1.515625 20.3125 1.515625 
Q 26.265625 1.515625 31.75 4.25 
Q 37.25 6.984375 40.71875 11.8125 
Q 41.015625 12.109375 41.5 12.109375 
Q 42 12.109375 42.5 11.546875 
Q 43.015625 10.984375 43.015625 10.5 
Q 43.015625 10.109375 42.828125 9.90625 
Q 39.15625 4.78125 32.953125 1.828125 
Q 26.765625 -1.125 20.125 -1.125 
Q 15.328125 -1.125 11.671875 1.140625 
Q 8.015625 3.421875 6 7.21875 
Q 4 11.03125 4 15.828125 
Q 4 22.5625 7.765625 29.203125 
Q 11.53125 35.84375 17.78125 40.015625 
Q 24.03125 44.1875 30.90625 44.1875 
Q 35.40625 44.1875 38.984375 42.015625 
Q 42.578125 39.84375 42.578125 35.59375 
Q 42.578125 32.859375 40.984375 30.921875 
Q 39.40625 29 36.71875 29 
Q 35.109375 29 34 30 
Q 32.90625 31 32.90625 32.625 
Q 32.90625 34.96875 34.609375 36.625 
Q 36.328125 38.28125 38.625 38.28125 
L 38.8125 38.28125 
Q 37.640625 39.984375 35.421875 40.796875 
Q 33.203125 41.609375 30.8125 41.609375 
Q 24.953125 41.609375 20.546875 36.59375 
Q 16.15625 31.59375 13.9375 24.625 
Q 11.71875 17.671875 11.71875 11.921875 
" id="Cmmi10-63"/>
     </defs>
     <g transform="translate(43.05859375 216.1)rotate(-90.0)scale(0.25 -0.25)">
      <use transform="translate(0.0 0.8125)" xlink:href="#Cmmi10-63"/>
     </g>
    </g>
   </g>
   <g id="text_15">
    <g clip-path="url(#paf5ec11615)">
     <!-- 4.000 -->
     <defs>
      <path d="M 10.6875 12.40625 
L 21 12.40625 
L 21 0 
L 10.6875 0 
z
" id="BitstreamVeraSans-Roman-2e"/>
     </defs>
     <g style="fill:#0000c8;" transform="translate(149.706439065 188.708370278)rotate(-359.684485539115)scale(0.15 -0.15)">
      <use xlink:href="#BitstreamVeraSans-Roman-34"/>
      <use x="63.623046875" xlink:href="#BitstreamVeraSans-Roman-2e"/>
      <use x="95.41015625" xlink:href="#BitstreamVeraSans-Roman-30"/>
      <use x="159.033203125" xlink:href="#BitstreamVeraSans-Roman-30"/>
      <use x="222.65625" xlink:href="#BitstreamVeraSans-Roman-30"/>
     </g>
    </g>
   </g>
   <g id="text_16">
    <g clip-path="url(#paf5ec11615)">
     <!-- 8.000 -->
     <defs>
      <path d="M 31.78125 34.625 
Q 24.75 34.625 20.71875 30.859375 
Q 16.703125 27.09375 16.703125 20.515625 
Q 16.703125 13.921875 20.71875 10.15625 
Q 24.75 6.390625 31.78125 6.390625 
Q 38.8125 6.390625 42.859375 10.171875 
Q 46.921875 13.96875 46.921875 20.515625 
Q 46.921875 27.09375 42.890625 30.859375 
Q 38.875 34.625 31.78125 34.625 
M 21.921875 38.8125 
Q 15.578125 40.375 12.03125 44.71875 
Q 8.5 49.078125 8.5 55.328125 
Q 8.5 64.0625 14.71875 69.140625 
Q 20.953125 74.21875 31.78125 74.21875 
Q 42.671875 74.21875 48.875 69.140625 
Q 55.078125 64.0625 55.078125 55.328125 
Q 55.078125 49.078125 51.53125 44.71875 
Q 48 40.375 41.703125 38.8125 
Q 48.828125 37.15625 52.796875 32.3125 
Q 56.78125 27.484375 56.78125 20.515625 
Q 56.78125 9.90625 50.3125 4.234375 
Q 43.84375 -1.421875 31.78125 -1.421875 
Q 19.734375 -1.421875 13.25 4.234375 
Q 6.78125 9.90625 6.78125 20.515625 
Q 6.78125 27.484375 10.78125 32.3125 
Q 14.796875 37.15625 21.921875 38.8125 
M 18.3125 54.390625 
Q 18.3125 48.734375 21.84375 45.5625 
Q 25.390625 42.390625 31.78125 42.390625 
Q 38.140625 42.390625 41.71875 45.5625 
Q 45.3125 48.734375 45.3125 54.390625 
Q 45.3125 60.0625 41.71875 63.234375 
Q 38.140625 66.40625 31.78125 66.40625 
Q 25.390625 66.40625 21.84375 63.234375 
Q 18.3125 60.0625 18.3125 54.390625 
" id="BitstreamVeraSans-Roman-38"/>
     </defs>
     <g style="fill:#0000ff;" transform="translate(332.050635086 268.977189505)rotate(-15.91569349494543)scale(0.15 -0.15)">
      <use xlink:href="#BitstreamVeraSans-Roman-38"/>
      <use x="63.623046875" xlink:href="#BitstreamVeraSans-Roman-2e"/>
      <use x="95.41015625" xlink:href="#BitstreamVeraSans-Roman-30"/>
      <use x="159.033203125" xlink:href="#BitstreamVeraSans-Roman-30"/>
      <use x="222.65625" xlink:href="#BitstreamVeraSans-Roman-30"/>
     </g>
    </g>
   </g>
   <g id="text_17">
    <g clip-path="url(#paf5ec11615)">
     <!-- 16.000 -->
     <g style="fill:#0080ff;" transform="translate(398.983225588 302.392036895)rotate(-12.495185204549585)scale(0.15 -0.15)">
      <use xlink:href="#BitstreamVeraSans-Roman-31"/>
      <use x="63.623046875" xlink:href="#BitstreamVeraSans-Roman-36"/>
      <use x="127.24609375" xlink:href="#BitstreamVeraSans-Roman-2e"/>
      <use x="159.033203125" xlink:href="#BitstreamVeraSans-Roman-30"/>
      <use x="222.65625" xlink:href="#BitstreamVeraSans-Roman-30"/>
      <use x="286.279296875" xlink:href="#BitstreamVeraSans-Roman-30"/>
     </g>
    </g>
   </g>
   <g id="text_18">
    <g clip-path="url(#paf5ec11615)">
     <!-- 16.000 -->
     <g style="fill:#0080ff;" transform="translate(176.461835644 119.009504725)rotate(-359.1451420654669)scale(0.15 -0.15)">
      <use xlink:href="#BitstreamVeraSans-Roman-31"/>
      <use x="63.623046875" xlink:href="#BitstreamVeraSans-Roman-36"/>
      <use x="127.24609375" xlink:href="#BitstreamVeraSans-Roman-2e"/>
      <use x="159.033203125" xlink:href="#BitstreamVeraSans-Roman-30"/>
      <use x="222.65625" xlink:href="#BitstreamVeraSans-Roman-30"/>
      <use x="286.279296875" xlink:href="#BitstreamVeraSans-Roman-30"/>
     </g>
    </g>
   </g>
   <g id="text_19">
    <g clip-path="url(#paf5ec11615)">
     <!-- 32.000 -->
     <g style="fill:#7dff7a;" transform="translate(131.460322681 372.610942937)rotate(-0.413627706677687)scale(0.15 -0.15)">
      <use xlink:href="#BitstreamVeraSans-Roman-33"/>
      <use x="63.623046875" xlink:href="#BitstreamVeraSans-Roman-32"/>
      <use x="127.24609375" xlink:href="#BitstreamVeraSans-Roman-2e"/>
      <use x="159.033203125" xlink:href="#BitstreamVeraSans-Roman-30"/>
      <use x="222.65625" xlink:href="#BitstreamVeraSans-Roman-30"/>
      <use x="286.279296875" xlink:href="#BitstreamVeraSans-Roman-30"/>
     </g>
    </g>
   </g>
   <g id="text_20">
    <g clip-path="url(#paf5ec11615)">
     <!-- 32.000 -->
     <g style="fill:#7dff7a;" transform="translate(424.207891919 82.3512040515)rotate(-352.732294857235)scale(0.15 -0.15)">
      <use xlink:href="#BitstreamVeraSans-Roman-33"/>
      <use x="63.623046875" xlink:href="#BitstreamVeraSans-Roman-32"/>
      <use x="127.24609375" xlink:href="#BitstreamVeraSans-Roman-2e"/>
      <use x="159.033203125" xlink:href="#BitstreamVeraSans-Roman-30"/>
      <use x="222.65625" xlink:href="#BitstreamVeraSans-Roman-30"/>
      <use x="286.279296875" xlink:href="#BitstreamVeraSans-Roman-30"/>
     </g>
    </g>
   </g>
  </g>
 </g>
 <defs>
  <clipPath id="paf5ec11615">
   <rect height="334.8" width="446.4" x="72.0" y="43.2"/>
  </clipPath>
 </defs>
</svg>
